<?xml version="1.0" encoding="UTF-8" standalone="no"?>
<svg
   xmlns:dc="http://purl.org/dc/elements/1.1/"
   xmlns:cc="http://creativecommons.org/ns#"
   xmlns:rdf="http://www.w3.org/1999/02/22-rdf-syntax-ns#"
   xmlns:svg="http://www.w3.org/2000/svg"
   xmlns="http://www.w3.org/2000/svg"
   xmlns:sodipodi="http://sodipodi.sourceforge.net/DTD/sodipodi-0.dtd"
   xmlns:inkscape="http://www.inkscape.org/namespaces/inkscape"
   version="1.0"
   width="300.000000pt"
   height="398.000000pt"
   viewBox="0 0 300.000000 398.000000"
   preserveAspectRatio="xMidYMid meet"
   id="svg280"
   sodipodi:docname="ollie_logo.svg"
   inkscape:version="0.92.5 (2060ec1f9f, 2020-04-08)">
  <defs
     id="defs284" />
  <sodipodi:namedview
     pagecolor="#ffffff"
     bordercolor="#666666"
     borderopacity="1"
     objecttolerance="10"
     gridtolerance="10"
     guidetolerance="10"
     inkscape:pageopacity="0"
     inkscape:pageshadow="2"
     inkscape:window-width="2560"
     inkscape:window-height="1472"
     id="namedview282"
     showgrid="false"
     inkscape:zoom="0.44472362"
     inkscape:cx="-426.23164"
     inkscape:cy="265.33333"
     inkscape:window-x="0"
     inkscape:window-y="54"
     inkscape:window-maximized="1"
     inkscape:current-layer="svg280" />
  <metadata
     id="metadata2">
Created by potrace 1.10, written by Peter Selinger 2001-2011
<rdf:RDF>
  <cc:Work
     rdf:about="">
    <dc:format>image/svg+xml</dc:format>
    <dc:type
       rdf:resource="http://purl.org/dc/dcmitype/StillImage" />
  </cc:Work>
</rdf:RDF>
</metadata>
  <g
     transform="translate(0.000000,398.000000) scale(0.100000,-0.100000)"
     fill="#000000"
     stroke="none"
     id="g278"
     style="fill:#8642da;fill-opacity:1">
    <path
       d="M1163 3970 c-44 -5 -78 -16 -114 -38 -28 -18 -54 -32 -58 -32 -4 0 -58 -27 -119 -61 -78 -42 -109 -64 -106 -74 5 -12 1 -12 -25 1 -33 16 -71 59 -71 79 0 6 -11 25 -25 41 -19 23 -25 25 -25 12 0 -10 5 -18 10 -18 6 0 10 -11 10 -25 0 -14 9 -42 19 -63 23 -44 71 -93 71 -71 0 11 2 11 8 1 6 -9 15 -10 33 -3 14 6 18 10 9 11 -9 1 -6 5 8 11 13 5 20 13 17 19 -3 5 3 10 14 10 15 0 62 19 91 38 2 2 -2 8 -10 13 -11 8 -4 9 23 4 27 -4 37 -3 32 4 -4 7 3 11 17 11 23 1 23 1 3 16 -19 15 -18 15 17 13 21 -2 43 2 50 9 6 6 18 12 26 12 8 0 12 6 8 15 -4 10 1 15 17 16 12 1 33 3 47 5 14 2 72 6 130 9 58 3 134 8 170 11 166 12 210 15 285 17 44 2 94 -1 110 -6 17 -5 50 -9 75 -8 35 0 41 -2 25 -10 -15 -7 -10 -8 23 -6 38 2 57 -6 31 -15 -6 -2 7 -3 29 -3 23 0 46 -7 56 -18 10 -9 26 -17 36 -17 10 0 26 -7 34 -16 15 -14 18 -11 40 37 14 33 25 48 29 38 5 -12 7 -12 16 1 18 25 -28 25 -55 -1 -22 -21 -27 -21 -66 -10 -24 7 -61 22 -82 32 -37 18 -66 19 -420 18 -210 -1 -409 -5 -443 -9z"
       id="path4"
       style="fill:#8642da;fill-opacity:1" />
    <path
       d="M2289 3953 c5 -10 13 -29 19 -43 9 -23 9 -23 8 10 -1 33 -11 49 -29 50 -4 0 -3 -8 2 -17z"
       id="path6"
       style="fill:#8642da;fill-opacity:1" />
    <path
       d="M2357 3943 c-4 -3 -7 -15 -7 -25 0 -10 -4 -18 -10 -18 -5 0 -6 -7 -3 -17 4 -10 2 -14 -4 -10 -5 4 -15 -5 -21 -18 -12 -25 -11 -25 13 -9 13 9 27 24 30 35 4 11 10 17 15 14 9 -6 43 36 35 44 -3 2 -12 -4 -21 -15 -15 -18 -15 -18 -9 4 6 21 -4 30 -18 15z"
       id="path8"
       style="fill:#8642da;fill-opacity:1" />
    <path
       d="M2241 3933 c-1 -7 0 -15 2 -17 1 -2 -7 -13 -17 -25 -11 -12 -16 -24 -13 -27 4 -4 9 0 13 9 3 9 12 13 19 11 13 -5 35 23 35 45 0 22 -20 10 -21 -11 -1 -22 -1 -22 -9 2 -4 14 -8 19 -9 13z"
       id="path10"
       style="fill:#8642da;fill-opacity:1" />
    <path
       d="M2412 3915 c-12 -25 -12 -25 13 -9 27 18 33 34 12 34 -8 0 -19 -11 -25 -25z"
       id="path12"
       style="fill:#8642da;fill-opacity:1" />
    <path
       d="M2469 3874 c2 -25 0 -75 -4 -110 -5 -49 -10 -64 -22 -64 -35 0 -4 -9 81 -24 49 -9 94 -21 100 -27 8 -9 3 -10 -19 -5 -28 7 -29 6 -10 -7 11 -7 41 -20 68 -27 26 -7 47 -16 47 -21 0 -8 59 -24 66 -17 9 10 -97 70 -112 64 -11 -4 -15 -2 -11 8 6 16 -52 49 -108 62 -50 11 -55 21 -55 98 0 72 -7 116 -19 116 -3 0 -5 -21 -2 -46z"
       id="path14"
       style="fill:#8642da;fill-opacity:1" />
    <path
       d="M554 3869 c-5 -8 -9 -20 -8 -26 1 -7 2 -18 3 -24 0 -5 6 -7 11 -4 6 3 10 1 10 -6 0 -7 2 -10 4 -8 2 2 1 22 -3 43 -5 30 -8 36 -17 25z"
       id="path16"
       style="fill:#8642da;fill-opacity:1" />
    <path
       d="M1362 3843 c2 -5 9 -19 16 -33 7 -14 16 -43 21 -65 l9 -40 1 48 c1 26 -3 47 -8 47 -5 0 -12 11 -15 25 -4 14 -11 25 -17 25 -6 0 -9 -3 -7 -7z"
       id="path18"
       style="fill:#8642da;fill-opacity:1" />
    <path
       d="M518 3806 c-4 -19 -1 -29 9 -33 8 -3 12 -12 8 -20 -3 -9 10 -31 34 -54 43 -43 74 -54 47 -16 -9 12 -29 45 -45 72 -17 28 -34 57 -39 65 -7 11 -10 8 -14 -14z"
       id="path20"
       style="fill:#8642da;fill-opacity:1" />
    <path
       d="M2380 3735 c-23 -13 -23 -14 -4 -15 11 0 29 7 40 15 26 19 -1 20 -36 0z"
       id="path22"
       style="fill:#8642da;fill-opacity:1" />
    <path
       d="M480 3689 c0 -11 -4 -18 -9 -15 -4 3 -26 -3 -47 -14 -45 -22 -45 -22 58 -25 l77 -2 -27 20 c-46 34 -47 37 -12 27 18 -5 40 -16 49 -23 9 -8 23 -17 31 -21 21 -11 -28 31 -65 55 -39 24 -55 24 -55 -2z"
       id="path24"
       style="fill:#8642da;fill-opacity:1" />
    <path
       d="M427 3586 c-3 -8 -19 -17 -35 -21 -16 -3 -40 -18 -53 -32 l-24 -25 52 26 c29 14 68 26 87 26 19 0 38 5 42 11 3 6 14 9 24 6 10 -3 34 -1 52 4 l33 8 -35 -3 c-19 -2 -45 0 -57 5 -13 5 -23 5 -23 0 0 -9 -41 -23 -49 -16 -2 3 7 9 20 14 l24 10 -26 0 c-15 1 -29 -5 -32 -13z"
       id="path26"
       style="fill:#8642da;fill-opacity:1" />
    <path
       d="M2405 3590 c-3 -5 -1 -10 6 -10 7 0 32 -21 56 -47 24 -27 43 -43 43 -36 0 15 -56 80 -81 93 -12 7 -20 7 -24 0z"
       id="path28"
       style="fill:#8642da;fill-opacity:1" />
    <path
       d="M2613 3549 c21 -11 44 -18 50 -16 15 5 -18 22 -58 31 -28 6 -27 5 8 -15z"
       id="path30"
       style="fill:#8642da;fill-opacity:1" />
    <path
       d="M521 3551 c-7 -5 -11 -13 -7 -19 8 -14 -23 -72 -39 -72 -7 0 -18 -7 -25 -15 -10 -13 -9 -15 11 -15 23 -1 23 -1 -4 -16 -36 -20 -29 -29 7 -11 27 15 93 97 77 97 -5 0 -7 14 -5 30 6 33 5 34 -15 21z"
       id="path32"
       style="fill:#8642da;fill-opacity:1" />
    <path
       d="M595 3535 l-30 -26 35 19 c19 10 42 21 50 25 11 4 10 6 -5 6 -11 1 -33 -10 -50 -24z"
       id="path34"
       style="fill:#8642da;fill-opacity:1" />
    <path
       d="M405 3534 c-22 -8 -56 -28 -75 -44 -19 -16 -38 -30 -42 -30 -14 0 -58 -43 -58 -57 0 -7 -4 -13 -10 -13 -5 0 -10 -5 -10 -11 0 -5 13 -2 30 7 17 10 25 21 19 25 -6 3 3 12 20 19 16 6 59 31 94 54 36 22 73 46 83 53 27 17 0 15 -51 -3z"
       id="path36"
       style="fill:#8642da;fill-opacity:1" />
    <path
       d="M2120 3539 c0 -13 51 -55 62 -51 5 1 8 -2 8 -7 0 -5 7 -11 14 -14 10 -4 13 -1 10 8 -3 8 -13 17 -22 20 -10 2 -29 16 -44 30 -16 14 -28 21 -28 14z"
       id="path38"
       style="fill:#8642da;fill-opacity:1" />
    <path
       d="M2787 3520 c4 -19 7 -45 8 -57 0 -13 4 -23 9 -23 11 0 -1 91 -14 104 -7 7 -8 -1 -3 -24z"
       id="path40"
       style="fill:#8642da;fill-opacity:1" />
    <path
       d="M2520 3530 c-8 -6 -10 -10 -4 -10 7 0 11 -7 10 -16 -1 -19 38 -49 74 -59 18 -4 15 1 -15 19 -24 16 -40 34 -41 46 -2 27 -6 31 -24 20z"
       id="path42"
       style="fill:#8642da;fill-opacity:1" />
    <path
       d="M2680 3499 c76 -34 90 -38 90 -29 0 12 -30 25 -80 34 -32 5 -33 5 -10 -5z"
       id="path44"
       style="fill:#8642da;fill-opacity:1" />
    <path
       d="M2687 3458 c40 -23 70 -44 68 -48 -2 -4 9 -17 25 -29 17 -12 30 -18 30 -14 -1 25 -14 53 -26 53 -8 0 -14 4 -14 9 0 8 -129 71 -146 71 -5 0 23 -19 63 -42z"
       id="path46"
       style="fill:#8642da;fill-opacity:1" />
    <path
       d="M2380 3438 c0 -4 5 -8 11 -8 5 0 8 -4 5 -8 -3 -5 9 -23 27 -39 18 -17 40 -42 50 -57 11 -15 21 -25 24 -22 7 7 -31 67 -61 95 -14 14 -26 30 -26 36 0 6 -7 12 -15 12 -8 0 -15 -4 -15 -9z"
       id="path48"
       style="fill:#8642da;fill-opacity:1" />
    <path
       d="M2090 3428 c0 -6 3 -8 6 -5 4 3 18 -3 32 -13 13 -11 32 -20 41 -19 13 0 14 1 1 6 -8 3 -26 14 -39 24 -27 22 -41 24 -41 7z"
       id="path50"
       style="fill:#8642da;fill-opacity:1" />
    <path
       d="M514 3390 c-27 -22 -55 -40 -64 -40 -13 0 -13 -2 -1 -9 9 -6 22 -4 37 6 13 8 26 14 31 12 4 -1 18 15 30 35 13 20 21 36 19 36 -2 0 -26 -18 -52 -40z"
       id="path52"
       style="fill:#8642da;fill-opacity:1" />
    <path
       d="M331 3404 c-19 -8 -32 -17 -29 -19 7 -8 68 16 68 26 0 11 2 11 -39 -7z"
       id="path54"
       style="fill:#8642da;fill-opacity:1" />
    <path
       d="M1380 3393 c0 -17 8 -38 20 -48 11 -10 20 -13 20 -7 0 6 -5 12 -11 14 -6 2 -13 16 -14 32 -5 39 -15 46 -15 9z"
       id="path56"
       style="fill:#8642da;fill-opacity:1" />
    <path
       d="M2347 3412 c-6 -9 18 -44 25 -37 8 8 24 -16 36 -55 11 -32 10 -33 -3 -16 -8 11 -15 25 -15 32 0 7 -4 15 -8 18 -5 3 -8 -3 -7 -12 4 -33 45 -112 98 -189 52 -76 77 -132 112 -258 9 -33 18 -66 21 -72 4 -16 34 -17 34 -2 0 5 -5 7 -12 3 -6 -4 -8 -3 -5 2 3 5 -3 41 -14 79 -10 39 -17 76 -14 84 3 7 1 19 -5 26 -6 7 -13 22 -15 34 -2 12 -22 43 -44 69 -23 27 -41 59 -41 73 0 16 -3 20 -8 11 -8 -12 -18 6 -53 97 -19 46 1 36 53 -29 19 -25 39 -55 42 -67 8 -24 36 -52 36 -35 0 6 -4 13 -10 17 -5 3 -7 12 -4 19 6 15 -192 221 -199 208z"
       id="path58"
       style="fill:#8642da;fill-opacity:1" />
    <path
       d="M2480 3415 c0 -19 67 -138 72 -125 4 14 96 -82 135 -141 14 -22 32 -39 39 -39 8 0 14 2 14 4 0 17 -50 81 -107 137 -38 37 -68 69 -68 70 -1 2 -10 15 -22 29 -12 14 -31 36 -42 50 -11 14 -20 20 -21 15z"
       id="path60"
       style="fill:#8642da;fill-opacity:1" />
    <path
       d="M1893 3398 c4 -14 65 -20 72 -8 8 12 -20 19 -36 9 -19 -12 -32 -11 -24 1 3 6 1 10 -5 10 -7 0 -10 -6 -7 -12z"
       id="path62"
       style="fill:#8642da;fill-opacity:1" />
    <path
       d="M2108 3380 c23 -16 52 -29 64 -29 18 1 19 2 5 6 -9 2 -15 9 -12 14 3 5 -1 6 -9 3 -9 -3 -27 4 -42 15 -15 12 -31 21 -37 21 -5 0 9 -13 31 -30z"
       id="path64"
       style="fill:#8642da;fill-opacity:1" />
    <path
       d="M238 3373 c-25 -15 -54 -40 -63 -56 -17 -28 -17 -29 1 -19 21 12 122 101 114 101 -3 0 -26 -12 -52 -26z"
       id="path66"
       style="fill:#8642da;fill-opacity:1" />
    <path
       d="M2550 3392 c0 -5 17 -25 38 -45 20 -20 47 -50 60 -67 13 -16 29 -30 35 -30 6 0 -3 15 -21 33 -18 18 -32 38 -32 44 0 6 -18 26 -40 43 -22 17 -40 28 -40 22z"
       id="path68"
       style="fill:#8642da;fill-opacity:1" />
    <path
       d="M2764 3345 c38 -44 44 -55 25 -46 l-24 12 25 -20 c33 -27 44 -26 36 2 -3 12 -6 27 -6 34 0 6 -17 22 -37 34 -21 13 -45 28 -53 33 -8 5 7 -17 34 -49z"
       id="path70"
       style="fill:#8642da;fill-opacity:1" />
    <path
       d="M259 3337 c-75 -53 -99 -74 -99 -89 0 -18 -116 -145 -140 -153 -17 -6 -20 -15 -20 -78 0 -64 1 -69 14 -51 10 13 11 23 4 31 -19 23 -4 56 34 76 42 21 103 91 93 107 -3 6 2 13 12 17 10 3 31 17 47 30 17 14 35 22 45 18 8 -3 12 -3 8 1 -4 4 -2 13 4 21 17 20 -10 17 -45 -6 -17 -11 -33 -18 -37 -15 -11 6 22 44 39 44 13 0 58 26 80 47 7 7 18 13 23 13 5 0 9 5 9 10 0 18 -24 10 -71 -23z"
       id="path72"
       style="fill:#8642da;fill-opacity:1" />
    <path
       d="M1832 3340 c-26 -34 -27 -41 -7 -34 16 6 48 64 36 64 -4 0 -17 -13 -29 -30z"
       id="path74"
       style="fill:#8642da;fill-opacity:1" />
    <path
       d="M2625 3351 c25 -24 65 -37 65 -21 0 6 -4 8 -10 5 -5 -3 -10 -2 -10 3 0 8 -43 32 -58 32 -3 0 2 -9 13 -19z"
       id="path76"
       style="fill:#8642da;fill-opacity:1" />
    <path
       d="M1928 3304 c-32 -17 -37 -26 -10 -18 13 4 12 2 -3 -7 -27 -17 -47 -45 -68 -98 -12 -30 -15 -47 -8 -49 6 -2 11 -8 11 -13 0 -21 56 -70 93 -80 50 -13 84 -5 120 29 26 25 36 52 19 52 -5 0 -14 10 -21 23 -10 20 -11 19 -6 -13 4 -31 1 -38 -28 -58 -25 -17 -41 -21 -65 -16 -39 8 -51 23 -24 31 20 5 20 9 10 81 -2 15 -14 16 -23 2 -3 -5 0 -10 7 -11 16 0 -31 -22 -52 -23 -19 -1 -21 6 -14 43 9 45 46 73 101 78 42 4 53 1 88 -27 52 -41 69 -73 61 -116 -16 -83 -95 -126 -191 -105 -55 13 -86 39 -98 86 -3 14 -5 10 -6 -11 -2 -70 125 -118 217 -83 17 7 29 6 39 -3 33 -27 91 91 65 132 -7 11 -7 21 -1 27 17 17 -41 121 -73 132 -16 6 -28 15 -28 20 0 16 -81 12 -112 -5z"
       id="path78"
       style="fill:#8642da;fill-opacity:1" />
    <path
       d="M2720 3282 c0 -5 18 -26 40 -46 45 -40 50 -50 20 -41 -11 3 -20 3 -20 -1 0 -34 43 -145 87 -225 57 -103 62 -128 42 -218 -11 -51 -32 -81 -44 -61 -9 14 -22 13 -28 -4 -4 -10 -1 -13 8 -10 15 6 46 -81 60 -166 11 -67 42 -131 60 -124 8 4 15 1 15 -5 0 -6 10 -11 23 -11 22 0 22 0 -5 23 -34 29 -46 55 -59 124 -6 32 -17 81 -26 110 -16 50 -16 53 9 110 40 95 37 125 -23 239 -58 111 -79 182 -68 234 7 35 -3 60 -24 60 -5 0 -2 -9 8 -20 10 -11 13 -20 7 -20 -6 0 -13 4 -17 10 -10 16 -65 52 -65 42z"
       id="path80"
       style="fill:#8642da;fill-opacity:1" />
    <path
       d="M2304 3245 c-4 -9 -1 -28 5 -41 6 -14 15 -65 20 -112 11 -105 15 -116 47 -130 29 -14 33 1 8 37 -10 13 -18 38 -20 55 -9 98 -14 120 -26 127 -11 7 -11 9 0 9 8 0 12 6 9 13 -2 6 -10 11 -17 9 -11 -2 -11 0 -2 11 10 11 9 17 -3 27 -12 10 -16 9 -21 -5z"
       id="path82"
       style="fill:#8642da;fill-opacity:1" />
    <path
       d="M395 3208 c-7 -18 -25 -48 -39 -67 -27 -36 -29 -41 -21 -41 6 0 80 113 83 128 4 24 -9 12 -23 -20z"
       id="path84"
       style="fill:#8642da;fill-opacity:1" />
    <path
       d="M550 3218 c0 -9 -5 -18 -11 -20 -6 -2 -13 -22 -16 -43 -2 -22 -15 -65 -29 -95 -16 -35 -19 -49 -10 -40 9 9 24 39 35 68 10 29 22 53 27 52 5 0 9 8 10 19 1 11 4 26 7 34 3 7 1 20 -4 28 -7 11 -9 11 -9 -3z"
       id="path86"
       style="fill:#8642da;fill-opacity:1" />
    <path
       d="M870 3213 c-43 -18 -53 -41 -61 -149 l-9 -107 33 -59 c18 -32 37 -56 44 -54 7 3 10 -3 8 -15 -5 -23 -1 -24 19 -3 15 14 16 14 16 0 0 -18 15 -21 25 -6 3 5 12 7 20 4 16 -6 85 24 85 37 0 5 6 9 13 9 17 0 47 36 47 57 0 14 -4 13 -21 -6 -29 -30 -34 -20 -13 24 13 27 14 39 5 48 -8 8 -11 6 -11 -10 0 -48 -70 -93 -144 -93 -31 0 -91 53 -101 89 -6 20 -1 17 32 -17 24 -25 49 -42 62 -42 44 0 89 30 111 74 22 46 26 71 10 61 -5 -3 -10 -13 -10 -20 0 -19 -31 -55 -42 -49 -4 3 -8 -1 -8 -9 0 -25 -72 -39 -85 -16 -4 6 -13 8 -21 5 -8 -3 -14 1 -14 9 0 8 -9 20 -20 27 -23 15 -24 27 -9 81 11 42 56 77 100 77 31 0 77 -33 89 -64 8 -20 8 -20 16 -2 6 15 -1 27 -31 53 -21 18 -45 33 -52 33 -8 0 -11 5 -8 10 4 6 12 7 18 4 7 -4 7 -1 -1 7 -11 12 -15 11 -23 -3 -6 -12 -22 -18 -42 -18 -31 1 -31 1 -9 13 31 18 17 33 -18 20z m160 -344 c0 -3 -11 -4 -25 -1 -21 4 -24 1 -18 -13 5 -14 3 -16 -7 -10 -7 4 -27 12 -44 16 l-31 7 35 1 c19 1 44 8 54 16 16 12 22 12 28 2 4 -6 8 -15 8 -18z"
       id="path88"
       style="fill:#8642da;fill-opacity:1" />
    <path
       d="M1014 3211 c4 -5 0 -13 -7 -18 -11 -6 -8 -13 13 -30 24 -20 29 -21 40 -8 10 12 9 15 -3 15 -9 0 -14 6 -12 13 3 6 -4 18 -16 25 -12 8 -18 9 -15 3z"
       id="path90"
       style="fill:#8642da;fill-opacity:1" />
    <path
       d="M1699 3188 c11 -15 11 -18 0 -18 -9 -1 -8 -4 4 -11 9 -6 14 -16 11 -22 -5 -8 -2 -7 7 1 12 11 12 14 -1 22 -12 8 -10 10 10 11 21 1 22 2 5 6 -11 3 -27 10 -35 17 -13 10 -13 9 -1 -6z"
       id="path92"
       style="fill:#8642da;fill-opacity:1" />
    <path
       d="M2400 3180 c0 -15 28 -80 34 -80 3 0 -2 20 -11 45 -14 43 -23 56 -23 35z"
       id="path94"
       style="fill:#8642da;fill-opacity:1" />
    <path
       d="M241 3120 c-17 -28 -29 -55 -26 -59 2 -5 -1 -14 -9 -20 -8 -7 -13 -18 -12 -26 4 -28 13 -25 26 7 20 55 32 82 47 111 26 50 6 40 -26 -13z"
       id="path96"
       style="fill:#8642da;fill-opacity:1" />
    <path
       d="M2639 3133 c5 -10 16 -27 25 -38 14 -18 15 -18 16 -2 0 9 -4 17 -9 17 -5 0 -13 9 -16 20 -3 11 -11 20 -16 20 -6 0 -6 -6 0 -17z"
       id="path98"
       style="fill:#8642da;fill-opacity:1" />
    <path
       d="M1724 3126 c-28 -10 -37 -36 -13 -36 6 0 8 4 5 9 -7 11 43 33 56 25 7 -4 8 -2 4 4 -8 14 -10 14 -52 -2z"
       id="path100"
       style="fill:#8642da;fill-opacity:1" />
    <path
       d="M486 3119 c-3 -8 -14 -39 -25 -69 -20 -53 -20 -54 -1 -30 19 25 43 100 35 109 -3 2 -7 -2 -9 -10z"
       id="path102"
       style="fill:#8642da;fill-opacity:1" />
    <path
       d="M1138 3112 c-8 -12 -18 -19 -23 -14 -5 4 -5 2 -2 -5 9 -14 42 -6 59 15 8 10 9 13 1 9 -6 -4 -13 -2 -15 5 -3 7 -10 3 -20 -10z"
       id="path104"
       style="fill:#8642da;fill-opacity:1" />
    <path
       d="M1470 3078 c0 -31 3 -39 10 -28 13 20 13 57 0 65 -6 4 -10 -11 -10 -37z"
       id="path106"
       style="fill:#8642da;fill-opacity:1" />
    <path
       d="M852 3098 c-26 -32 -15 -78 18 -78 10 0 25 -6 33 -14 27 -27 48 -23 73 15 l23 37 -22 -5 c-17 -4 -19 -3 -7 6 8 5 12 13 8 16 -3 4 -15 -4 -27 -16 -11 -12 -24 -20 -27 -16 -4 4 -14 1 -22 -5 -19 -16 -45 18 -37 50 6 25 2 28 -13 10z"
       id="path108"
       style="fill:#8642da;fill-opacity:1" />
    <path
       d="M1176 3091 c-13 -15 -14 -20 -4 -25 7 -3 1 -3 -13 0 -24 5 -26 3 -23 -21 3 -35 10 -40 28 -22 8 8 12 17 9 21 -4 3 -1 6 6 6 8 0 11 6 7 16 -4 9 -1 23 5 30 17 21 5 17 -15 -5z"
       id="path110"
       style="fill:#8642da;fill-opacity:1" />
    <path
       d="M1750 3103 c0 -6 -12 -14 -27 -18 -27 -6 -27 -7 -9 -21 11 -8 27 -14 35 -14 14 0 14 2 2 9 -12 8 -13 12 -1 25 7 9 10 19 6 23 -3 3 -6 2 -6 -4z"
       id="path112"
       style="fill:#8642da;fill-opacity:1" />
    <path
       d="M550 3028 c-7 -23 -16 -51 -21 -60 -14 -26 7 -22 26 4 8 13 11 24 6 26 -6 2 -6 15 0 34 5 18 7 34 5 36 -3 2 -10 -16 -16 -40z"
       id="path114"
       style="fill:#8642da;fill-opacity:1" />
    <path
       d="M1768 3035 c-7 -12 17 -37 26 -28 3 4 6 1 6 -5 0 -7 7 -12 15 -12 9 0 18 -6 21 -14 7 -19 42 -27 48 -11 6 18 -14 35 -41 35 -13 0 -23 5 -23 10 0 6 -9 10 -19 10 -11 0 -21 5 -23 12 -3 7 -7 8 -10 3z"
       id="path116"
       style="fill:#8642da;fill-opacity:1" />
    <path
       d="M664 3004 c5 -14 -1 -70 -19 -174 -3 -14 -9 -41 -15 -60 -12 -43 -13 -100 -1 -100 13 0 20 25 14 49 -3 12 3 33 13 48 14 22 19 52 21 141 2 77 -1 112 -8 112 -6 0 -8 -7 -5 -16z"
       id="path118"
       style="fill:#8642da;fill-opacity:1" />
    <path
       d="M2429 2959 c3 -43 7 -52 28 -60 14 -5 27 -8 29 -6 2 1 -3 21 -11 42 l-14 40 -2 -35 c-1 -34 -1 -34 -10 9 -12 63 -25 69 -20 10z"
       id="path120"
       style="fill:#8642da;fill-opacity:1" />
    <path
       d="M2790 2978 c11 -12 32 -47 46 -78 15 -30 28 -50 31 -43 7 18 -66 143 -83 143 -11 0 -10 -6 6 -22z"
       id="path122"
       style="fill:#8642da;fill-opacity:1" />
    <path
       d="M488 2953 c-31 -35 -81 -152 -60 -139 6 3 13 20 17 36 4 17 12 36 19 43 12 12 47 77 42 77 -2 0 -10 -8 -18 -17z"
       id="path124"
       style="fill:#8642da;fill-opacity:1" />
    <path
       d="M409 2904 c-15 -30 -23 -51 -18 -48 13 7 12 2 -11 -49 -12 -26 -27 -50 -34 -54 -18 -11 -27 -55 -16 -73 8 -13 10 -13 10 1 0 9 12 34 27 55 14 21 32 64 40 94 8 30 22 67 30 83 8 16 11 33 6 37 -4 4 -20 -16 -34 -46z"
       id="path126"
       style="fill:#8642da;fill-opacity:1" />
    <path
       d="M1990 2940 c0 -6 10 -10 23 -10 16 0 18 -3 9 -9 -9 -5 -3 -8 17 -7 17 1 31 5 31 10 0 4 11 6 25 4 13 -3 22 -2 20 2 -3 4 -18 10 -34 12 -17 2 -28 1 -25 -4 7 -11 -9 -10 -40 2 -17 6 -26 6 -26 0z"
       id="path128"
       style="fill:#8642da;fill-opacity:1" />
    <path
       d="M0 2922 c0 -11 16 -27 39 -40 21 -12 42 -29 45 -38 3 -9 -3 -48 -15 -87 -13 -44 -19 -85 -16 -111 3 -23 10 -91 16 -153 7 -61 20 -136 30 -167 11 -30 17 -56 15 -59 -8 -8 14 -121 32 -162 24 -57 24 -53 20 -217 -1 -60 2 -70 26 -95 36 -38 50 -106 42 -212 -4 -68 -1 -104 14 -171 34 -140 37 -183 17 -214 -17 -26 -17 -28 3 -54 11 -15 25 -26 31 -24 6 1 11 -2 11 -6 0 -10 68 -32 97 -32 11 0 41 -17 67 -38 38 -31 46 -43 46 -70 0 -41 -83 -206 -139 -277 -49 -61 -65 -93 -86 -167 -14 -49 -14 -61 -2 -90 8 -18 21 -39 30 -47 10 -7 17 -21 17 -31 0 -20 31 -50 52 -50 8 0 27 -9 41 -20 31 -24 60 -25 97 -3 27 15 32 15 69 1 47 -19 49 -16 21 19 -11 14 -20 20 -20 14 0 -7 -5 -9 -11 -5 -11 6 -9 46 6 121 3 16 -4 3 -15 -27 -10 -30 -20 -56 -20 -58 0 -2 -4 -1 -9 2 -4 3 -13 -6 -19 -19 -7 -14 -16 -25 -21 -25 -5 0 -17 -7 -26 -16 -21 -21 -33 -9 -17 16 16 27 15 35 -3 20 -13 -11 -14 -10 -9 5 6 14 4 16 -6 10 -7 -4 -28 -8 -47 -9 l-35 -1 7 44 7 44 -36 -7 c-23 -4 -36 -3 -36 4 0 5 5 10 10 10 6 0 10 5 10 11 0 6 -7 8 -16 5 -18 -7 -13 16 16 74 10 20 22 53 26 74 4 25 13 40 25 43 9 3 23 18 29 34 7 15 19 34 26 40 8 7 39 62 69 124 42 85 55 123 55 157 0 42 -2 46 -29 51 -19 4 -31 14 -34 29 -7 26 -54 43 -177 63 -14 2 -50 27 -50 34 0 16 32 22 49 9 13 -11 12 -8 -3 15 -17 29 -17 29 3 22 26 -8 63 3 55 16 -3 5 -9 7 -14 4 -5 -3 -24 2 -42 12 l-33 18 30 3 30 4 -25 13 c-25 13 -34 53 -16 66 5 4 -1 17 -12 29 -15 16 -18 28 -13 43 6 15 2 30 -11 48 -29 39 -21 105 19 156 30 37 31 40 12 51 -10 7 -26 12 -34 12 -13 0 -13 3 -3 20 11 16 9 22 -7 34 -20 15 -12 21 23 17 32 -4 6 19 -43 40 -52 22 -55 24 -50 53 3 17 7 43 9 58 2 14 10 37 17 50 7 12 14 32 15 44 2 17 -2 20 -22 16 -27 -5 -32 9 -9 28 8 7 15 19 15 26 0 17 -20 19 -20 2 -1 -42 -37 103 -39 155 -1 43 -6 66 -17 74 -9 7 -17 34 -20 70 -3 32 -8 65 -11 73 -3 8 -7 40 -9 70 -2 30 -6 76 -10 102 -5 33 -1 65 14 115 32 110 34 120 17 127 -8 3 -15 12 -15 21 0 8 -8 15 -17 15 -10 0 -33 9 -50 20 -31 19 -33 19 -33 2z m280 -1272 c0 -11 -7 -20 -15 -20 -15 0 -21 21 -8 33 12 13 23 7 23 -13z"
       id="path130"
       style="fill:#8642da;fill-opacity:1" />
    <path
       d="M2352 2908 c-12 -17 -5 -90 11 -100 9 -6 8 -8 -2 -8 -10 0 -7 -8 9 -25 16 -17 19 -25 9 -25 -10 -1 -9 -3 4 -11 9 -5 17 -15 17 -22 0 -15 40 -66 40 -52 0 34 -48 155 -62 155 -5 0 -7 9 -3 19 3 11 1 22 -5 26 -5 3 -8 17 -6 31 5 27 3 30 -12 12z"
       id="path132"
       style="fill:#8642da;fill-opacity:1" />
    <path
       d="M2436 2854 c3 -42 14 -59 14 -21 0 14 3 32 6 41 4 10 1 16 -9 16 -10 0 -13 -10 -11 -36z"
       id="path134"
       style="fill:#8642da;fill-opacity:1" />
    <path
       d="M2474 2803 c2 -43 5 -98 6 -123 2 -44 2 -44 11 -15 6 17 8 66 5 110 -3 44 -6 86 -6 93 0 6 -5 12 -10 12 -7 0 -9 -27 -6 -77z"
       id="path136"
       style="fill:#8642da;fill-opacity:1" />
    <path
       d="M545 2828 c-3 -13 -10 -45 -16 -73 -14 -61 -21 -372 -7 -336 5 13 11 72 14 130 5 119 22 279 30 292 3 5 1 9 -5 9 -6 0 -13 -10 -16 -22z"
       id="path138"
       style="fill:#8642da;fill-opacity:1" />
    <path
       d="M446 2778 c-8 -31 -20 -174 -14 -168 8 7 30 181 25 187 -3 2 -7 -7 -11 -19z"
       id="path140"
       style="fill:#8642da;fill-opacity:1" />
    <path
       d="M2600 2788 c0 -10 14 -27 30 -40 17 -12 30 -28 30 -35 0 -7 5 -13 10 -13 20 0 9 21 -30 63 -28 30 -40 37 -40 25z"
       id="path142"
       style="fill:#8642da;fill-opacity:1" />
    <path
       d="M2178 2763 c6 -2 10 -9 6 -14 -3 -5 12 -9 33 -9 l38 1 -34 14 c-18 8 -38 15 -45 14 -7 0 -6 -2 2 -6z"
       id="path144"
       style="fill:#8642da;fill-opacity:1" />
    <path
       d="M2621 2661 c0 -71 11 -121 27 -121 5 0 7 17 5 38 -2 20 -7 60 -10 87 -8 77 -21 75 -22 -4z"
       id="path146"
       style="fill:#8642da;fill-opacity:1" />
    <path
       d="M196 2674 c-30 -54 -33 -68 -7 -37 10 12 22 19 25 15 4 -3 4 1 1 10 -4 9 -2 26 5 37 22 42 1 19 -24 -25z"
       id="path148"
       style="fill:#8642da;fill-opacity:1" />
    <path
       d="M1856 2705 c4 -8 11 -15 17 -15 6 0 20 -9 32 -20 14 -13 25 -16 35 -10 12 8 10 10 -8 10 -12 0 -25 7 -28 15 -4 8 -12 15 -20 15 -8 0 -14 5 -14 10 0 6 -4 10 -10 10 -5 0 -7 -7 -4 -15z"
       id="path150"
       style="fill:#8642da;fill-opacity:1" />
    <path
       d="M143 2673 c-13 -19 -23 -44 -22 -56 0 -15 8 -5 25 31 30 63 28 74 -3 25z"
       id="path152"
       style="fill:#8642da;fill-opacity:1" />
    <path
       d="M687 2641 c-8 -38 -37 -68 -48 -49 -5 7 -6 24 -2 38 4 17 2 22 -5 15 -5 -5 -13 -44 -16 -85 -6 -63 -12 -81 -38 -114 -44 -55 -131 -230 -116 -235 13 -4 40 28 33 39 -3 4 4 15 15 25 10 9 16 23 14 29 -3 7 6 21 20 30 16 10 26 26 26 41 0 16 6 25 16 25 10 0 14 6 11 14 -4 9 2 17 14 21 12 4 19 15 19 30 0 34 10 56 23 48 6 -4 8 0 4 10 -3 9 -2 19 4 23 19 11 54 124 39 124 -4 0 -10 -13 -13 -29z"
       id="path154"
       style="fill:#8642da;fill-opacity:1" />
    <path
       d="M143 2588 c-10 -16 -11 -58 -2 -58 4 0 9 6 12 13 2 6 8 9 12 5 4 -4 2 -16 -6 -25 -12 -17 -12 -17 6 -1 18 17 18 18 0 38 -16 18 -17 23 -5 30 9 6 10 10 3 10 -6 0 -15 -6 -20 -12z"
       id="path156"
       style="fill:#8642da;fill-opacity:1" />
    <path
       d="M368 2538 c-16 -30 -18 -142 -2 -125 11 11 28 147 19 147 -2 0 -10 -10 -17 -22z"
       id="path158"
       style="fill:#8642da;fill-opacity:1" />
    <path
       d="M2456 2545 c4 -8 9 -13 13 -10 7 4 41 -29 41 -40 0 -2 10 -15 23 -28 12 -13 27 -32 33 -43 7 -10 14 -17 17 -14 11 10 -56 106 -89 128 -40 26 -45 27 -38 7z"
       id="path160"
       style="fill:#8642da;fill-opacity:1" />
    <path
       d="M2670 2545 c0 -12 55 -35 87 -35 6 0 18 -6 25 -12 7 -7 21 -19 30 -27 16 -12 17 -11 2 18 -10 21 -23 31 -40 32 -37 2 -39 3 -58 22 -21 21 -46 22 -46 2z"
       id="path162"
       style="fill:#8642da;fill-opacity:1" />
    <path
       d="M1477 2527 c-3 -9 -1 -18 6 -21 8 -3 3 -12 -13 -25 -14 -11 -22 -22 -19 -25 3 -3 15 5 28 17 16 18 20 29 13 47 -7 19 -10 20 -15 7z"
       id="path164"
       style="fill:#8642da;fill-opacity:1" />
    <path
       d="M2162 2493 c-21 -19 -46 -82 -36 -92 3 -3 12 3 20 14 8 11 20 27 27 36 6 8 18 25 25 37 10 18 10 22 -2 22 -7 0 -23 -8 -34 -17z"
       id="path166"
       style="fill:#8642da;fill-opacity:1" />
    <path
       d="M2698 2450 c45 -41 76 -41 37 0 -16 17 -38 30 -49 30 -19 -1 -17 -4 12 -30z"
       id="path168"
       style="fill:#8642da;fill-opacity:1" />
    <path
       d="M276 2438 c3 -15 7 -45 7 -67 2 -47 13 -54 19 -13 2 16 -4 46 -14 68 -12 28 -16 31 -12 12z"
       id="path170"
       style="fill:#8642da;fill-opacity:1" />
    <path
       d="M2760 2450 c0 -14 46 -60 60 -60 17 0 11 20 -15 45 -25 26 -45 32 -45 15z"
       id="path172"
       style="fill:#8642da;fill-opacity:1" />
    <path
       d="M1278 2433 c-10 -2 -18 -9 -18 -14 0 -12 27 -12 35 1 3 5 13 6 22 3 11 -4 14 -3 9 5 -7 12 -17 13 -48 5z"
       id="path174"
       style="fill:#8642da;fill-opacity:1" />
    <path
       d="M2853 2410 c1 -11 10 -23 20 -26 28 -9 28 -1 2 24 -23 22 -24 22 -22 2z"
       id="path176"
       style="fill:#8642da;fill-opacity:1" />
    <path
       d="M385 2408 c-4 -10 -16 -20 -27 -24 -16 -5 -18 -8 -7 -15 9 -6 10 -9 2 -9 -6 0 -18 -14 -27 -31 l-15 -30 30 19 c17 10 29 21 27 24 -1 2 5 16 15 32 10 15 16 33 14 39 -3 8 -7 6 -12 -5z"
       id="path178"
       style="fill:#8642da;fill-opacity:1" />
    <path
       d="M1205 2371 c3 -6 -8 -32 -25 -59 -34 -56 -36 -78 -14 -168 12 -47 26 -75 53 -103 53 -56 104 -91 134 -91 34 0 35 16 2 24 -14 4 -23 11 -20 16 3 6 -2 10 -12 10 -29 0 -109 76 -105 100 2 11 -1 20 -6 20 -5 0 -14 29 -21 65 -13 73 -9 88 39 128 34 29 39 48 10 40 -11 -3 -20 -1 -20 5 0 6 10 13 23 15 15 3 12 5 -11 6 -19 0 -31 -3 -27 -8z"
       id="path180"
       style="fill:#8642da;fill-opacity:1" />
    <path
       d="M2108 2360 c22 -21 67 -26 92 -10 11 7 3 10 -28 10 -26 0 -41 4 -37 10 4 6 -6 10 -21 10 l-28 0 22 -20z"
       id="path182"
       style="fill:#8642da;fill-opacity:1" />
    <path
       d="M2806 2368 c3 -5 16 -8 29 -8 13 0 27 -4 30 -10 3 -5 23 -10 43 -11 30 0 33 -2 17 -9 -19 -8 -16 -12 14 -14 8 -1 16 -6 18 -13 7 -21 -61 -27 -96 -9 -26 14 -31 14 -31 3 0 -8 -3 -30 -7 -48 -6 -33 -6 -34 14 -16 11 9 33 17 50 17 36 0 83 34 83 60 0 11 8 23 17 29 16 8 15 10 -7 14 -57 12 -178 22 -174 15z"
       id="path184"
       style="fill:#8642da;fill-opacity:1" />
    <path
       d="M1723 2343 c-30 -11 4 -113 37 -113 12 0 13 2 1 9 -11 7 -11 9 0 14 11 4 11 6 -1 6 -13 1 -13 2 0 11 13 8 12 10 -2 10 -22 0 -23 8 -1 32 15 17 15 18 -3 18 -16 0 -17 2 -4 10 13 9 13 10 0 9 -8 0 -21 -3 -27 -6z"
       id="path186"
       style="fill:#8642da;fill-opacity:1" />
    <path
       d="M2095 2321 c-7 -13 5 -19 37 -19 23 0 25 3 13 14 -16 16 -41 18 -50 5z"
       id="path188"
       style="fill:#8642da;fill-opacity:1" />
    <path
       d="M2710 2319 c0 -6 13 -23 29 -39 16 -17 25 -34 21 -40 -5 -9 -9 -9 -14 -1 -10 16 -26 13 -26 -4 0 -12 10 -15 39 -13 36 3 40 6 43 35 3 26 1 30 -12 23 -12 -7 -25 -1 -48 20 -18 16 -32 24 -32 19z"
       id="path190"
       style="fill:#8642da;fill-opacity:1" />
    <path
       d="M376 2301 c-4 -6 -4 -11 -1 -11 4 0 -4 -17 -16 -37 -13 -20 -17 -33 -11 -29 23 14 12 -5 -20 -34 -17 -16 -29 -33 -25 -37 9 -8 67 46 67 62 0 7 7 26 16 44 11 22 13 36 6 43 -6 6 -12 6 -16 -1z"
       id="path192"
       style="fill:#8642da;fill-opacity:1" />
    <path
       d="M2084 2274 c4 -23 26 -34 71 -33 30 1 34 3 17 7 -13 4 -23 11 -22 16 2 13 -21 26 -47 26 -14 0 -20 -6 -19 -16z"
       id="path194"
       style="fill:#8642da;fill-opacity:1" />
    <path
       d="M2667 2273 c-9 -2 -15 -9 -12 -14 4 -5 1 -9 -5 -9 -6 0 -8 -4 -5 -10 3 -5 -1 -21 -10 -34 -13 -19 -14 -29 -6 -45 17 -30 14 -46 -4 -31 -21 17 -20 -6 1 -49 9 -17 17 -37 18 -44 2 -16 38 -69 43 -64 7 7 -21 96 -28 91 -4 -2 -10 0 -14 6 -3 5 -1 10 4 10 6 0 10 8 9 18 -4 52 4 94 21 111 22 22 31 63 16 66 -5 2 -18 1 -28 -2z"
       id="path196"
       style="fill:#8642da;fill-opacity:1" />
    <path
       d="M2088 2223 c-35 -5 -37 -33 -3 -33 14 0 25 5 25 10 0 6 7 10 16 10 8 0 12 5 9 10 -3 6 -9 9 -13 9 -4 -1 -19 -4 -34 -6z"
       id="path198"
       style="fill:#8642da;fill-opacity:1" />
    <path
       d="M2150 2226 c0 -3 25 -12 55 -20 35 -11 65 -28 85 -49 37 -40 39 -24 2 19 -18 20 -43 35 -74 42 -50 13 -68 15 -68 8z"
       id="path200"
       style="fill:#8642da;fill-opacity:1" />
    <path
       d="M1720 2184 c0 -9 -5 -12 -12 -8 -7 4 -10 4 -6 -1 4 -4 3 -14 -3 -22 -9 -10 -8 -13 5 -13 8 0 18 11 22 24 4 17 14 26 32 29 24 4 23 4 -5 6 -24 1 -33 -3 -33 -15z"
       id="path202"
       style="fill:#8642da;fill-opacity:1" />
    <path
       d="M2057 2173 c-4 -3 -7 -13 -7 -20 0 -8 -7 -21 -15 -29 -8 -9 -15 -20 -15 -25 0 -5 7 -9 15 -9 8 0 15 7 15 15 0 8 7 15 15 15 8 0 15 6 15 14 0 8 8 17 18 21 16 7 15 8 -3 15 -26 11 -30 11 -38 3z"
       id="path204"
       style="fill:#8642da;fill-opacity:1" />
    <path
       d="M956 2141 c-7 -11 3 -41 14 -41 11 0 21 30 14 41 -3 5 -9 9 -14 9 -5 0 -11 -4 -14 -9z"
       id="path206"
       style="fill:#8642da;fill-opacity:1" />
    <path
       d="M1690 2096 c-6 -16 -19 -30 -30 -33 -11 -3 -20 -13 -20 -22 0 -9 -16 -27 -35 -40 -22 -15 -32 -28 -26 -34 16 -16 84 42 86 75 0 3 13 18 30 32 23 20 27 28 18 37 -10 10 -15 6 -23 -15z"
       id="path208"
       style="fill:#8642da;fill-opacity:1" />
    <path
       d="M976 2084 c-18 -18 -18 -19 -2 -22 22 -5 29 2 24 24 -3 16 -4 16 -22 -2z"
       id="path210"
       style="fill:#8642da;fill-opacity:1" />
    <path
       d="M1992 2060 c-8 -13 -9 -20 -1 -20 11 0 39 24 39 34 0 14 -26 4 -38 -14z"
       id="path212"
       style="fill:#8642da;fill-opacity:1" />
    <path
       d="M2550 2051 c0 -5 8 -12 17 -15 15 -6 15 -8 3 -16 -12 -8 -11 -10 7 -10 12 0 30 -3 40 -6 11 -4 5 6 -15 25 -33 31 -52 39 -52 22z"
       id="path214"
       style="fill:#8642da;fill-opacity:1" />
    <path
       d="M997 2026 c3 -12 13 -27 23 -34 15 -9 18 -8 15 6 -2 9 -4 19 -5 22 -1 3 -2 8 -2 11 1 4 -7 9 -17 12 -14 3 -17 -1 -14 -17z"
       id="path216"
       style="fill:#8642da;fill-opacity:1" />
    <path
       d="M1764 1978 c3 -19 16 -38 27 -38 17 0 9 20 -8 21 -11 0 -13 3 -5 6 16 6 15 23 -2 23 -8 0 -13 -6 -12 -12z"
       id="path218"
       style="fill:#8642da;fill-opacity:1" />
    <path
       d="M1893 1961 c-13 -11 -23 -24 -23 -30 0 -6 -6 -11 -14 -11 -7 0 -18 -6 -24 -13 -9 -10 -7 -17 7 -29 17 -15 20 -13 42 26 23 40 41 76 36 76 -1 -1 -12 -9 -24 -19z"
       id="path220"
       style="fill:#8642da;fill-opacity:1" />
    <path
       d="M2543 1967 c2 -7 14 -11 25 -9 12 2 22 -1 22 -6 0 -5 -6 -10 -12 -9 -47 1 -60 -3 -49 -17 15 -18 -4 -32 -23 -17 -16 13 -30 2 -17 -13 5 -6 7 -23 4 -39 l-5 -27 -25 27 -25 28 7 -25 c4 -14 12 -26 16 -28 13 -5 11 -50 -7 -143 -9 -46 -18 -91 -19 -99 -5 -32 -17 -48 -41 -54 -17 -5 -24 -13 -24 -31 0 -14 -5 -25 -11 -25 -6 0 -9 -7 -5 -15 3 -9 0 -15 -9 -15 -9 0 -12 -6 -9 -15 4 -8 1 -15 -6 -15 -6 0 -8 -4 -5 -10 3 -5 1 -10 -6 -10 -8 0 -8 -4 2 -16 19 -23 24 -94 6 -94 -8 0 -17 -6 -20 -14 -4 -9 -14 -12 -26 -9 -16 4 -21 1 -21 -13 0 -16 2 -17 10 -4 7 11 12 12 20 4 18 -18 -15 -40 -35 -24 -9 7 -18 10 -22 6 -3 -3 -1 -6 5 -6 6 0 12 -10 14 -22 3 -22 4 -21 33 8 53 55 63 75 70 136 8 71 38 143 73 178 33 34 38 51 63 193 15 92 27 131 47 160 29 43 68 67 108 67 21 0 24 3 15 14 -14 17 -124 20 -118 3z"
       id="path222"
       style="fill:#8642da;fill-opacity:1" />
    <path
       d="M1470 1932 c0 -6 6 -13 13 -15 7 -3 6 -6 -5 -6 -26 -1 -29 -16 -3 -17 15 -1 25 5 28 18 3 11 3 17 0 14 -4 -3 -12 -1 -20 5 -8 8 -13 8 -13 1z"
       id="path224"
       style="fill:#8642da;fill-opacity:1" />
    <path
       d="M1311 1897 c-16 -16 -13 -27 8 -27 22 0 35 26 17 33 -8 3 -19 0 -25 -6z"
       id="path226"
       style="fill:#8642da;fill-opacity:1" />
    <path
       d="M1780 1846 c0 -40 4 -55 16 -60 21 -8 14 -46 -23 -128 -35 -78 -85 -120 -168 -143 -55 -15 -72 -15 -117 -5 -80 18 -123 50 -144 107 -10 26 -25 55 -32 63 -8 8 -21 28 -28 45 l-14 30 2 -35 c2 -19 10 -41 20 -47 9 -7 19 -32 23 -55 10 -63 93 -142 164 -157 70 -15 108 -14 168 4 111 33 170 103 184 218 4 40 11 91 15 115 6 40 5 42 -18 42 -22 0 -24 4 -20 30 3 23 0 30 -12 30 -13 0 -16 -11 -16 -54z m-20 -267 c0 -15 -59 -73 -67 -65 -3 3 6 18 20 32 15 15 27 31 27 35 0 5 5 9 10 9 6 0 10 -5 10 -11z"
       id="path228"
       style="fill:#8642da;fill-opacity:1" />
    <path
       d="M863 1844 c-3 -10 -11 -22 -16 -25 -5 -4 -7 -15 -5 -25 2 -15 8 -10 22 19 10 21 15 41 12 44 -3 3 -9 -3 -13 -13z"
       id="path230"
       style="fill:#8642da;fill-opacity:1" />
    <path
       d="M1540 1845 c-5 -22 -7 -109 -2 -95 3 8 8 17 11 20 3 3 3 23 0 45 -3 22 -7 36 -9 30z"
       id="path232"
       style="fill:#8642da;fill-opacity:1" />
    <path
       d="M1286 1813 c-13 -32 -7 -51 14 -46 12 3 21 0 24 -8 19 -63 25 -81 21 -56 -3 15 -1 27 4 27 5 0 7 9 4 20 -4 13 0 20 9 20 8 0 15 7 15 15 0 17 -23 20 -32 5 -3 -5 -14 -10 -23 -10 -12 0 -13 3 -4 12 17 17 15 25 -7 31 -12 3 -22 -1 -25 -10z"
       id="path234"
       style="fill:#8642da;fill-opacity:1" />
    <path
       d="M1752 1779 c-12 -19 -7 -88 5 -75 4 3 12 96 8 96 0 0 -6 -9 -13 -21z"
       id="path236"
       style="fill:#8642da;fill-opacity:1" />
    <path
       d="M2370 1639 c0 -11 5 -17 10 -14 6 3 10 2 10 -4 0 -5 -6 -12 -12 -14 -7 -3 -3 -6 10 -6 27 -1 29 19 2 42 -19 16 -20 16 -20 -4z"
       id="path238"
       style="fill:#8642da;fill-opacity:1" />
    <path
       d="M1374 1453 c9 -35 14 -64 15 -81 1 -7 5 -11 10 -8 4 3 13 -6 20 -21 21 -45 23 -18 2 34 -14 37 -17 54 -9 68 9 17 8 18 -3 8 -18 -17 -34 -17 -20 0 11 14 5 27 -12 27 -5 0 -6 -12 -3 -27z"
       id="path240"
       style="fill:#8642da;fill-opacity:1" />
    <path
       d="M1473 1418 c-18 -22 -22 -68 -7 -68 8 0 14 1 14 3 13 82 12 89 -7 65z"
       id="path242"
       style="fill:#8642da;fill-opacity:1" />
    <path
       d="M1084 1299 c-31 -40 -20 -64 21 -48 11 4 15 8 8 8 -6 1 -13 13 -15 28 -2 21 -5 24 -14 12z"
       id="path244"
       style="fill:#8642da;fill-opacity:1" />
    <path
       d="M1702 1293 c-22 -4 -23 -6 -7 -23 14 -16 20 -17 36 -7 10 6 19 17 19 24 0 13 -6 14 -48 6z"
       id="path246"
       style="fill:#8642da;fill-opacity:1" />
    <path
       d="M830 1279 c0 -6 6 -17 14 -25 14 -14 36 -19 36 -9 0 3 -9 14 -20 25 -23 23 -30 25 -30 9z"
       id="path248"
       style="fill:#8642da;fill-opacity:1" />
    <path
       d="M1805 1229 c-34 -32 -21 -40 15 -9 13 11 27 20 32 20 4 0 8 5 8 10 0 18 -25 9 -55 -21z"
       id="path250"
       style="fill:#8642da;fill-opacity:1" />
    <path
       d="M890 1216 c24 -30 58 -548 38 -579 -5 -7 -8 -2 -9 13 -2 35 -18 -44 -18 -91 -1 -28 -6 -38 -27 -48 -14 -6 -29 -9 -34 -6 -4 2 -17 -18 -29 -45 -12 -28 -26 -50 -32 -50 -6 0 -9 7 -5 15 12 32 -6 13 -20 -20 -8 -20 -25 -41 -39 -47 -26 -12 -60 -4 -50 11 3 6 12 8 20 5 9 -4 21 9 35 36 29 57 20 72 -13 21 -20 -30 -34 -41 -53 -41 -20 0 -25 -4 -20 -16 3 -9 6 -20 6 -25 0 -5 7 -9 15 -9 17 0 20 -25 5 -35 -5 -3 -10 -12 -10 -18 0 -7 10 0 23 14 12 14 37 32 54 39 18 7 51 33 73 59 23 25 58 64 79 86 28 30 42 56 54 105 23 92 31 208 19 271 -11 54 -26 204 -25 247 1 34 8 37 45 15 26 -15 34 -27 38 -59 l5 -39 11 37 c10 32 9 39 -5 52 -10 9 -22 16 -27 16 -5 0 -14 8 -21 18 -6 11 -31 34 -55 53 -23 18 -36 25 -28 15z"
       id="path252"
       style="fill:#8642da;fill-opacity:1" />
    <path
       d="M2193 1199 c-13 -5 -23 -13 -23 -18 0 -5 -18 -16 -40 -25 -45 -18 -53 -36 -16 -36 23 0 124 58 125 71 1 12 -24 16 -46 8z"
       id="path254"
       style="fill:#8642da;fill-opacity:1" />
    <path
       d="M1190 1152 c0 -5 -10 -14 -22 -20 l-23 -11 25 0 c26 0 75 17 52 18 -7 1 -10 6 -7 11 3 6 -1 10 -9 10 -9 0 -16 -4 -16 -8z"
       id="path256"
       style="fill:#8642da;fill-opacity:1" />
    <path
       d="M1591 1114 c-19 -21 -38 -34 -46 -30 -8 3 -15 2 -15 -2 0 -4 -13 -16 -30 -25 -16 -10 -30 -15 -30 -11 0 5 -5 3 -12 -4 -9 -9 -9 -15 0 -24 9 -9 18 -7 40 9 15 11 37 23 50 27 18 6 22 3 22 -13 0 -11 -5 -32 -11 -48 -15 -38 -39 -130 -39 -149 0 -8 -17 -51 -39 -97 -38 -80 -91 -211 -91 -224 0 -12 52 42 66 69 8 15 14 40 14 56 0 15 7 37 15 48 29 38 56 109 70 188 8 45 23 105 34 135 11 30 18 58 15 63 -4 5 4 20 16 33 12 12 18 25 13 28 -5 3 -24 -10 -42 -29z"
       id="path258"
       style="fill:#8642da;fill-opacity:1" />
    <path
       d="M2073 1097 c-24 -14 -100 -84 -124 -116 -16 -22 -19 -98 -4 -134 6 -13 3 -16 -9 -11 -12 5 -16 0 -16 -24 0 -16 7 -35 15 -42 16 -13 21 -35 6 -25 -22 13 -19 -18 9 -88 16 -42 30 -80 30 -85 0 -5 6 -12 14 -15 14 -6 11 -47 -3 -47 -12 0 4 -157 18 -174 7 -9 14 -36 15 -61 1 -31 7 -48 21 -59 11 -9 14 -16 8 -16 -15 0 -18 -30 -3 -30 19 0 15 114 -6 173 -8 22 -14 64 -14 94 0 30 -4 52 -9 49 -6 -4 -6 5 -2 21 6 20 -1 55 -25 125 -33 100 -39 143 -36 258 l2 65 75 72 c41 39 75 74 75 77 0 9 -13 7 -37 -7z"
       id="path260"
       style="fill:#8642da;fill-opacity:1" />
    <path
       d="M1396 1025 c-9 -35 -95 -82 -166 -91 -72 -8 -92 -19 -51 -27 49 -10 131 10 191 47 30 18 62 36 70 39 9 3 10 6 3 6 -7 1 -13 7 -13 15 0 7 -6 19 -14 25 -11 9 -15 6 -20 -14z"
       id="path262"
       style="fill:#8642da;fill-opacity:1" />
    <path
       d="M525 712 c-45 -32 -125 -184 -131 -246 l-4 -41 14 40 c28 81 75 173 106 209 30 34 38 55 15 38z"
       id="path264"
       style="fill:#8642da;fill-opacity:1" />
    <path
       d="M1488 578 c-10 -30 -22 -44 -39 -49 -13 -4 -18 -7 -11 -8 6 -1 12 -8 12 -17 0 -14 -3 -14 -15 -4 -22 18 -29 6 -10 -14 14 -13 15 -22 6 -48 -17 -48 -13 -76 18 -132 15 -28 36 -77 46 -110 23 -76 60 -116 146 -160 107 -54 210 -48 153 9 -21 21 -29 13 -14 -14 10 -20 -2 -31 -14 -12 -3 5 -14 7 -24 5 -11 -3 -24 6 -37 26 -19 28 -43 36 -37 11 1 -6 -5 -11 -13 -11 -10 0 -15 10 -15 30 0 17 -9 43 -20 58 -13 18 -22 51 -26 100 -4 40 -11 75 -15 78 -12 7 -11 4 5 -99 8 -49 22 -99 30 -112 20 -30 20 -35 2 -35 -7 0 -19 13 -26 30 -7 16 -18 35 -26 41 -11 9 -14 7 -14 -11 0 -44 -12 -12 -16 42 -2 29 -8 54 -14 56 -5 2 -10 16 -10 32 0 15 -7 33 -15 40 -8 7 -24 27 -35 45 -19 30 -19 36 -6 67 7 18 24 67 37 108 12 41 24 81 27 88 2 6 0 12 -6 12 -6 0 -17 -19 -24 -42z"
       id="path266"
       style="fill:#8642da;fill-opacity:1" />
    <path
       d="M737 545 c-21 -45 -22 -62 -3 -46 15 12 32 69 24 77 -3 2 -12 -12 -21 -31z"
       id="path268"
       style="fill:#8642da;fill-opacity:1" />
    <path
       d="M1870 435 c0 -3 7 -22 15 -42 9 -21 15 -59 14 -85 -2 -26 0 -51 4 -54 8 -9 28 6 22 16 -4 7 -9 40 -17 136 -1 11 -38 39 -38 29z"
       id="path270"
       style="fill:#8642da;fill-opacity:1" />
    <path
       d="M1753 266 c-2 -36 21 -57 31 -30 6 14 -12 64 -23 64 -3 0 -7 -15 -8 -34z"
       id="path272"
       style="fill:#8642da;fill-opacity:1" />
    <path
       d="M1893 150 c2 -59 6 -84 17 -90 10 -7 11 -10 3 -10 -7 0 -13 -9 -13 -20 0 -21 -33 -29 -45 -10 -10 15 -35 12 -35 -5 0 -11 12 -15 49 -15 56 0 61 7 61 76 0 33 4 44 16 44 12 0 14 7 9 33 -7 33 -25 61 -25 39 0 -7 -4 -12 -10 -12 -5 0 -10 9 -10 19 0 11 -4 22 -9 25 -6 4 -9 -27 -8 -74z"
       id="path274"
       style="fill:#8642da;fill-opacity:1" />
    <path
       d="M1990 148 c-26 -28 -19 -33 19 -13 35 18 37 21 16 29 -8 3 -24 -4 -35 -16z"
       id="path276"
       style="fill:#8642da;fill-opacity:1" />
  </g>
</svg>
