 <svg  version="1.0" xmlns="http://www.w3.org/2000/svg"  width="450.000000pt" height="395.000000pt" viewBox="0 0 450.000000 395.000000"  preserveAspectRatio="xMidYMid meet">  <g transform="translate(0.000000,395.000000) scale(0.050000,-0.050000)" fill="#fce94f" stroke="none"> <path d="M1050 7881 c6 -11 -13 -25 -44 -31 -281 -58 -379 -241 -245 -458 73 -116 66 -145 -35 -163 -239 -42 -329 -332 -161 -518 41 -45 52 -583 14 -683 -41 -109 -144 -211 -275 -274 -72 -34 -134 -78 -139 -98 -5 -19 -16 -32 -24 -27 -63 39 -145 -129 -138 -282 9 -186 524 -1265 643 -1349 10 -7 18 -20 19 -30 4 -72 174 -261 270 -301 90 -38 292 -5 470 77 151 69 180 61 248 -70 16 -30 38 -50 48 -43 11 7 18 0 14 -15 -3 -14 6 -24 20 -21 14 3 25 -13 25 -34 0 -26 10 -36 28 -29 58 22 26 -189 -54 -356 -97 -203 -93 -221 16 -87 50 61 90 115 90 121 0 6 23 46 52 89 64 98 133 65 118 -57 -7 -53 -1 -68 31 -76 52 -14 50 -27 -21 -116 -33 -42 -60 -91 -60 -110 0 -20 -18 -40 -40 -46 -29 -7 -36 -20 -27 -46 11 -27 6 -32 -20 -22 -21 8 -33 3 -33 -15 0 -15 -11 -32 -25 -38 -15 -6 -11 -10 10 -11 19 -1 35 7 35 18 0 11 14 20 31 20 61 0 149 83 128 122 -12 23 -12 40 1 48 11 7 20 -3 20 -21 0 -28 5 -30 31 -8 42 34 48 26 250 -311 277 -464 283 -483 160 -585 -162 -135 -203 -149 -346 -124 -201 35 -626 -133 -809 -320 -207 -210 -734 -572 -992 -682 -78 -33 -185 -94 -238 -134 l-97 -74 6 -316 c3 -173 13 -313 23 -310 9 3 25 -16 34 -41 18 -47 383 -64 411 -19 5 8 -5 15 -23 15 -49 0 -25 49 27 56 38 6 43 -1 35 -45 -9 -46 -3 -51 58 -51 111 0 230 176 230 342 0 28 18 68 40 88 22 20 40 51 41 68 0 40 89 127 175 170 36 19 60 42 54 53 -7 10 3 13 22 5 24 -9 30 -5 20 11 -8 13 -8 23 2 21 9 -1 26 -2 39 0 27 2 142 141 151 183 13 58 149 142 321 198 45 14 70 33 62 46 -8 13 -4 15 11 6 45 -27 329 62 307 96 -6 11 -2 13 9 6 22 -13 313 79 417 131 123 63 235 61 361 -7 545 -290 833 517 496 1391 -59 155 -108 293 -108 307 0 14 -9 25 -20 25 -11 0 -20 11 -20 25 0 14 -46 148 -102 299 -129 345 -128 349 78 421 136 48 832 155 1010 155 20 0 31 9 24 21 -9 13 4 17 33 10 60 -14 255 9 727 85 781 126 972 144 1041 97 21 -15 60 -25 85 -23 25 2 50 -4 56 -13 6 -9 -4 -17 -21 -17 -47 0 -38 -22 45 -111 41 -45 76 -99 76 -120 3 -104 36 -262 68 -317 37 -65 40 -66 118 -42 47 14 47 14 -10 -61 -54 -71 -55 -74 -11 -51 25 14 41 30 35 37 -7 6 6 24 28 40 23 15 35 38 27 49 -8 13 -4 16 10 8 13 -8 23 -34 23 -58 l0 -43 31 45 c38 54 77 58 64 5 -7 -26 -2 -35 16 -28 20 8 22 23 8 60 -11 27 -19 71 -19 98 0 34 -8 44 -30 36 -22 -8 -30 3 -30 46 l-1 57 -26 -50 c-20 -39 -20 -53 -1 -65 44 -27 18 -84 -41 -89 -31 -2 -60 -9 -66 -14 -18 -18 -87 29 -74 50 7 11 2 32 -10 47 -12 15 -30 94 -39 175 -15 135 -47 236 -74 236 -6 0 -5 -9 2 -20 7 -11 2 -20 -11 -20 -13 0 -18 14 -12 30 8 19 -26 79 -87 154 -88 109 -140 204 -78 142 30 -30 78 -10 65 26 -12 30 10 36 60 16 18 -7 25 -24 18 -43 -9 -24 -3 -29 23 -19 19 8 53 4 76 -8 29 -16 37 -16 27 0 -7 12 -4 38 7 57 20 33 21 33 21 0 1 -19 15 -35 31 -35 17 0 30 -18 30 -40 0 -22 -9 -40 -19 -40 -11 0 -14 15 -7 32 10 28 6 29 -31 9 -24 -12 -54 -17 -66 -9 -13 8 -18 2 -13 -14 5 -15 29 -25 53 -22 24 4 43 -4 43 -18 0 -16 12 -14 35 8 35 31 112 14 80 -17 -33 -33 54 -76 162 -79 161 -5 393 -123 429 -217 11 -28 7 -35 -16 -26 -16 7 -30 2 -30 -9 0 -11 -9 -15 -20 -8 -11 7 -14 -1 -8 -19 24 -61 -10 -170 -48 -156 -30 11 -31 8 -6 -22 24 -30 23 -38 -10 -63 -35 -26 -35 -29 -3 -29 19 -1 35 -16 35 -33 0 -26 -6 -28 -28 -9 -32 26 -64 -4 -42 -39 22 -35 -9 -62 -48 -41 -27 14 -47 9 -79 -21 l-43 -40 0 51 c0 28 -8 51 -18 51 -10 0 -14 -17 -8 -38 7 -29 -4 -41 -51 -51 -61 -14 -130 -71 -85 -71 12 0 22 -10 22 -22 0 -14 -34 -19 -90 -15 -100 8 -108 0 -52 -52 50 -44 127 -33 151 23 11 24 40 53 66 65 26 12 41 31 34 43 -8 12 3 11 26 -3 84 -53 269 70 296 197 54 249 66 250 585 40 460 -186 471 -197 289 -297 -123 -68 -548 -494 -631 -635 -31 -52 -100 -184 -153 -294 -68 -143 -123 -225 -189 -286 -50 -47 -92 -95 -92 -106 0 -11 -9 -15 -19 -9 -27 17 -265 -189 -301 -260 -16 -33 -36 -63 -42 -69 -44 -36 -41 -297 3 -269 11 6 19 1 19 -11 0 -13 16 -18 36 -11 24 7 52 -6 80 -39 45 -52 84 -65 84 -29 0 11 -13 25 -30 32 -16 6 -25 19 -19 29 6 10 -12 27 -40 38 -57 21 -72 51 -16 32 33 -11 33 -10 1 14 -19 15 -38 49 -43 75 -5 27 -17 67 -25 89 -9 22 20 2 65 -45 102 -107 120 -105 212 16 86 112 68 134 -26 31 -72 -79 -138 -105 -141 -55 -4 44 -3 47 13 93 14 40 14 40 -18 0 -17 -22 -32 -31 -32 -19 -1 11 31 51 71 88 39 37 78 85 86 107 13 35 17 36 46 7 33 -32 58 -10 64 57 3 28 112 140 112 115 0 -38 72 -3 75 36 1 22 17 53 34 71 17 17 31 40 31 51 0 43 85 141 101 116 10 -17 22 -11 39 21 20 37 19 42 -3 28 -85 -54 -147 -21 -78 41 21 19 34 49 28 68 -8 25 -6 27 8 6 16 -21 22 -20 32 5 6 18 2 32 -9 32 -11 0 -15 9 -9 19 7 11 26 14 42 8 21 -8 26 -2 17 21 -9 24 -4 29 21 20 30 -12 30 -16 -1 -50 -32 -35 -32 -38 -1 -38 18 0 33 -16 33 -35 1 -29 4 -30 19 -6 12 20 11 35 -4 44 -16 10 -15 23 4 45 17 22 18 32 3 32 -37 0 -25 29 51 127 92 118 307 335 307 310 0 -11 9 -14 20 -7 12 7 16 20 11 29 -21 33 308 284 438 333 20 8 29 26 22 46 -7 22 -1 19 20 -8 18 -23 26 -59 20 -85 -7 -25 -3 -45 9 -45 12 0 16 -23 9 -55 l-12 -55 43 54 c23 30 53 50 66 45 14 -6 41 18 61 52 27 45 43 56 62 40 13 -11 33 -14 42 -6 21 18 -31 -54 -66 -91 -49 -53 -24 -64 54 -24 94 48 101 48 101 12 0 -34 -239 -260 -320 -302 -38 -20 -55 -41 -47 -60 8 -21 -2 -30 -30 -30 -42 0 -171 -68 -220 -115 -15 -14 -53 -39 -85 -56 -32 -17 -58 -39 -58 -50 0 -10 -11 -19 -25 -19 -45 -1 -210 -159 -166 -160 27 0 33 -6 18 -21 -24 -24 -87 -4 -86 28 1 42 56 97 81 82 14 -9 19 -7 12 5 -7 11 28 50 77 87 49 36 89 73 89 82 0 9 14 11 30 4 16 -6 30 -3 30 6 0 10 36 40 80 67 44 27 80 56 80 63 0 8 19 20 42 27 22 8 36 19 30 25 -21 21 32 65 78 65 39 0 81 45 74 81 -1 6 43 28 97 50 112 43 127 69 39 69 -45 0 -99 -34 -221 -140 -90 -77 -171 -140 -182 -140 -28 0 -129 -78 -240 -185 -54 -52 -110 -95 -125 -95 -15 0 -32 -19 -38 -41 -6 -23 -23 -39 -37 -35 -15 3 -30 -3 -33 -14 -4 -11 -21 -36 -38 -55 -30 -32 -27 -36 31 -47 72 -15 85 -48 18 -49 -28 0 -74 -34 -122 -88 -42 -49 -89 -84 -103 -78 -14 5 -32 0 -39 -11 -8 -14 0 -17 22 -8 30 12 30 7 -4 -40 -22 -29 -46 -53 -55 -53 -41 -2 -128 -134 -141 -214 -6 -31 -11 -61 -13 -67 -2 -5 -3 -38 -1 -73 2 -35 -14 -101 -37 -147 -30 -62 -33 -81 -12 -73 23 9 24 2 6 -38 -12 -27 -30 -49 -39 -49 -9 0 -17 -13 -17 -30 0 -16 -13 -30 -30 -30 -16 0 -30 -14 -30 -31 0 -17 -9 -26 -20 -19 -11 7 -20 -2 -20 -20 0 -25 -8 -27 -40 -10 -23 12 -50 16 -61 9 -48 -29 -195 -29 -206 1 -7 17 -28 30 -48 30 -21 0 -50 11 -65 25 -24 21 -24 19 0 -15 60 -85 105 -127 129 -118 13 6 36 -4 50 -21 33 -39 79 -40 94 -1 15 39 67 39 67 0 0 -16 9 -30 20 -30 11 0 20 10 20 21 0 12 9 16 20 9 18 -11 49 1 120 49 26 17 24 24 -10 51 -39 31 -39 32 6 19 33 -9 55 -2 75 24 48 64 111 208 98 228 -6 10 -2 19 10 19 11 0 21 20 20 45 0 216 55 346 204 486 58 54 104 101 101 104 -2 3 -4 12 -4 20 0 8 9 2 19 -14 16 -26 21 -25 32 4 7 19 21 30 31 23 30 -18 153 69 196 139 64 103 214 218 425 326 109 56 238 180 224 217 -8 22 -2 27 22 18 20 -8 51 4 80 31 50 47 88 52 217 29 51 -8 105 -1 165 21 l89 34 0 160 c0 152 -38 222 -56 103 -20 -138 -215 -178 -270 -56 -78 174 -78 174 -254 244 -211 85 -475 194 -620 256 -60 26 -200 81 -310 122 -765 282 -1235 658 -1070 854 12 13 48 63 81 110 147 208 310 249 466 116 244 -207 993 -615 993 -541 0 6 -13 37 -30 69 -49 94 -7 85 192 -39 103 -65 249 -155 323 -201 228 -138 491 -486 534 -705 12 -64 17 -13 19 200 2 241 -3 285 -28 285 -16 0 -30 7 -30 15 0 79 -587 548 -643 513 -13 -8 -18 -5 -10 7 24 39 -262 171 -349 159 -97 -13 -109 3 -128 176 -19 165 -19 247 0 453 16 162 -25 317 -84 317 -14 0 -26 12 -26 26 0 59 -131 151 -344 242 -62 27 -153 85 -202 130 -49 45 -95 82 -103 82 -7 0 -28 14 -45 31 -17 17 -43 27 -57 21 -15 -5 -29 -1 -33 9 -3 11 -53 25 -111 32 l-105 13 -1 162 c-3 526 -50 905 -127 1022 -18 27 -32 64 -32 82 0 52 -142 176 -238 207 -48 16 -91 41 -96 55 -8 20 -107 25 -463 23 -249 -2 -415 -7 -368 -12 47 -4 85 -17 85 -30 0 -12 15 -38 33 -59 51 -56 23 -63 -147 -38 -156 22 -375 40 -505 41 -100 1 -52 36 67 48 54 6 107 20 119 32 15 15 -495 20 -1708 19 -1332 -2 -1708 -8 -1636 -25 l93 -23 -25 -60 c-22 -49 -29 -54 -40 -26 -8 19 -9 43 -3 53 7 10 0 23 -15 29 -19 7 -24 -3 -18 -38 13 -63 -31 -63 -46 1 -16 61 -69 85 -69 32 0 -21 -9 -44 -20 -51 -12 -7 -20 15 -20 54 -1 50 -5 59 -20 36 -13 -20 -19 -22 -20 -5 0 18 -58 25 -221 25 -138 0 -217 -7 -209 -19z m1279 -41 c70 0 115 -10 131 -30 13 -16 33 -25 42 -19 10 6 18 2 18 -10 0 -22 45 -71 111 -120 27 -20 24 -13 -9 25 -27 30 -38 55 -25 57 12 1 30 4 38 6 131 32 190 32 224 2 34 -30 37 -30 48 12 6 25 17 40 23 33 7 -6 77 5 156 26 79 20 193 37 252 38 114 0 128 -20 22 -32 -33 -4 -87 -21 -119 -38 -32 -16 -70 -25 -85 -20 -14 5 -53 2 -86 -8 l-60 -19 73 -1 c63 -2 72 -8 63 -41 -9 -36 -4 -38 57 -20 37 10 68 19 70 19 2 0 -1 17 -6 37 -7 26 3 41 31 48 25 7 42 2 42 -12 0 -14 7 -12 18 5 18 27 69 24 152 -9 39 -16 39 -15 2 28 -49 56 3 61 128 11 81 -33 192 -24 170 13 -13 21 -5 21 419 30 290 7 391 -15 391 -82 0 -17 19 -29 48 -29 27 0 76 -23 110 -51 34 -29 71 -46 82 -39 12 7 19 2 15 -11 -3 -13 7 -28 22 -34 18 -6 24 3 20 28 -5 22 -27 39 -58 43 -64 7 -120 84 -62 84 109 0 166 -25 155 -68 -9 -37 5 -47 118 -81 71 -22 125 -43 121 -47 -22 -21 -158 -4 -189 24 -44 40 -62 41 -62 2 0 -23 -28 -30 -125 -32 -117 -1 -121 -3 -65 -25 33 -12 60 -32 60 -43 0 -12 20 -46 44 -77 l44 -55 92 31 c50 17 129 33 176 34 l84 4 -75 8 c-97 10 -95 37 4 67 44 13 74 33 67 44 -7 11 -2 14 11 6 34 -21 28 -52 -12 -54 -22 -1 -25 -5 -9 -11 14 -6 63 5 110 24 85 35 237 40 290 11 40 -23 11 -36 -106 -49 -248 -27 -330 -54 -235 -79 19 -5 -1 -10 -46 -12 -45 -1 -93 -13 -108 -27 -18 -17 -23 -17 -14 -1 8 13 5 29 -7 36 -11 7 -20 4 -20 -5 0 -22 -140 -67 -163 -53 -27 16 -20 -19 12 -65 16 -23 23 -48 16 -55 -8 -8 3 -8 23 0 35 13 35 16 4 39 -20 15 -26 30 -15 37 11 7 26 3 33 -8 13 -21 61 -17 311 22 78 12 147 16 154 10 6 -7 -10 -12 -36 -12 -33 0 -41 -6 -26 -21 25 -25 132 -3 116 23 -6 10 7 18 29 18 52 0 72 -34 27 -47 -19 -6 -3 -10 35 -10 223 3 90 -14 -446 -54 -227 -17 -263 -59 -43 -51 173 6 164 -9 -13 -23 l-132 -10 -66 111 c-134 225 -355 414 -555 478 -158 50 -710 49 -915 -1 -224 -54 -444 -88 -680 -103 -121 -8 -231 -24 -245 -35 -17 -14 -25 -13 -25 3 0 12 -22 22 -48 22 -26 0 -52 11 -57 25 -7 18 14 25 68 23 89 -1 130 31 43 34 -31 2 -67 1 -79 0 -13 -2 -31 8 -39 21 -9 15 -6 18 12 7 17 -11 21 -8 12 7 -8 13 -23 18 -34 12 -10 -6 -44 7 -76 30 -76 54 -89 52 -73 -11 8 -33 5 -47 -8 -38 -12 7 -20 50 -19 96 0 46 6 73 11 59 7 -16 50 -25 116 -25z m3391 -59 c0 -45 -17 -61 -51 -48 -23 9 -22 17 4 43 21 21 25 35 10 40 -13 4 -23 17 -23 28 0 13 12 11 30 -4 17 -14 30 -40 30 -59z m-3860 24 c-1 -96 -62 -107 -75 -14 -5 38 3 49 34 49 26 0 41 -13 41 -35z m237 -13 c5 -28 -1 -35 -26 -25 -19 7 -37 1 -43 -14 -19 -50 -128 -37 -128 15 0 79 182 101 197 24z m4198 -112 c36 -22 84 -40 105 -40 22 0 40 -9 40 -20 0 -11 -8 -20 -17 -20 -10 0 -13 -22 -8 -49 8 -44 1 -49 -68 -57 -52 -5 -43 -7 29 -6 l107 2 -7 -80 c-5 -66 1 -80 34 -87 77 -14 138 -103 70 -103 -47 0 -51 -40 -12 -116 45 -87 98 -361 86 -446 -5 -43 -1 -84 10 -90 13 -8 10 -19 -7 -30 -22 -14 -21 -18 3 -18 20 0 23 -5 7 -15 -13 -8 -26 -33 -30 -55 -11 -62 -91 -200 -116 -200 -12 0 -32 -13 -44 -30 -16 -24 -18 -22 -6 10 112 294 133 455 82 606 -17 52 -16 70 4 82 19 12 12 20 -25 30 -29 7 -52 21 -52 32 0 26 -159 126 -210 132 -183 22 -462 -103 -622 -278 -62 -68 -103 -105 -92 -82 85 164 322 337 524 381 l110 24 -120 1 c-244 4 -501 -228 -591 -533 -30 -101 -59 -111 -59 -20 1 100 68 226 189 353 61 63 111 132 111 151 0 24 11 33 35 27 19 -5 62 3 95 18 53 24 26 26 -230 18 -217 -7 -252 -5 -140 7 210 23 741 41 680 23 l-50 -15 50 -9 c28 -6 73 -4 100 4 l50 14 -50 3 c-43 3 -45 6 -12 19 20 8 65 10 100 5 61 -10 61 -10 12 -25 -27 -8 -39 -15 -25 -16 14 -1 25 -19 25 -40 0 -21 14 -43 30 -49 22 -9 30 2 30 38 0 67 38 62 52 -6 11 -57 61 -139 76 -124 21 23 -75 223 -115 239 -29 12 -33 19 -13 22 17 2 -9 9 -57 16 l-87 12 42 53 c70 89 47 92 -33 4 l-75 -83 -193 -9 c-205 -10 -220 -6 -346 93 -59 46 -108 65 -190 74 l-111 12 108 3 c75 2 120 -7 144 -29 34 -30 37 -29 49 20 16 65 69 35 69 -38 0 -89 55 -101 79 -16 18 65 16 80 -14 103 -65 50 -235 123 -289 123 -53 0 -91 31 -67 55 6 7 98 10 203 8 105 -3 202 3 215 14 65 54 342 56 428 3z m-2482 -27 l55 -28 -59 -11 c-92 -18 -368 -3 -392 21 -59 59 288 75 396 18z m282 -7 c99 -7 145 -3 145 12 0 37 78 25 202 -31 162 -72 152 -81 -117 -97 -315 -19 -324 -21 -346 -43 -70 -70 231 -131 679 -136 127 -2 241 -45 139 -53 -15 -1 -4 -9 23 -18 49 -16 49 -16 4 -18 -25 -1 -50 11 -57 28 -7 20 -27 26 -57 18 -25 -6 -157 3 -293 20 -136 18 -324 33 -418 34 -159 2 -171 6 -174 45 -2 27 2 34 12 18 11 -19 29 -11 64 27 l49 51 -185 -6 c-169 -6 -188 -3 -229 39 l-46 45 60 -10 c33 -5 124 -14 203 -20 79 -6 158 -16 175 -23 21 -8 32 -1 32 20 0 18 -11 32 -25 32 -18 1 -17 6 3 18 21 14 15 25 -30 51 -53 31 -54 32 -8 20 28 -7 115 -18 195 -23z m1265 4 c21 -26 15 -30 -46 -30 -102 0 -155 22 -103 42 63 25 122 20 149 -12z m-3790 -30 c169 -67 590 -61 641 9 28 38 116 41 146 5 34 -41 5 -114 -44 -112 -24 0 -32 6 -18 11 35 14 31 47 -5 47 -20 0 -30 -20 -30 -60 0 -63 6 -67 70 -42 29 12 59 2 108 -36 47 -36 71 -44 77 -27 12 35 45 31 45 -5 0 -19 19 -30 50 -30 27 0 102 -26 166 -57 83 -40 130 -52 160 -41 24 9 47 10 52 2 4 -8 59 -14 120 -13 65 0 112 -8 112 -20 0 -40 -384 -26 -448 16 -139 91 -217 71 -238 -62 -7 -48 -34 -86 -34 -48 0 12 -19 23 -41 23 -46 0 -52 -159 -7 -174 14 -5 19 11 13 41 -10 55 16 79 65 60 27 -10 32 -30 24 -89 -11 -84 52 -128 148 -103 36 9 42 5 31 -23 -7 -20 -13 -44 -13 -55 0 -11 -16 -15 -35 -9 -146 43 -138 48 -153 -107 -8 -77 -23 -141 -33 -141 -25 0 -24 64 1 129 15 40 13 51 -9 51 -42 0 -51 26 -33 92 13 48 6 69 -43 126 -46 54 -57 82 -51 137 l8 69 -131 -11 c-72 -7 -284 -23 -471 -35 -187 -13 -345 -31 -352 -41 -7 -11 -32 -11 -63 1 -65 25 -73 6 -55 -138 l14 -110 3 117 c2 83 10 114 28 108 27 -10 28 -198 2 -705 -16 -322 -49 -253 -51 110 l-2 190 -12 -150 -12 -150 -38 85 c-35 77 -37 116 -24 423 l13 338 -200 187 c-236 220 -235 217 -81 217 66 0 120 7 120 15 0 24 444 11 510 -15z m1781 -58 c-36 -14 -35 -16 10 -28 80 -22 116 -18 79 8 -35 25 -11 17 62 -19 47 -24 51 -34 38 -103 -21 -115 -4 -129 120 -102 113 24 164 15 67 -12 -68 -19 -421 -19 -440 0 -7 8 5 30 27 49 22 19 36 46 31 60 -6 17 17 25 73 25 45 0 82 7 82 16 0 16 -283 -6 -338 -27 -16 -5 -65 14 -109 43 -77 51 -85 53 -204 31 -146 -27 -169 -28 -169 -8 0 26 108 64 150 54 22 -5 112 -2 200 8 207 23 373 25 321 5z m-431 -102 c-46 -40 -46 -40 -3 -40 24 0 43 -10 43 -21 0 -12 -17 -16 -38 -10 -24 8 -42 1 -50 -20 -10 -27 -2 -30 48 -19 70 15 83 -20 16 -41 -96 -31 -142 119 -50 164 70 35 84 30 34 -13z m1780 -18 c0 -19 11 -45 24 -58 19 -19 17 -24 -9 -24 -38 0 -45 10 -62 84 -11 44 -7 53 17 43 16 -6 30 -27 30 -45z m-290 -142 c52 -22 -266 -23 -390 -1 -71 13 -44 16 130 17 121 1 238 -7 260 -16z m-1799 -124 c-39 -27 -59 21 -31 78 l27 56 12 -60 c7 -33 4 -66 -8 -74z m2129 69 c-1 -23 -6 -27 -16 -11 -8 12 -50 27 -94 31 -79 8 -79 8 15 12 79 2 95 -3 95 -32z m-1360 -5 c0 -11 -29 -21 -65 -21 -56 -2 -59 -4 -25 -20 40 -19 40 -19 0 -14 -77 10 -61 75 19 75 39 0 71 -9 71 -20z m400 -2 c0 -17 8 -17 28 0 29 24 132 -7 132 -40 0 -43 -191 -70 -236 -33 -15 12 -69 22 -120 21 -52 -1 -71 2 -44 7 28 5 68 17 90 26 100 45 150 51 150 19z m-966 -24 c24 -13 42 -28 41 -34 -8 -27 79 -100 119 -100 26 0 46 -9 46 -20 0 -33 -203 -24 -241 11 -19 17 -64 32 -100 33 -57 2 -61 5 -31 27 34 25 112 17 112 -11 0 -24 73 -37 103 -18 19 12 11 17 -28 18 -53 0 -82 39 -30 41 15 0 11 11 -10 27 -19 14 -60 22 -90 18 -43 -7 -48 -4 -25 12 39 28 79 26 134 -4z m1786 -1 l-90 -22 110 -10 c61 -6 -52 -10 -250 -8 -198 2 -364 5 -370 7 -5 3 -17 4 -25 2 -8 -1 -15 6 -15 15 0 9 47 14 105 11 84 -5 93 -3 45 10 -39 11 53 17 260 17 275 1 307 -2 230 -22z m-3603 -112 c70 7 123 -2 123 -21 0 -11 -14 -20 -31 -20 -81 0 -95 -56 -40 -150 29 -50 66 -90 82 -90 34 0 39 -32 8 -51 -11 -7 -15 -32 -9 -56 12 -42 11 -42 -12 -3 -13 22 -58 73 -101 113 -50 47 -77 90 -77 123 0 63 -19 114 -42 114 -10 0 -17 -7 -16 -15 7 -40 -6 -60 -49 -80 -74 -34 -51 -154 27 -138 44 9 60 1 81 -39 16 -29 51 -55 83 -62 87 -17 84 -159 -4 -192 -33 -13 -60 -34 -60 -48 0 -31 44 -34 72 -6 13 13 21 -5 25 -53 2 -41 10 -83 17 -95 7 -12 -11 -1 -39 25 -29 26 -56 38 -63 26 -7 -11 11 -39 41 -61 29 -23 46 -42 37 -42 -8 0 -4 -13 10 -30 14 -16 17 -30 8 -30 -9 0 -37 24 -62 53 -27 32 -46 42 -46 25 1 -31 39 -99 40 -70 0 11 23 -3 51 -29 45 -42 49 -43 36 -9 -13 35 -10 37 18 14 40 -33 38 14 -2 63 -19 23 -20 41 -4 72 15 27 16 41 2 41 -31 0 -24 144 9 188 27 36 30 35 52 -20 54 -138 94 -258 89 -268 -4 -5 -13 -185 -21 -400 -8 -214 -16 -391 -17 -392 -2 -2 -34 -8 -73 -14 -76 -12 -271 185 -287 290 -8 50 -12 51 -80 6 -51 -33 -105 -130 -73 -130 11 0 20 -11 20 -25 0 -14 55 -95 123 -180 141 -179 136 -177 462 -126 367 58 1007 106 987 74 -10 -17 128 -71 188 -74 17 -1 49 -12 73 -25 33 -18 108 -18 320 0 282 24 314 35 316 114 1 34 51 56 51 22 0 -12 9 -17 20 -10 42 26 23 93 -20 70 -44 -24 -54 -2 -16 36 43 43 71 26 86 -50 9 -50 6 -77 -10 -83 -14 -4 -9 -17 14 -32 29 -20 112 -17 416 12 638 63 588 54 602 108 7 27 25 49 41 49 15 0 34 14 41 32 11 30 13 30 30 0 10 -18 13 -40 7 -50 -38 -61 51 -65 513 -24 1296 117 1206 99 1230 250 l16 102 100 10 c85 8 101 17 106 55 7 49 -15 58 -52 21 -48 -48 -23 8 36 80 33 41 77 97 98 124 52 66 131 11 86 -60 -13 -22 -16 -40 -5 -40 10 0 31 25 46 55 25 52 33 55 154 51 178 -5 243 -22 193 -50 -34 -19 -32 -23 24 -50 33 -16 65 -46 70 -66 11 -42 169 -128 274 -149 248 -51 344 -226 265 -481 l-37 -120 -189 -13 c-104 -7 -202 -16 -219 -20 -19 -4 -28 5 -24 26 3 19 -4 40 -15 47 -12 7 -21 -2 -21 -19 0 -36 -51 -42 -72 -8 -8 14 -5 18 8 10 11 -8 26 -5 33 5 16 27 -211 48 -269 25 -43 -18 -44 -21 -10 -22 38 -2 39 -3 3 -24 -27 -16 -42 -16 -51 1 -19 29 -194 -22 -187 -55 3 -13 -4 -23 -15 -23 -11 0 -20 20 -20 45 0 25 -18 57 -40 70 -22 14 -40 39 -40 56 0 40 56 61 85 32 17 -17 14 -23 -11 -23 -19 0 -34 -9 -34 -20 0 -11 19 -20 41 -20 26 0 36 -9 27 -23 -10 -16 2 -18 44 -7 32 9 108 27 168 41 l110 24 -100 8 c-86 6 -101 13 -106 52 -8 55 19 56 132 5 47 -21 80 -30 74 -19 -7 10 12 19 42 19 l55 0 -40 45 c-62 71 -107 150 -106 189 1 44 40 -2 165 -193 124 -191 135 -185 165 83 15 132 -36 204 -164 228 -37 7 -73 21 -79 31 -13 21 -318 3 -433 -26 -97 -24 -112 -58 -122 -262 -4 -94 -13 -179 -20 -190 -28 -45 -206 -47 -315 -4 l-106 42 -401 -43 -401 -42 -310 -150 -310 -149 -393 -39 c-1318 -131 -1451 -141 -1511 -110 -31 17 -72 30 -91 30 -37 0 -46 28 -64 207 -13 134 -53 222 -114 254 -29 16 -38 17 -28 1 18 -30 -1 -28 -55 6 -75 47 -226 53 -523 22 -602 -64 -597 -59 -622 -595 -10 -222 -7 -275 14 -275 20 -1 21 -4 3 -16 -17 -11 8 -80 90 -245 121 -244 108 -233 249 -205 69 13 72 -22 7 -65 -37 -24 -92 -31 -221 -27 -95 2 -178 -2 -185 -9 -50 -51 -124 -2 -194 127 -21 39 -67 115 -102 170 -117 183 -148 242 -353 652 -291 586 -292 664 -5 740 164 43 170 47 205 126 63 142 202 255 230 187 7 -17 10 -15 11 5 0 17 -12 47 -28 69 -25 31 -28 105 -18 430 6 216 3 380 -6 367 -24 -33 -105 -25 -91 9 5 14 27 35 47 46 22 12 38 42 38 71 0 74 -126 64 -137 -11 -6 -43 -3 -46 25 -23 18 15 32 18 32 8 0 -52 -109 -70 -140 -24 -56 84 -25 208 42 167 31 -19 20 45 -12 71 -26 22 -29 20 -19 -12 11 -31 9 -33 -9 -8 -37 52 -28 84 18 60 27 -15 40 -15 40 -1 0 31 255 27 265 -4 5 -15 19 -5 36 25 23 43 28 45 35 14 4 -20 22 -34 41 -33z m2324 38 c81 -43 46 -79 -76 -78 -146 0 -225 47 -115 68 39 7 79 8 89 2 10 -7 24 -3 31 9 15 25 23 25 71 -1z m259 1 c17 -11 23 -20 15 -20 -32 0 -46 -5 -80 -23 -41 -22 -45 -7 -10 33 30 34 36 35 75 10z m1230 -20 c-64 -18 -746 -62 -880 -57 -78 3 730 70 870 72 l70 1 -60 -16z m839 -25 c-8 -25 -15 -47 -17 -49 -8 -10 -562 -42 -576 -34 -80 50 -10 85 199 97 118 7 229 16 245 20 109 24 163 11 149 -34z m-3683 -103 c-6 -67 -2 -112 12 -121 41 -25 23 -53 -20 -30 -62 33 -72 5 -14 -40 28 -22 69 -84 93 -138 23 -54 56 -104 74 -111 17 -6 26 -20 20 -30 -16 -26 10 -84 31 -71 10 6 28 5 40 -2 16 -10 16 -18 -1 -28 -23 -15 -4 -51 165 -326 32 -52 64 -95 71 -95 48 1 103 29 103 52 0 16 10 28 21 28 12 0 16 -8 10 -18 -6 -10 0 -23 14 -28 14 -5 -20 -30 -75 -54 -94 -43 -97 -47 -50 -61 48 -14 48 -15 5 -17 -25 -1 -45 -12 -45 -23 0 -12 16 -17 35 -12 143 38 145 38 144 -32 -2 -52 -5 -57 -17 -25 -16 39 -98 -71 -86 -115 2 -8 -4 -15 -15 -15 -10 0 -17 17 -16 39 2 21 9 35 15 31 7 -4 22 19 34 50 21 57 21 58 -36 47 -32 -7 -70 -2 -86 11 -38 32 -57 -1 -41 -72 10 -46 8 -50 -11 -21 -35 55 -180 -23 -180 -97 0 -35 80 -168 101 -168 10 0 28 -20 42 -45 22 -42 21 -43 -15 -16 -63 48 -148 149 -148 176 0 14 -11 23 -25 20 -14 -3 -25 9 -25 25 -1 52 -93 163 -156 190 -68 28 -44 45 82 54 58 4 64 10 56 55 -23 122 -31 376 -9 276 12 -52 28 -95 37 -95 8 0 11 -53 5 -118 l-10 -119 124 3 c154 3 186 40 124 140 -22 35 -77 129 -122 209 -85 150 -97 161 -136 122 -18 -18 -27 -16 -36 8 -7 19 -26 28 -46 23 -18 -6 -1 8 37 30 61 35 67 53 14 44 -10 -2 -11 6 -5 17 7 11 -1 47 -19 80 -17 34 -25 61 -17 61 7 0 -3 18 -23 40 -20 22 -29 40 -20 40 8 0 -11 20 -42 44 -80 62 -88 77 -61 120 19 31 16 42 -13 59 -29 16 -31 26 -13 49 13 15 16 28 6 28 -9 0 10 22 43 48 78 63 88 53 76 -76z m-238 47 c5 -27 10 -87 11 -134 1 -70 8 -85 40 -85 80 0 64 -76 -23 -105 -10 -3 -22 -67 -27 -142 -6 -87 -2 -131 11 -123 11 7 20 3 20 -9 0 -11 -13 -21 -29 -21 -16 0 -38 -16 -49 -35 -18 -31 -21 -30 -21 12 -1 32 -10 44 -28 37 -21 -8 -28 11 -30 77 -1 65 5 85 25 77 17 -7 37 14 53 56 15 36 31 75 36 86 5 11 -5 8 -24 -7 -18 -16 -33 -40 -33 -54 0 -15 -9 -32 -20 -39 -12 -7 -20 14 -20 50 0 34 8 57 18 51 22 -13 41 56 42 149 1 81 22 224 32 214 4 -3 11 -28 16 -55z m3240 8 c17 -44 19 -43 -134 -59 l-134 -14 0 53 c0 66 244 84 268 20z m-1278 -8 c-77 -8 -194 -14 -260 -13 l-120 0 100 14 c55 8 172 14 260 14 l160 0 -140 -15z m830 -20 c0 -55 12 -52 -517 -94 -487 -38 -507 -36 -476 45 8 21 42 30 107 31 53 1 240 14 416 28 472 38 470 38 470 -10z m120 1 c0 -22 -13 -40 -30 -40 -17 0 -30 18 -30 40 0 22 13 40 30 40 17 0 30 -18 30 -40z m1637 23 c16 -11 -21 -21 -101 -27 -208 -17 -355 -116 -500 -336 -61 -93 -159 -333 -153 -377 1 -7 0 -49 -3 -93 l-5 -80 -15 79 c-20 104 -3 223 44 318 21 42 34 90 28 106 -7 16 -4 25 5 19 9 -6 54 46 101 114 82 121 72 114 -44 -27 -31 -38 -50 -55 -42 -39 25 53 152 203 163 192 5 -6 51 18 100 52 141 97 348 145 422 99z m-3973 -87 c29 -46 59 -136 45 -136 -5 0 -27 36 -49 81 -23 45 -55 86 -71 92 -16 6 -29 20 -29 30 0 29 71 -16 104 -67z m1016 -26 c0 -27 -2 -50 -5 -50 -3 -1 -122 -13 -265 -29 -270 -29 -319 -21 -277 45 20 32 127 49 512 81 25 2 35 -12 35 -47z m156 15 c-4 -19 -20 -35 -36 -35 -16 0 -32 16 -36 35 -5 25 6 35 36 35 30 0 41 -10 36 -35z m1662 -108 c71 -158 81 -284 13 -157 -48 89 -112 300 -92 300 9 0 44 -64 79 -143z m1182 123 c0 -11 -43 -20 -95 -20 -169 -1 -464 -201 -465 -315 0 -14 -17 -58 -39 -97 -21 -40 -33 -86 -26 -104 8 -21 15 -24 20 -8 5 13 17 19 27 13 10 -6 18 -4 18 6 0 10 20 39 45 66 25 26 41 51 35 55 -12 8 223 204 245 204 8 0 15 -10 15 -22 0 -12 17 -37 39 -55 30 -25 40 -64 45 -167 6 -151 3 -158 -80 -160 -53 -2 -59 -8 -51 -51 5 -29 0 -43 -12 -36 -13 8 -15 0 -7 -21 10 -27 5 -32 -21 -22 -34 13 -110 -18 -137 -55 -8 -11 -55 -18 -105 -16 -96 3 -120 -26 -61 -75 21 -17 30 -18 30 -2 0 12 10 22 22 22 12 0 17 -13 11 -29 -6 -15 0 -32 13 -37 18 -7 18 -15 -1 -35 -35 -38 -31 -79 7 -79 20 0 28 11 21 29 -6 17 -3 35 8 42 10 6 19 0 19 -13 0 -16 13 -13 37 9 20 18 47 33 60 33 108 0 315 189 295 269 -8 32 -22 47 -36 39 -13 -9 -17 -5 -8 8 9 15 29 16 60 5 43 -17 50 -10 78 75 17 52 32 79 33 61 0 -19 -17 -76 -40 -128 -64 -151 -30 -153 41 -2 64 133 103 313 68 313 -71 -1 -108 -28 -108 -79 0 -30 -17 -75 -38 -99 -21 -24 -34 -63 -30 -88 6 -30 1 -26 -14 12 -18 46 -16 61 8 80 56 45 63 170 10 178 -90 12 -38 256 55 256 27 0 49 10 49 22 0 16 9 15 30 -2 18 -15 51 -19 83 -11 47 12 51 10 28 -18 -16 -19 -28 -111 -33 -252 -8 -226 -30 -299 -131 -442 -41 -59 -46 -77 -19 -77 55 0 166 287 180 467 l13 183 24 -103 c42 -181 -156 -679 -225 -568 -8 14 -44 -5 -94 -48 -45 -38 -114 -80 -154 -92 -40 -12 -85 -28 -102 -34 -33 -14 -56 -19 -100 -23 -26 -2 -26 -5 -1 -21 19 -12 -2 -15 -60 -8 -67 8 -82 5 -59 -11 25 -19 26 -25 2 -40 -65 -42 -264 99 -272 192 -1 20 -19 88 -39 151 -30 95 -33 134 -16 220 l20 105 3 -100 c7 -255 194 -600 264 -487 11 18 7 29 -13 33 -16 4 -29 16 -29 28 0 12 -19 53 -43 91 -150 242 110 759 441 877 86 31 262 36 262 8z m-3895 -44 c16 -48 -32 -177 -62 -166 -44 17 -159 -28 -191 -74 -16 -22 -39 -34 -50 -27 -32 20 -27 65 9 79 17 6 26 21 19 32 -7 11 -2 20 10 20 12 0 17 8 11 18 -6 10 0 23 14 29 14 5 8 11 -13 11 -22 1 -55 -13 -75 -31 -21 -18 -37 -24 -37 -12 0 12 11 26 25 32 14 5 7 11 -15 13 -34 3 -33 6 10 20 47 15 47 16 -15 18 -118 4 -68 42 55 42 110 0 179 -38 75 -42 -36 -1 -32 -6 21 -25 37 -13 60 -31 52 -38 -8 -8 14 -15 49 -15 59 0 63 5 63 70 0 67 28 96 45 46z m2195 -16 c24 -16 21 -19 -15 -20 -97 0 -287 -66 -276 -95 6 -16 12 -43 13 -62 1 -19 9 -11 21 20 34 93 234 102 209 9 -6 -23 -12 -58 -12 -77 0 -19 -9 -35 -19 -35 -11 0 -15 14 -8 30 6 17 1 30 -11 30 -12 0 -22 -12 -22 -28 0 -34 -75 -56 -86 -25 -5 16 -17 15 -41 -4 -29 -24 -33 -23 -34 10 0 35 -2 35 -21 2 -33 -57 -98 -44 -100 20 l-2 55 -16 -50 c-15 -48 -16 -48 -18 -5 -2 52 54 125 96 125 16 0 23 6 15 13 -21 22 60 68 152 86 118 23 141 23 175 1z m-3011 -59 c-7 -28 -19 -55 -28 -61 -9 -5 -21 -28 -26 -50 -6 -22 -12 1 -14 50 -7 150 -45 1 -42 -167 1 -75 -5 -147 -13 -160 -22 -33 -20 -61 3 -78 12 -8 6 -15 -14 -15 -39 0 -48 170 -22 414 l12 121 79 -2 c73 -2 77 -6 65 -52z m3085 -53 c11 -30 13 -30 30 0 30 53 52 37 66 -49 15 -89 0 -125 -33 -78 -15 22 -23 23 -30 4 -6 -14 -23 -25 -39 -25 -24 0 -25 8 -6 43 20 37 18 41 -11 30 -19 -7 -38 -13 -43 -13 -4 0 -8 -13 -8 -30 0 -16 -9 -30 -21 -30 -19 0 -8 125 15 165 15 27 67 16 80 -17z m-1843 -89 c7 -11 1 -34 -13 -51 -29 -36 -94 11 -69 50 17 28 65 28 82 1z m1009 1 c17 -11 26 -20 20 -21 -5 -1 -26 -5 -45 -9 -19 -3 -35 1 -35 10 0 10 -16 21 -35 26 -24 6 -19 10 15 11 28 1 64 -6 80 -17z m-700 -40 c0 -11 26 -20 58 -20 50 0 59 -9 71 -71 7 -40 18 -83 23 -96 5 -13 -9 -44 -31 -67 -33 -36 -34 -44 -9 -54 25 -9 26 -19 5 -57 -14 -25 -27 -63 -28 -85 -2 -22 -6 -49 -10 -60 -3 -11 0 -33 7 -50 7 -16 15 -66 18 -110 5 -71 12 -81 66 -91 67 -12 -69 -39 -196 -39 -135 0 -21 -28 161 -40 115 -7 175 -17 145 -25 -27 -6 -90 -21 -140 -32 -94 -21 247 -13 360 9 39 7 43 5 20 -11 -16 -11 -75 -21 -130 -23 -55 -1 -122 -9 -150 -17 -108 -33 21 -44 270 -23 306 27 315 27 301 4 -6 -11 1 -32 17 -47 58 -58 -54 -112 -126 -62 -37 25 -40 25 -30 -2 10 -25 -5 -29 -93 -23 -58 4 -133 -3 -167 -17 -64 -25 -124 -26 -182 -4 -47 18 -17 53 46 53 30 0 68 10 84 21 23 15 18 18 -20 10 -27 -6 -160 -14 -295 -19 l-245 -8 -61 57 c-34 32 -56 67 -49 78 7 12 -4 22 -24 23 -25 1 -21 7 14 18 44 14 40 16 -28 18 -96 2 -152 49 -152 125 0 61 67 82 114 35 17 -17 32 -12 58 19 19 22 43 36 52 30 9 -5 16 -3 14 7 -7 40 4 67 22 56 12 -7 20 15 20 54 0 67 -53 136 -105 136 -19 1 -19 4 1 17 34 22 -50 60 -111 50 -49 -7 -72 274 -25 303 11 7 20 -1 20 -18 0 -17 17 -39 37 -50 43 -24 154 -46 135 -28 -21 22 52 86 99 86 25 0 50 14 56 30 13 33 113 42 113 10z m-1210 -80 c15 -24 -83 -24 -140 0 -31 13 -21 18 44 19 46 0 89 -8 96 -19z m3410 -18 c0 -49 -29 -82 -70 -82 -41 0 -70 33 -70 82 0 10 32 18 70 18 39 0 70 -8 70 -18z m-2920 -47 c-1 -48 -39 -126 -40 -80 0 17 -16 22 -50 13 -62 -15 -162 23 -180 69 -10 26 -7 28 13 8 34 -33 118 -31 166 6 56 42 91 36 91 -16z m137 -208 c20 -183 20 -184 -40 -129 -37 35 -45 62 -43 157 1 63 -6 120 -15 126 -10 6 -12 30 -6 55 l12 44 37 -48 c25 -31 44 -103 55 -205z m2593 168 c8 -47 13 -128 11 -180 -4 -87 0 -95 43 -95 38 0 136 -113 112 -129 -8 -6 -1576 -132 -1624 -132 -36 1 -36 5 8 51 46 48 31 73 -15 27 -18 -18 -31 -17 -55 3 -44 37 -63 8 -23 -36 51 -57 42 -64 -79 -64 l-112 0 11 65 c6 36 17 153 24 260 l14 195 62 2 c35 0 369 26 743 57 374 30 722 57 772 58 l93 3 15 -85z m-3290 -4 c0 -15 -16 -33 -35 -41 -32 -13 -32 -16 5 -31 34 -14 35 -16 5 -18 -40 -1 -45 -23 -13 -55 12 -12 16 -33 7 -47 -11 -18 -19 -16 -33 8 -10 18 -27 33 -38 33 -21 0 -78 49 -78 66 0 5 21 15 47 21 25 7 57 35 70 64 23 51 63 51 63 0z m124 -152 c9 -60 -9 -91 -41 -71 -20 12 -5 132 17 132 9 0 19 -27 24 -61z m-376 8 c-12 -5 -39 -22 -60 -38 -30 -23 -31 -27 -5 -18 71 25 119 -26 113 -120 -5 -76 -10 -85 -41 -68 -43 23 -46 57 -5 57 17 0 30 9 30 20 0 11 -13 20 -30 20 -17 0 -30 18 -30 41 0 40 -2 40 -59 7 -81 -49 -106 -185 -34 -189 13 -1 1 -10 -25 -21 -76 -30 -116 102 -61 203 21 41 202 143 219 124 6 -6 0 -14 -12 -18z m1048 -174 c4 -85 -2 -133 -16 -133 -13 0 -19 44 -16 115 2 64 -4 128 -13 143 -11 19 -8 24 11 18 19 -6 30 -51 34 -143z m-792 28 c5 -32 1 -54 -9 -48 -10 6 -16 -1 -14 -16 15 -110 -4 -277 -31 -277 -24 0 -30 29 -30 140 0 88 -8 140 -22 140 -13 0 -20 -40 -17 -105 7 -175 3 -195 -41 -195 -45 0 -50 46 -27 285 l13 135 85 0 c78 0 85 -4 93 -59z m-565 -216 c0 -47 -8 -85 -19 -85 -12 0 -19 70 -17 175 2 185 32 110 36 -90z m1501 174 c0 -26 -14 -39 -40 -39 -45 0 -57 71 -15 86 36 13 55 -3 55 -47z m-820 -87 c-9 -43 -7 -77 6 -90 12 -12 17 -22 11 -22 -5 0 -32 24 -59 53 -26 29 -37 47 -23 39 16 -9 25 -1 25 23 0 40 16 65 41 65 8 0 8 -31 -1 -68z m4249 -54 c-107 -112 -369 -233 -369 -170 0 14 52 40 115 58 74 21 147 60 205 111 104 91 135 92 49 1z m-832 32 c-17 -17 176 -216 197 -204 10 7 35 -6 54 -29 21 -24 47 -35 67 -28 17 7 38 2 46 -11 17 -26 260 27 334 74 166 104 159 101 119 55 -19 -23 -73 -58 -120 -79 -46 -20 -91 -46 -99 -57 -9 -14 -15 -14 -15 -1 0 12 -7 11 -15 -2 -19 -29 -253 -57 -235 -28 11 17 -63 31 -116 22 -10 -2 -11 6 -4 18 7 12 -9 20 -40 20 -29 0 -48 7 -42 16 5 9 -7 26 -27 39 -35 22 -42 2 -20 -55 2 -5 3 -17 1 -25 -1 -8 8 -15 19 -15 12 0 15 -10 8 -21 -8 -14 -22 -9 -37 12 -26 35 -26 34 -147 -28 -67 -35 -329 8 -322 53 6 43 -7 46 -39 8 -44 -50 -134 -76 -153 -45 -8 13 11 31 47 43 34 12 62 34 62 48 0 16 15 22 40 16 22 -6 55 -4 75 5 19 9 49 16 65 18 17 1 40 8 53 16 13 9 28 4 34 -10 5 -14 11 -4 11 21 2 36 12 45 47 40 32 -4 43 3 38 24 -4 19 12 13 45 -18 29 -27 52 -42 52 -33 0 9 14 5 30 -9 42 -35 37 -6 -11 62 -37 51 -39 98 -4 98 6 0 7 -5 2 -10z m-3927 -150 c53 0 155 -65 127 -82 -17 -10 -42 -2 -68 23 -23 21 -55 39 -71 39 -38 0 -118 56 -118 83 0 11 24 1 53 -22 29 -22 63 -41 77 -41z m2890 -99 c13 -32 37 -62 53 -65 21 -4 18 -12 -11 -30 -40 -25 -102 52 -102 127 0 47 34 29 60 -32z m272 3 c24 -12 47 -19 51 -14 5 4 20 -10 34 -33 14 -23 16 -35 4 -28 -11 7 -21 0 -21 -17 0 -18 -24 -37 -55 -43 -30 -7 -66 -16 -80 -20 -14 -4 -25 5 -25 20 0 29 -34 28 -110 -1 -38 -15 -38 -14 -6 18 18 19 30 52 26 73 -4 21 6 43 21 49 16 6 29 1 29 -10 0 -11 9 -15 20 -8 12 7 16 20 11 28 -13 22 52 13 101 -14z m-2905 -9 c8 -20 14 -19 28 1 11 15 43 23 77 18 l58 -8 -1 -144 c-2 -173 -48 -251 -85 -144 -25 70 -55 80 -69 24 -6 -20 -36 -50 -68 -66 -31 -16 -55 -39 -52 -52 7 -35 -178 -31 -226 5 -64 47 15 62 92 18 99 -58 147 13 134 199 -8 106 -4 134 16 126 14 -5 31 3 37 19 13 36 45 38 59 4z m2532 -114 c1 -47 0 -47 -28 -10 -29 38 -30 38 -30 -6 -1 -32 -13 -45 -43 -45 -29 0 -39 9 -31 29 6 17 -3 32 -23 37 -24 6 -16 15 31 33 36 14 65 39 65 57 0 26 5 24 29 -7 17 -22 30 -61 30 -88z m-1683 75 c26 -26 29 -228 4 -326 l-15 -60 -3 70 c-2 39 -16 87 -33 109 -63 84 -20 274 47 207z m-100 -276 c11 0 24 -18 30 -40 9 -34 0 -40 -54 -40 -72 0 -114 31 -98 72 5 15 -27 72 -72 126 -120 143 -100 146 46 5 71 -68 137 -123 148 -123z m295 142 c-17 -28 -65 -28 -82 -1 -7 11 -1 34 13 51 29 36 94 -11 69 -50z m-1912 -15 c22 -29 40 -67 39 -85 -1 -27 -3 -27 -13 -2 -6 17 -23 37 -38 46 -14 9 -36 33 -47 55 -32 58 10 48 59 -14z m4161 13 c0 -27 -13 -40 -40 -40 -39 0 -54 39 -27 67 28 27 67 12 67 -27z m560 20 c0 -11 -7 -20 -15 -20 -8 0 -35 -6 -60 -13 -33 -8 -45 -3 -45 21 0 22 18 32 60 32 33 0 60 -9 60 -20z m-2510 -40 c7 -12 21 -15 31 -9 11 6 19 2 19 -10 0 -11 -11 -22 -25 -23 -14 -1 -68 -5 -120 -10 -57 -6 -95 -1 -95 11 0 12 22 21 49 21 27 0 54 9 61 20 16 26 64 26 80 0z m3639 -129 c135 -59 145 -78 18 -34 -72 26 -95 27 -102 8 -6 -18 -19 -19 -47 -4 -28 15 -38 14 -38 -6 0 -15 -26 -28 -60 -31 -34 -3 -60 5 -60 18 0 13 17 18 40 12 41 -11 55 14 20 36 -103 64 86 64 229 1z m-793 -175 c13 -13 24 -41 24 -62 0 -32 11 -36 75 -27 220 32 262 34 274 14 31 -49 -72 -622 -118 -660 -33 -27 -247 -43 -262 -20 -6 11 -22 19 -35 19 -17 -1 -16 -5 2 -17 16 -10 -7 -18 -60 -19 -121 -5 -183 -13 -208 -29 -12 -7 -84 -19 -160 -26 -76 -7 -232 -29 -348 -49 -292 -52 -631 -106 -835 -132 -25 -3 -110 -14 -190 -25 -80 -11 -230 -30 -335 -42 -104 -12 -262 -31 -350 -43 -88 -12 -223 -30 -300 -39 -77 -9 -188 -25 -246 -34 -128 -22 -124 -27 -98 140 14 90 14 179 1 264 l-19 130 81 10 c45 6 275 29 511 52 1014 95 897 69 1330 295 197 103 310 128 310 69 0 -62 49 -90 134 -77 42 7 223 25 403 42 314 29 403 49 403 91 0 25 -3 24 -75 -12 -34 -17 -92 -30 -129 -29 -78 1 -194 -11 -385 -40 -77 -12 -179 -19 -227 -16 l-87 6 12 80 c19 116 17 115 447 162 217 23 403 44 415 45 12 2 32 -8 45 -21z m1747 -157 c63 -114 113 -247 102 -274 -8 -22 -4 -27 14 -16 20 13 20 7 2 -27 -26 -49 -52 -54 -68 -12 -7 17 -3 30 8 30 10 0 18 20 18 45 -2 43 -3 43 -21 5 -16 -34 -17 -31 -11 17 8 55 -4 74 -93 146 -18 15 -25 44 -19 76 10 55 41 59 68 10z m-5543 -9 c0 -27 23 -38 50 -25 6 3 29 -26 53 -65 23 -38 50 -75 59 -81 20 -13 0 -99 -24 -99 -9 0 -23 25 -30 55 -26 108 -69 170 -110 159 -21 -6 -38 -3 -38 6 0 9 -5 31 -12 48 -8 21 -1 32 20 32 18 0 32 -13 32 -30z m4373 -51 c-66 -52 -73 -49 -47 20 18 49 28 55 59 38 35 -18 34 -22 -12 -58z m-4691 1 c54 0 6 -37 -62 -48 -50 -8 -98 -32 -124 -62 -24 -28 -60 -50 -81 -50 -20 0 -32 -9 -25 -20 7 -11 -6 -20 -29 -20 -22 0 -41 10 -41 21 0 12 -8 16 -18 10 -10 -6 -16 3 -14 21 5 33 72 83 72 54 0 -9 7 -6 15 7 8 13 33 26 55 30 22 4 45 12 50 17 21 22 131 55 157 48 14 -4 35 -8 45 -8z m-479 -386 c92 -259 111 -514 38 -514 -57 0 -117 89 -117 175 l0 75 48 -95 c127 -248 69 104 -80 490 -29 75 -52 160 -51 190 1 80 62 -42 162 -321z m6257 309 c0 -70 -149 -75 -295 -10 -95 42 -84 47 115 47 163 0 180 -4 180 -37z m-5740 -13 c28 -16 91 -29 142 -29 66 -1 102 -12 128 -41 49 -54 77 -50 65 9 -5 28 -2 45 8 39 24 -15 21 -83 -4 -99 -13 -8 -6 -35 21 -76 55 -83 417 -805 489 -978 31 -74 64 -135 72 -135 16 0 100 -208 349 -856 256 -672 215 -1184 -98 -1219 -155 -17 -178 19 -161 258 l14 194 -68 116 c-37 64 -73 131 -81 149 -7 19 -174 302 -371 631 -196 328 -464 800 -593 1047 -130 248 -254 474 -274 503 -52 72 -48 133 15 225 29 43 43 72 32 65 -11 -7 -25 4 -30 25 -7 27 -1 35 23 28 19 -5 87 12 153 37 71 27 105 48 84 53 -41 8 -44 27 -11 60 30 30 34 29 96 -6z m-650 -225 c-8 -19 -19 -51 -25 -70 -17 -60 -45 -38 -45 35 0 58 7 70 42 70 32 0 39 -8 28 -35z m1453 -178 c44 -39 48 -122 10 -178 -15 -21 -34 -73 -41 -114 -15 -80 -25 -87 -72 -49 -73 59 -134 313 -87 361 26 26 154 12 190 -20z m-1134 -394 c64 -108 65 -133 4 -60 -41 50 -82 147 -62 147 4 0 30 -39 58 -87z m177 -287 c80 -163 75 -246 -7 -112 -61 99 -101 186 -84 186 7 0 2 11 -11 24 -31 31 -31 56 1 55 14 0 59 -69 101 -153z m1442 96 c30 -12 18 -22 -65 -57 -57 -24 -103 -56 -103 -72 0 -16 -24 -35 -52 -42 -60 -15 -91 1 -41 21 18 7 33 34 33 60 0 26 9 48 20 48 11 0 20 -10 20 -23 0 -12 19 1 41 30 42 54 78 62 147 35z m5252 -497 c-1 -126 -46 -154 -120 -75 -50 53 -42 79 30 96 75 18 90 14 90 -21z m-5634 -1493 c6 -15 -13 -51 -43 -79 l-54 -52 2 50 c1 27 19 63 41 79 47 35 42 35 54 2z m-106 -88 c0 -8 -14 -35 -31 -60 -36 -50 -17 -57 40 -13 53 40 82 36 85 -10 2 -27 -23 -51 -85 -82 -49 -23 -84 -51 -78 -61 6 -9 32 -4 58 13 37 25 49 26 56 5 7 -21 16 -20 47 4 34 27 36 27 13 -2 -13 -17 -18 -39 -10 -48 8 -9 5 -10 -8 -3 -31 18 -127 -20 -160 -63 -14 -19 -26 -24 -26 -10 -1 13 8 29 19 36 33 20 23 45 -24 57 -25 6 -51 1 -60 -13 -8 -13 -35 -25 -60 -27 -55 -3 -387 -113 -521 -172 -52 -23 -101 -35 -109 -28 -8 8 6 20 30 26 24 6 39 19 33 29 -6 10 -46 -2 -89 -27 -42 -24 -73 -50 -68 -58 5 -8 -2 -21 -15 -29 -14 -9 -18 -6 -9 9 9 14 1 23 -18 23 -19 0 -27 -9 -18 -23 9 -14 5 -18 -8 -9 -12 7 -42 -6 -66 -30 -24 -24 -70 -47 -103 -51 -32 -4 -66 -11 -75 -17 -9 -6 -20 -2 -23 9 -4 10 -66 -37 -137 -106 -144 -137 -198 -169 -223 -129 -11 18 -16 12 -17 -18 0 -26 -19 -55 -45 -69 -42 -22 -43 -21 -15 14 17 21 -40 -22 -125 -96 -86 -74 -178 -149 -204 -166 -28 -19 -44 -44 -38 -61 7 -17 -1 -28 -22 -28 -20 0 -28 9 -19 23 8 13 3 18 -14 12 -15 -5 -27 -24 -25 -42 1 -18 -5 -28 -14 -22 -10 6 -61 -22 -115 -60 -55 -39 -118 -71 -141 -71 -24 0 -43 -4 -43 -8 0 -5 -5 -23 -12 -40 -16 -41 70 -77 108 -47 14 12 86 23 159 24 l134 3 28 74 c27 69 63 100 63 53 0 -33 -63 -147 -94 -170 -24 -17 -22 -26 10 -55 38 -35 40 -33 61 54 13 49 31 95 41 101 10 6 1 -45 -19 -113 -59 -194 -51 -187 -128 -120 -81 71 -215 102 -267 61 -31 -24 -31 -24 -7 8 25 32 22 35 -28 35 -31 0 -72 15 -92 33 -46 41 -49 22 -5 -23 18 -17 28 -37 23 -42 -12 -12 -115 86 -115 109 0 56 53 121 90 110 32 -9 35 -6 16 14 -27 28 41 118 89 119 14 0 25 9 25 20 0 11 10 20 21 20 12 0 16 -9 9 -20 -7 -11 -3 -20 9 -20 11 0 21 14 21 30 0 19 25 36 62 43 34 7 66 25 72 39 7 20 20 22 48 7 30 -16 38 -14 38 10 0 17 11 29 24 26 13 -3 25 5 25 18 1 34 95 102 152 110 27 4 82 40 122 81 40 40 78 68 84 62 7 -7 18 3 25 21 7 18 23 33 35 33 13 0 56 30 96 67 40 37 89 73 109 81 32 12 33 17 7 35 -25 18 -24 19 4 10 28 -8 143 64 282 178 20 16 41 29 48 29 7 0 41 21 75 47 34 26 85 54 112 63 28 8 116 46 197 84 104 49 153 64 168 49 15 -15 7 -27 -28 -40 -58 -22 -115 -83 -78 -83 13 0 43 10 67 23 24 13 70 26 104 28 33 3 87 17 120 30 33 14 71 24 85 21 14 -2 25 4 25 14 0 9 11 18 25 18 14 1 43 8 65 17 39 16 39 15 2 -28 -38 -42 -38 -43 0 -43 77 1 103 35 53 71 -54 37 -59 102 -10 115 59 16 125 15 125 -2z m69 -333 c-22 -17 -48 -30 -59 -31 -11 -1 -56 -19 -100 -40 -44 -21 -94 -39 -111 -39 -17 -1 -42 -12 -55 -25 -13 -13 -24 -17 -24 -9 0 8 -19 4 -42 -8 -34 -18 -41 -17 -34 4 5 14 35 32 67 40 33 7 122 41 199 74 156 67 221 81 159 34z m-660 -228 c-22 -20 -194 -65 -205 -53 -5 4 35 21 89 37 116 36 142 39 116 16z m-762 -313 c-6 -16 -19 -30 -28 -30 -21 0 -155 -85 -204 -129 -19 -17 -35 -26 -35 -20 0 49 -249 -164 -270 -232 -7 -22 -22 -39 -33 -39 -13 0 -15 14 -6 35 9 19 16 55 17 80 1 25 11 42 22 37 11 -4 43 14 70 39 28 26 131 93 230 150 99 56 189 111 199 121 29 28 51 21 38 -12z m-601 -430 c-14 -51 -31 -62 -65 -41 -15 10 -21 32 -14 50 7 19 22 28 33 21 11 -7 20 -2 20 10 0 12 8 17 18 11 10 -6 14 -29 8 -51z m-149 -125 c-21 -40 -68 -46 -89 -12 -10 16 0 20 34 11 41 -10 43 -8 16 12 -23 17 -26 30 -10 46 33 33 73 -13 49 -57z m-406 -250 c-7 -50 50 -89 87 -58 24 19 27 15 17 -22 -6 -25 -3 -40 7 -34 10 6 18 2 18 -9 0 -11 18 -16 41 -12 22 4 35 0 29 -10 -6 -10 -29 -14 -52 -10 -34 7 -37 3 -17 -21 19 -23 18 -29 -9 -29 -17 0 -32 9 -32 20 0 11 -14 20 -31 20 -42 0 -84 44 -89 92 -8 67 -1 108 18 108 10 0 16 -16 13 -35z m264 -70 c-11 -32 -79 -32 -90 0 -5 16 11 25 45 25 34 0 50 -9 45 -25z"/> <path d="M4203 7790 c42 -42 197 -64 197 -28 0 32 -15 38 -103 38 -57 0 -99 -4 -94 -10z"/> <path d="M2900 7660 c39 -25 94 -25 110 0 7 12 -18 20 -64 20 -56 -1 -68 -6 -46 -20z"/> <path d="M6150 7679 c-22 -9 -31 -18 -20 -20 11 -1 -2 -9 -30 -17 l-50 -14 44 -24 c29 -16 83 -20 157 -11 83 9 105 18 81 31 -18 10 -51 13 -72 6 -28 -9 -40 -3 -40 17 0 41 -22 51 -70 32z"/> <path d="M5871 7626 c-16 -42 -18 -39 56 -84 83 -51 133 -54 133 -7 0 65 -168 146 -189 91z"/> <path d="M5880 7446 c0 -57 257 -67 275 -11 5 14 -6 25 -25 25 -19 0 -27 -9 -18 -23 10 -17 -4 -20 -49 -10 -35 7 -90 19 -123 26 -34 7 -60 4 -60 -7z"/> <path d="M4160 7595 c69 -21 69 -21 20 -38 -33 -10 -12 -12 60 -5 60 6 113 14 117 18 14 15 -20 50 -49 50 -17 0 -25 -9 -18 -20 7 -11 -2 -20 -19 -20 -17 0 -31 9 -31 20 0 11 -34 19 -75 18 l-75 -2 70 -21z"/> <path d="M1045 7580 c-34 -54 -31 -100 5 -100 36 0 41 -40 5 -41 -14 0 -2 -13 25 -29 78 -45 254 -39 279 9 25 46 -23 106 -70 88 -19 -7 -28 -2 -25 14 3 14 -21 35 -54 45 -33 10 -76 27 -95 36 -45 23 -41 24 -70 -22z m186 -41 c16 -26 12 -30 -43 -47 -28 -8 -59 1 -90 27 l-48 40 84 0 c46 1 90 -9 97 -20z"/> <path d="M1472 7568 c-34 -90 22 -168 121 -168 4 0 6 38 4 85 -1 54 -6 67 -11 35 -21 -114 -54 -93 -49 30 1 24 -10 12 -28 -30 l-29 -70 9 75 c9 80 3 95 -17 43z"/> <path d="M1657 7470 c-12 -85 -9 -98 17 -87 9 4 11 43 5 87 l-11 80 -11 -80z"/> <path d="M1747 7450 c-18 -60 -17 -75 6 -84 38 -15 40 -9 28 81 l-11 76 -23 -73z"/> <path d="M1860 7445 c0 -34 -11 -66 -25 -72 -14 -5 -1 -11 29 -11 52 -2 53 0 32 63 -30 89 -36 92 -36 20z"/> <path d="M1955 7411 c-5 -30 1 -53 18 -59 18 -7 27 5 27 37 0 66 -33 82 -45 22z"/> <path d="M2000 7258 c-388 -26 -399 -33 -40 -27 182 4 335 8 340 10 6 2 29 2 53 0 24 -2 49 6 56 18 15 24 -32 24 -409 -1z"/> <path d="M1351 7202 c11 -11 70 -12 139 -3 l120 16 -139 2 c-84 2 -132 -4 -120 -15z"/> <path d="M692 7043 c-16 -25 3 -35 73 -39 30 -2 55 5 55 16 0 11 -13 20 -28 20 -16 0 -42 5 -58 11 -17 7 -36 3 -42 -8z"/> <path d="M970 6950 c7 -33 25 -73 41 -89 48 -49 45 -15 -6 69 -45 75 -47 76 -35 20z"/> <path d="M961 6019 c-1 -34 21 -72 63 -110 36 -33 53 -44 39 -26 -13 18 -18 37 -9 42 9 5 4 6 -10 2 -14 -3 -30 9 -36 28 -31 98 -45 117 -47 64z"/> <path d="M452 5493 c-167 -45 -202 -75 -132 -113 40 -21 147 0 356 71 19 6 20 18 4 49 -26 48 -28 48 -228 -7z m157 -12 c11 -17 -29 -32 -194 -72 -110 -27 -53 27 60 57 63 16 117 31 119 32 2 1 9 -7 15 -17z"/> <path d="M5900 5480 c0 -22 -10 -40 -22 -40 -12 0 -17 14 -11 30 7 18 0 30 -16 30 -17 0 -24 -14 -17 -39 7 -27 27 -38 69 -37 33 1 51 8 41 14 -10 7 -16 28 -13 47 3 19 -3 35 -13 35 -10 0 -18 -18 -18 -40z"/> <path d="M5700 5478 c0 -12 -13 -17 -30 -11 -19 8 -31 -1 -31 -23 -2 -28 -4 -29 -15 -4 -16 35 -84 46 -84 13 1 -32 39 -90 40 -59 0 17 24 21 80 14 55 -8 80 -4 80 13 0 18 7 18 28 0 32 -26 58 0 42 43 -13 33 -110 45 -110 14z"/> <path d="M5311 5441 c-6 -10 -33 -14 -59 -10 -40 8 -47 2 -38 -31 9 -32 17 -36 38 -18 22 18 28 16 29 -5 1 -15 10 -9 19 13 15 34 17 35 19 5 0 -20 16 -34 36 -33 21 1 25 5 10 11 -14 6 -20 19 -14 29 6 10 0 18 -15 18 -19 1 -18 6 4 20 18 12 20 20 6 20 -13 0 -29 -8 -35 -19z"/> <path d="M5391 5415 c19 -61 24 -64 55 -38 15 12 35 16 44 8 9 -8 10 -4 2 10 -8 14 -5 25 7 25 11 0 21 -10 21 -23 0 -13 5 -19 10 -13 6 6 6 24 0 40 -14 36 -70 39 -70 3 0 -15 -13 -21 -30 -14 -16 6 -25 19 -19 29 6 10 1 18 -11 18 -14 0 -18 -17 -9 -45z"/> <path d="M5054 5411 c-34 -26 -33 -30 16 -79 62 -63 69 -64 56 -12 -8 29 -1 40 25 40 33 0 33 2 -1 40 -42 47 -48 48 -96 11z"/> <path d="M505 5375 c-141 -39 -185 -81 -115 -108 26 -10 333 61 376 87 28 17 -29 66 -73 64 -24 -2 -108 -21 -188 -43z m195 -4 c0 -10 -206 -71 -242 -71 -44 0 7 35 82 57 75 21 160 29 160 14z"/> <path d="M710 5300 c-38 -16 -38 -17 5 -19 25 0 45 -10 45 -21 0 -25 -72 -26 -118 -1 -72 39 -233 -27 -211 -86 19 -48 95 -44 80 5 -14 44 61 73 103 39 27 -23 148 -8 212 26 81 44 -26 96 -116 57z"/> <path d="M4284 5196 c-33 -33 -30 -86 7 -117 23 -19 36 -20 54 -2 17 17 15 23 -11 23 -21 0 -34 16 -34 40 0 22 13 40 30 40 17 0 30 9 30 20 0 28 -47 25 -76 -4z"/> <path d="M4388 5197 c-8 -13 1 -34 19 -47 42 -31 42 -45 -2 -56 -26 -7 -24 -10 10 -12 49 -2 66 66 20 85 -19 7 -18 15 5 31 26 19 26 21 -4 22 -18 0 -40 -10 -48 -23z"/> <path d="M4034 5184 c-25 -5 -33 -26 -32 -80 3 -71 3 -71 15 -16 19 85 62 91 65 9 l3 -67 12 58 c17 78 58 89 69 18 7 -47 8 -44 11 18 3 78 -12 84 -143 60z"/> <path d="M4200 5130 c0 -38 9 -70 20 -70 11 0 20 32 20 70 0 39 -9 70 -20 70 -11 0 -20 -31 -20 -70z"/> <path d="M3125 5165 c-14 -4 -35 -27 -47 -49 -16 -30 -16 -37 0 -27 12 7 22 3 22 -9 0 -12 10 -16 22 -9 16 10 14 19 -4 30 -36 22 28 49 74 31 17 -7 50 1 72 17 42 29 -67 42 -139 16z"/> <path d="M3380 5080 c0 -111 30 -129 116 -69 84 59 45 169 -60 169 -54 0 -56 -4 -56 -100z m116 5 c-9 -82 -76 -87 -76 -6 0 48 9 61 41 61 34 0 40 -11 35 -55z"/> <path d="M3871 5161 c-8 -12 3 -22 23 -22 29 -1 27 -5 -9 -20 -80 -32 -52 -107 33 -85 36 9 43 23 38 73 -6 63 -59 97 -85 54z"/> <path d="M3637 5105 l-21 -55 -18 48 c-11 26 -24 42 -31 36 -7 -7 -1 -40 13 -73 20 -49 20 -67 0 -91 -17 -20 -18 -30 -3 -30 12 0 34 25 50 55 32 65 59 165 43 165 -6 0 -21 -25 -33 -55z"/> <path d="M3700 5087 c0 -37 9 -67 20 -67 11 0 20 27 20 60 0 79 34 77 58 -5 l20 -65 -4 70 c-6 104 -114 111 -114 7z"/> <path d="M2841 5087 c-35 -41 -38 -50 -12 -40 19 7 38 13 43 13 4 0 8 15 8 32 0 24 13 30 50 23 28 -5 50 -2 50 8 0 38 -96 13 -139 -36z"/> <path d="M766 4932 c-75 -28 -104 -51 -64 -53 15 -1 48 -6 73 -10 25 -5 45 0 45 11 0 11 17 20 38 20 20 0 47 12 59 26 28 34 -63 38 -151 6z"/> <path d="M589 4845 c23 -114 42 -165 94 -250 31 -53 57 -103 57 -112 0 -10 46 -104 102 -210 175 -334 144 -209 -43 171 -98 200 -179 380 -179 400 0 20 -8 36 -19 36 -10 0 -16 -16 -12 -35z"/> <path d="M540 4728 c0 -24 185 -369 194 -361 10 10 -169 373 -184 373 -6 0 -10 -5 -10 -12z"/> <path d="M1995 5856 c24 -12 49 -38 56 -59 13 -43 41 -49 56 -12 5 14 11 4 11 -22 2 -41 7 -44 33 -22 25 20 26 29 5 42 -18 12 -13 16 17 17 23 0 63 17 89 37 l46 38 -103 2 c-84 2 -101 -3 -92 -27 6 -17 1 -30 -11 -30 -12 0 -22 14 -22 30 0 21 -20 30 -65 29 -61 -2 -62 -3 -20 -23z"/> <path d="M6202 6153 c-14 -25 -62 -70 -108 -100 -83 -54 -88 -72 -8 -30 65 34 192 152 179 165 -21 22 -38 12 -63 -35z"/> <path d="M3060 5762 c0 -28 61 -44 108 -29 41 13 41 13 2 29 -55 21 -110 22 -110 0z"/> <path d="M3130 5699 c-44 -9 -94 -12 -112 -7 -18 5 -44 -5 -58 -22 -21 -26 -15 -30 48 -30 39 0 72 7 72 15 0 8 58 12 130 8 123 -6 172 16 98 45 -38 14 -72 13 -178 -9z"/> <path d="M3569 5622 c6 -10 4 -22 -4 -27 -8 -5 -1 -4 15 1 17 5 57 16 90 24 56 15 54 16 -26 18 -48 1 -81 -6 -75 -16z"/> <path d="M4991 6435 c-36 -116 -27 -259 15 -247 24 6 70 12 101 12 36 0 53 9 48 25 -5 15 -34 22 -70 19 l-62 -7 11 112 c11 102 -19 162 -43 86z"/> <path d="M4751 6415 c-4 -14 -13 -77 -20 -140 l-11 -116 85 13 c112 17 121 28 129 158 l6 110 -90 0 c-56 0 -94 -10 -99 -25z m139 -45 c0 -11 -20 -23 -45 -26 -31 -5 -45 3 -45 26 0 23 14 31 45 26 25 -3 45 -15 45 -26z m-14 -105 c-8 -43 -96 -61 -96 -20 0 39 20 55 65 55 25 0 36 -12 31 -35z"/> <path d="M3680 6379 c0 -25 -16 -57 -35 -72 -32 -24 -32 -26 -1 -15 61 21 -5 -84 -78 -123 -37 -19 -66 -43 -66 -52 0 -26 24 -20 95 23 81 49 131 50 206 6 32 -19 63 -28 70 -21 16 16 -23 87 -45 79 -9 -3 -19 18 -22 46 -4 28 -14 46 -23 40 -10 -5 -13 -30 -7 -55 8 -36 3 -34 -22 12 -41 73 -41 133 -1 133 17 0 26 -8 20 -19 -6 -10 -1 -25 12 -33 15 -9 18 -5 7 12 -10 17 -6 22 12 15 16 -5 26 -31 23 -57 -4 -38 -1 -42 15 -18 16 25 19 23 20 -10 0 -22 7 -51 16 -64 8 -13 15 11 15 54 0 43 -7 67 -15 54 -12 -18 -15 -18 -16 1 0 27 -67 74 -135 94 -37 11 -45 6 -45 -30z"/> <path d="M4489 6289 c-8 -72 -9 -136 -3 -142 22 -22 54 16 54 64 0 36 11 49 40 49 29 0 40 -13 40 -50 0 -32 11 -50 32 -50 23 0 30 17 27 65 -3 36 2 81 10 100 28 65 -2 95 -97 95 l-89 0 -14 -131z m147 56 c-8 -43 -96 -61 -96 -20 0 39 20 55 65 55 25 0 36 -12 31 -35z"/> <path d="M4131 6375 c-4 -14 -19 -61 -34 -105 l-25 -80 -18 95 c-29 153 -87 133 -105 -36 -8 -72 -9 -136 -3 -142 27 -26 54 22 56 99 2 46 6 66 11 44 5 -22 13 -60 18 -85 17 -77 63 -51 89 50 23 89 25 92 43 45 13 -33 12 -52 -2 -56 -33 -11 -25 -84 9 -84 22 0 30 22 30 78 0 42 6 105 13 140 12 64 -63 99 -82 37z"/> <path d="M4340 6377 c0 -12 -12 -33 -26 -45 -37 -30 -103 -189 -87 -206 7 -7 32 7 54 30 47 51 90 57 106 14 7 -16 26 -30 45 -30 18 0 28 11 23 25 -5 14 -21 72 -36 130 -23 91 -79 149 -79 82z"/> <path d="M3710 6100 c-7 -11 -33 -15 -59 -8 -26 6 -51 4 -57 -5 -13 -22 88 -21 122 0 15 9 38 6 55 -8 17 -14 29 -16 29 -4 0 12 -14 26 -32 33 -41 16 -43 15 -58 -8z"/> <path d="M1708 5728 c-45 -19 -1 -138 53 -143 77 -8 105 21 90 93 -14 61 -69 80 -143 50z m108 -95 c4 -19 -6 -33 -23 -33 -38 0 -60 33 -42 61 18 29 58 13 65 -28z"/> <path d="M5730 5160 l-31 -60 81 0 c75 0 120 42 120 111 0 44 -143 1 -170 -51z"/> <path d="M5556 5175 c-49 -38 -70 -125 -27 -108 19 7 51 13 72 13 22 0 51 25 69 60 35 67 -43 91 -114 35z"/> <path d="M5270 5162 c-137 -14 -161 -25 -176 -82 -14 -55 -6 -57 175 -37 171 19 179 23 200 92 15 50 22 49 -199 27z"/> <path d="M5960 5048 c-70 -28 -70 -28 50 -17 66 6 128 19 139 30 30 30 -108 20 -189 -13z"/> <path d="M4720 4943 c0 -13 -18 -23 -40 -23 -22 0 -40 -10 -40 -22 0 -22 156 -12 330 22 71 14 73 16 20 18 -33 1 -107 8 -165 15 -73 9 -105 6 -105 -10z"/> <path d="M5267 4885 c-40 -27 -56 -185 -19 -185 27 0 30 15 20 80 -16 100 22 109 41 10 18 -98 84 -98 102 -1 7 38 8 81 3 95 -6 14 -12 7 -12 -17 -1 -23 -16 -48 -33 -55 -24 -9 -30 -1 -25 33 6 46 -35 68 -77 40z"/> <path d="M4914 4848 c-22 -22 -17 -88 7 -88 12 0 15 11 6 25 -11 20 -8 19 17 0 17 -14 44 -21 60 -14 26 9 86 19 171 27 29 2 34 62 5 62 -11 0 -20 -9 -20 -21 0 -14 -13 -14 -40 1 -22 12 -40 13 -40 3 0 -9 -22 -15 -50 -12 -27 3 -50 -4 -50 -17 0 -12 -11 -6 -26 13 -14 20 -32 29 -40 21z"/> <path d="M4555 4735 c-54 -102 -50 -134 18 -135 20 0 60 213 43 230 -3 4 -31 -39 -61 -95z"/> <path d="M5158 4753 c-4 -5 -69 -13 -143 -19 -74 -7 -144 -17 -155 -24 -11 -7 -20 -3 -20 10 0 15 -11 15 -37 1 -21 -11 -44 -14 -51 -7 -7 7 -25 -4 -41 -25 -28 -37 -28 -37 -17 9 8 31 5 44 -8 35 -66 -40 -41 -89 46 -88 47 1 83 7 79 13 -4 7 26 13 66 15 120 6 163 15 163 34 0 10 14 7 30 -7 24 -20 30 -20 30 1 0 16 11 11 29 -12 28 -39 28 -38 43 1 8 22 18 47 22 55 8 15 -20 21 -36 8z"/> <path d="M5934 4727 c-3 -3 -104 -15 -225 -27 -120 -12 -228 -32 -239 -43 -19 -20 79 -16 250 10 28 5 115 15 195 23 150 15 220 48 94 44 -39 -1 -72 -4 -75 -7z"/> <path d="M4900 4599 c-42 -13 -37 -15 30 -16 44 0 98 7 120 16 53 21 -78 21 -150 0z"/> <path d="M3000 4235 c0 -8 -27 -15 -60 -15 -33 0 -60 -9 -60 -21 0 -12 31 -16 75 -11 41 5 103 10 136 11 34 0 79 14 100 30 36 27 29 29 -76 25 -63 -2 -115 -11 -115 -19z"/> <path d="M2134 4346 c6 -14 22 -26 36 -26 14 0 30 -19 36 -42 9 -34 4 -40 -27 -32 -22 6 -39 3 -39 -6 0 -20 77 -41 88 -23 24 40 -20 153 -61 154 -28 1 -39 -8 -33 -25z"/> <path d="M1966 4339 c-124 -48 -131 -160 -22 -317 31 -44 133 -5 104 41 -6 11 7 25 30 31 23 6 37 19 30 29 -6 10 -21 12 -32 4 -14 -8 -16 -4 -7 11 8 14 32 18 58 10 39 -12 38 -8 -12 46 -30 32 -55 67 -55 78 0 49 -50 84 -94 67z"/> <path d="M2225 4187 c-31 -13 -33 -87 -3 -87 15 0 18 -24 10 -67 -12 -61 -7 -70 46 -92 38 -16 55 -35 49 -53 -8 -20 4 -28 41 -28 50 0 52 4 52 114 0 157 -90 255 -195 213z"/> <path d="M2100 4007 c0 -20 -10 -50 -22 -67 -18 -25 -20 -25 -11 5 8 23 1 35 -18 35 -16 0 -29 -10 -29 -21 0 -12 -9 -16 -19 -9 -11 6 -10 -15 2 -51 14 -40 28 -54 37 -39 11 17 24 11 45 -19 29 -41 95 -17 95 34 0 6 -6 6 -13 -1 -7 -8 -25 2 -39 21 -42 55 -32 75 15 33 27 -23 37 -26 26 -8 -10 16 -18 47 -18 68 -1 50 -51 67 -51 19z"/> <path d="M2226 3807 c-13 -5 -19 -25 -13 -43 9 -30 7 -30 -12 1 -33 50 -75 43 -86 -14 -5 -28 -2 -45 7 -40 8 5 21 1 28 -11 7 -11 2 -20 -10 -20 -22 0 33 -118 67 -143 47 -34 200 63 180 114 -6 15 -27 33 -47 39 -20 6 -46 38 -57 71 -12 32 -24 58 -27 57 -3 0 -17 -6 -30 -11z"/> <path d="M2060 1628 l-50 -27 50 -1 50 -1 -47 -40 c-61 -51 -30 -50 47 1 49 32 53 40 21 40 -30 0 -33 6 -16 23 18 18 37 18 78 -1 48 -22 51 -21 28 7 -31 37 -93 37 -161 -1z"/> <path d="M1951 1588 c-21 -15 -27 -28 -14 -28 14 0 20 -9 13 -20 -7 -12 10 -10 39 3 29 13 45 29 37 36 -9 6 -21 17 -26 25 -6 7 -28 0 -49 -16z"/> <path d="M1807 1574 c-6 -9 -23 -12 -38 -6 -18 6 -23 0 -16 -20 10 -24 17 -24 43 -4 27 22 29 20 17 -14 -13 -34 -9 -33 36 9 28 26 51 49 51 50 0 12 -86 -2 -93 -15z"/> <path d="M1637 1505 c-45 -50 -125 -114 -137 -109 -5 2 -35 -15 -67 -38 -86 -63 -45 -72 45 -9 44 30 89 49 99 43 11 -7 34 7 52 32 17 25 31 37 31 27 0 -10 14 -1 31 20 18 22 26 28 19 14 -8 -16 -1 -20 20 -12 28 10 27 15 -4 39 -47 35 -51 34 -89 -7z"/> <path d="M7143 4640 c-15 -34 -71 -109 -124 -168 l-98 -106 51 -23 c119 -55 200 -13 325 170 54 79 -17 187 -123 187 -2 0 -16 -27 -31 -60z m95 -104 c-43 -81 -164 -199 -179 -174 -20 31 140 237 174 224 20 -8 21 -20 5 -50z"/> <path d="M7371 4549 c-17 -18 -31 -39 -31 -49 0 -9 -45 -67 -101 -127 l-101 -111 62 -32 c34 -18 79 -27 100 -20 57 18 206 205 192 241 -6 18 -3 26 8 19 41 -26 18 49 -24 79 -56 39 -66 39 -105 0z m43 -133 c-77 -112 -128 -162 -152 -147 -19 11 -10 32 34 78 32 35 70 84 83 110 17 33 31 41 46 26 15 -15 12 -35 -11 -67z"/> <path d="M7549 4431 c-39 -59 -17 -117 23 -62 14 19 36 29 48 21 38 -24 -34 -86 -88 -75 -35 6 -71 -12 -131 -67 l-84 -76 70 -36 c67 -34 133 -32 133 5 0 9 -18 22 -40 29 -80 25 -30 81 65 74 121 -10 210 176 104 216 -68 26 -63 27 -100 -29z"/> <path d="M6120 4342 c0 -10 14 -23 31 -30 17 -6 26 -21 19 -32 -7 -11 1 -20 17 -20 16 0 46 -5 66 -11 21 -6 13 2 -16 19 -29 17 -58 45 -64 61 -13 33 -53 43 -53 13z"/> <path d="M6340 4243 c0 -27 92 -104 106 -90 8 8 14 -3 14 -24 0 -27 6 -31 22 -15 29 29 -37 132 -76 117 -15 -6 -23 -2 -16 9 7 11 -2 20 -19 20 -17 0 -31 -7 -31 -17z"/> <path d="M6620 4150 c0 -16 10 -30 21 -30 12 0 8 -14 -10 -32 -41 -41 -21 -71 38 -57 31 8 49 2 58 -20 6 -17 25 -31 41 -31 16 0 33 -11 39 -25 6 -15 10 -11 11 10 1 19 -8 35 -19 35 -32 0 -79 53 -63 71 8 8 -2 10 -21 3 -19 -7 -35 -6 -35 3 0 9 34 25 75 37 l75 21 -70 5 c-38 3 -77 4 -85 2 -8 -1 -15 7 -15 18 0 11 -9 20 -20 20 -11 0 -20 -13 -20 -30z"/> <path d="M6840 4134 c0 -19 -13 -34 -30 -34 -16 0 -30 -10 -30 -22 0 -12 14 -17 30 -11 17 7 30 2 30 -9 0 -11 8 -15 18 -9 10 6 24 0 30 -14 7 -14 7 2 1 35 -14 70 -49 116 -49 64z"/> <path d="M6320 4045 c1 -27 4 -29 18 -8 12 20 21 11 31 -30 30 -116 33 -167 10 -209 -21 -38 -19 -42 10 -31 19 7 41 13 49 13 127 0 107 233 -24 279 -82 29 -94 27 -94 -14z"/> <path d="M6528 4005 c75 -163 74 -161 62 -67 -13 103 -23 122 -60 122 -22 0 -23 -10 -2 -55z"/> <path d="M6622 3890 c3 -153 32 -262 38 -140 4 72 6 75 21 30 13 -36 14 -26 6 37 -21 163 -67 215 -65 73z"/> <path d="M8240 3968 c0 -20 24 -27 80 -25 44 2 80 13 80 24 0 11 -5 15 -11 9 -6 -6 -42 -4 -80 4 -53 12 -69 9 -69 -12z"/> <path d="M8620 3851 c0 -18 -12 -25 -30 -18 -19 7 -30 0 -30 -20 0 -20 -11 -27 -30 -20 -21 8 -27 2 -19 -18 12 -31 145 -80 172 -63 10 6 23 -4 29 -21 14 -35 68 -43 68 -10 0 12 9 16 20 9 10 -6 4 15 -15 49 -19 33 -46 61 -60 61 -14 0 -25 9 -25 19 0 11 -18 29 -40 41 -32 17 -40 15 -40 -9z"/> <path d="M8129 3258 c-8 -12 -2 -30 13 -40 43 -27 58 -21 58 22 0 43 -49 55 -71 18z"/> <path d="M7960 3180 c0 -11 -12 -20 -28 -20 -38 0 -80 -53 -52 -67 11 -5 10 -7 -4 -4 -15 3 -25 20 -23 39 2 26 -3 29 -25 10 -20 -16 -22 -31 -8 -48 14 -17 6 -30 -30 -46 -53 -24 -71 -71 -20 -51 17 6 30 19 30 29 0 10 15 18 32 18 27 0 28 -5 8 -30 -20 -24 -19 -30 6 -30 41 0 56 27 58 101 2 49 9 58 39 48 22 -7 37 -2 37 12 0 13 14 18 33 11 27 -11 29 -8 7 18 -28 34 -60 40 -60 10z"/> <path d="M6911 1835 c-31 -72 -24 -99 20 -82 17 7 29 38 29 79 0 85 -14 86 -49 3z"/> <path d="M6973 1750 c-20 -52 -16 -70 17 -70 33 0 39 35 12 77 -13 21 -19 20 -29 -7z"/> <path d="M6820 1580 c-16 -11 -51 -20 -77 -20 -28 0 -43 -10 -38 -25 5 -14 22 -25 39 -25 17 0 46 -13 64 -29 28 -23 33 -23 28 -1 -3 15 11 31 32 36 28 6 35 0 26 -24 -7 -18 -4 -32 7 -32 10 0 19 7 19 17 0 9 22 28 50 43 38 20 44 33 27 53 -25 31 -133 35 -177 7z"/> </g> </svg> 