<?xml version="1.0" encoding="UTF-8" standalone="no"?>
<svg
   sodipodi:docname="ugv (copy).svg"
   id="svg76"
   preserveAspectRatio="xMidYMid meet"
   viewBox="0 0 300.000000 291.000000"
   height="291.000000pt"
   width="300.000000pt"
   version="1.0"
   inkscape:version="1.2.2 (732a01da63, 2022-12-09, custom)"
   xmlns:inkscape="http://www.inkscape.org/namespaces/inkscape"
   xmlns:sodipodi="http://sodipodi.sourceforge.net/DTD/sodipodi-0.dtd"
   xmlns="http://www.w3.org/2000/svg"
   xmlns:svg="http://www.w3.org/2000/svg">
  <defs
     id="defs80">
    <filter
       style="color-interpolation-filters:sRGB;"
       inkscape:label="Colorize"
       id="filter2692"
       x="0"
       y="0"
       width="1"
       height="1">
      <feComposite
         in2="SourceGraphic"
         operator="arithmetic"
         k1="0"
         k2="1"
         result="composite1"
         id="feComposite2678" />
      <feColorMatrix
         in="composite1"
         values="1"
         type="saturate"
         result="colormatrix1"
         id="feColorMatrix2680" />
      <feFlood
         flood-opacity="1"
         flood-color="rgb(0,158,47)"
         result="flood1"
         id="feFlood2682" />
      <feBlend
         in="flood1"
         in2="colormatrix1"
         mode="multiply"
         result="blend1"
         id="feBlend2684" />
      <feBlend
         in2="blend1"
         mode="screen"
         result="blend2"
         id="feBlend2686" />
      <feColorMatrix
         in="blend2"
         values="1"
         type="saturate"
         result="colormatrix2"
         id="feColorMatrix2688" />
      <feComposite
         in="colormatrix2"
         in2="SourceGraphic"
         operator="in"
         k2="1"
         result="composite2"
         id="feComposite2690" />
    </filter>
  </defs>
  <sodipodi:namedview
     id="namedview78"
     pagecolor="#ffffff"
     bordercolor="#000000"
     borderopacity="0.25"
     inkscape:showpageshadow="2"
     inkscape:pageopacity="0.0"
     inkscape:pagecheckerboard="0"
     inkscape:deskcolor="#d1d1d1"
     inkscape:document-units="pt"
     showgrid="false"
     inkscape:zoom="1.0666314"
     inkscape:cx="241.883"
     inkscape:cy="220.78855"
     inkscape:window-width="1280"
     inkscape:window-height="656"
     inkscape:window-x="0"
     inkscape:window-y="27"
     inkscape:window-maximized="1"
     inkscape:current-layer="svg76" />
  <metadata
     id="metadata18">
Created by potrace 1.10, written by Peter Selinger 2001-2011
</metadata>
  <g
     transform="translate(0.000000,291.000000) scale(0.100000,-0.100000)"
     fill="#000000"
     stroke="none"
     id="g74"
     style="filter:url(#filter2692);fill:#46c7c9">
    <path
       d="M612 2854 c-58 -33 -64 -39 -60 -65 3 -17 -1 -30 -9 -33 -7 -3 -13 -19 -13 -35 0 -31 -8 -36 -202 -138 -85 -44 -88 -52 -88 -239 0 -134 3 -165 16 -178 8 -9 22 -16 30 -16 8 0 14 -10 14 -22 1 -13 38 -111 84 -218 l83 -195 46 -10 45 -10 -14 -34 c-8 -18 -14 -59 -14 -90 l-1 -56 -64 -55 c-63 -55 -77 -84 -53 -108 7 -7 20 -12 30 -12 13 0 18 -8 18 -25 0 -14 6 -25 13 -25 9 0 11 -31 9 -132 l-3 -133 -37 -27 c-20 -14 -72 -58 -114 -98 l-78 -72 0 -54 c0 -30 3 -54 7 -54 14 0 379 -61 397 -66 38 -12 -3 -25 -95 -31 -137 -9 -139 -10 -139 -85 0 -60 2 -64 37 -94 l36 -31 -16 -42 c-21 -52 -22 -101 -2 -149 23 -53 51 -79 128 -118 105 -53 198 -43 264 28 38 40 65 115 61 167 -3 41 1 52 30 89 31 39 33 46 28 94 -9 78 -13 86 -59 110 l-42 22 80 7 c165 15 322 30 365 35 45 5 46 5 59 -31 7 -19 24 -43 38 -52 30 -20 139 -42 207 -43 43 0 52 4 88 40 39 38 71 56 95 52 6 -2 29 7 50 19 l38 21 257 -43 256 -43 6 -28 c3 -16 17 -39 31 -52 14 -13 25 -29 25 -35 0 -23 30 -71 52 -82 30 -16 152 -39 205 -39 137 0 216 265 113 378 -17 20 -39 32 -54 32 -13 0 -33 3 -43 7 -10 3 -15 3 -11 -1 4 -4 -8 -21 -27 -37 -54 -48 -79 -111 -79 -204 -1 -65 3 -87 21 -117 25 -43 25 -43 -53 -23 -68 18 -82 28 -105 80 -38 83 -14 212 52 279 38 37 41 39 92 33 28 -3 60 -8 70 -12 10 -4 17 -3 17 4 0 6 -13 11 -30 11 l-29 0 6 83 c3 45 7 83 8 85 2 2 59 18 127 35 l123 32 3 52 c4 60 13 55 -143 79 -163 26 -154 13 -155 232 0 155 2 182 15 182 9 0 15 9 15 21 0 12 8 23 20 26 11 3 20 9 20 14 0 5 9 9 20 9 14 0 20 7 20 24 0 25 -16 36 -56 36 l-24 0 0 209 c0 158 -3 211 -12 214 -10 4 -10 6 0 6 7 1 12 15 12 35 0 39 44 27 -342 92 l-227 39 -3 69 c-2 49 -7 71 -18 76 -8 4 -25 12 -38 19 -23 12 -389 77 -447 80 -17 0 -68 -10 -113 -23 -52 -15 -82 -20 -85 -13 -2 6 -29 11 -60 11 l-57 1 0 43 c0 52 -24 97 -59 111 -26 10 -85 19 -171 26 -25 2 -74 7 -110 11 -36 4 -75 8 -87 8 -21 1 -23 6 -24 66 -1 36 0 77 1 91 1 24 -3 27 -46 33 -82 11 -108 6 -172 -30z m158 1 c0 -2 -18 -14 -40 -25 -30 -16 -40 -26 -40 -45 0 -27 15 -34 23 -10 4 8 24 23 47 35 l40 20 0 -45 c0 -36 -3 -45 -17 -45 -14 0 -13 -3 5 -16 13 -9 21 -22 18 -29 -3 -9 6 -16 25 -20 16 -4 27 -11 23 -16 -7 -12 -54 -12 -54 1 0 5 -8 14 -19 19 -16 9 -17 7 -13 -17 4 -23 6 -24 12 -7 6 17 7 18 13 1 6 -15 14 -17 40 -11 47 10 124 13 191 6 l59 -6 -89 -50 c-79 -44 -95 -50 -144 -48 -54 1 -55 1 -10 -5 28 -5 40 -10 33 -15 -22 -14 -14 -27 15 -26 15 0 21 3 15 6 -18 7 -16 23 2 23 8 0 15 -8 15 -17 0 -15 2 -16 10 -3 6 9 5 17 -3 22 -15 9 -16 8 89 62 118 59 158 61 204 10 29 -34 30 -37 13 -50 -17 -13 -17 -13 0 -14 15 0 24 -29 18 -62 0 -5 18 -8 41 -8 43 -1 43 -1 18 -16 -18 -11 -19 -13 -5 -9 45 14 73 16 79 6 4 -6 0 -14 -8 -17 -22 -9 -20 -21 6 -27 21 -6 21 -8 14 -168 -4 -90 -11 -168 -16 -174 -6 -7 -8 -14 -6 -16 2 -2 -31 -78 -74 -169 -76 -161 -79 -166 -126 -192 -27 -14 -52 -24 -56 -22 -5 3 -8 0 -8 -7 0 -6 8 -9 20 -6 13 3 18 1 13 -6 -4 -6 -6 -53 -4 -104 2 -77 0 -94 -13 -99 -9 -3 -16 -14 -16 -24 0 -11 -4 -22 -10 -25 -6 -3 -11 36 -13 102 l-3 108 -2 -111 -2 -111 -107 -10 c-60 -6 -115 -13 -123 -14 -11 -3 -16 8 -19 46 l-5 50 -5 -49 c-5 -37 -10 -50 -24 -52 -18 -2 -24 13 -30 81 -3 31 -4 27 -5 -17 l-2 -58 -47 6 c-27 3 -60 9 -74 14 -14 4 -38 6 -52 3 l-27 -5 0 122 c0 111 2 121 17 117 42 -12 154 -29 159 -25 2 3 -31 11 -73 18 -76 13 -93 21 -93 48 0 10 11 12 43 8 l42 -6 -34 13 c-38 15 -40 18 -66 97 -10 30 -40 100 -67 155 -28 55 -56 116 -63 135 -8 19 -14 28 -14 19 -1 -8 19 -57 44 -109 43 -87 46 -97 43 -164 -3 -83 6 -97 -98 144 -39 91 -74 171 -77 178 -3 8 4 12 23 12 33 0 49 -9 57 -30 4 -12 6 -12 6 2 1 9 11 18 24 20 12 2 -8 7 -45 12 -75 8 -115 35 -57 37 26 1 28 3 9 6 -72 11 -71 10 -68 61 2 26 8 46 13 46 6 -1 53 -4 105 -7 87 -5 90 -5 30 4 -36 5 -84 12 -107 15 l-43 5 0 75 c0 70 1 74 23 74 12 0 152 -14 311 -30 284 -29 343 -34 335 -26 -4 4 -172 23 -469 52 -195 19 -200 20 -200 44 0 21 46 50 78 50 11 0 22 7 26 15 4 11 23 15 73 17 56 1 60 2 21 5 -27 2 -48 8 -48 12 0 14 102 56 131 53 19 -2 29 1 29 10 0 10 3 9 10 -2 7 -11 10 -5 10 24 0 27 6 44 22 57 17 16 18 19 5 19 -10 0 -17 -4 -17 -10 0 -5 -5 -10 -11 -10 -5 0 -8 4 -5 9 4 5 1 11 -5 13 -7 2 -9 13 -5 26 6 16 16 22 39 23 21 1 25 3 12 6 -16 5 -14 8 15 24 31 16 120 27 120 14z m9 -19 c-23 -23 -79 -53 -79 -43 0 8 15 21 33 30 31 15 55 22 46 13z m-189 -122 c0 -30 -25 -61 -33 -41 -3 7 -3 25 0 40 7 35 33 36 33 1z m1005 -224 c-3 -5 3 -10 14 -10 10 0 21 -5 23 -11 2 -6 14 -8 31 -4 15 4 24 12 20 18 -4 7 0 8 11 4 10 -4 24 -7 32 -7 7 0 11 -6 8 -14 -7 -19 27 -26 46 -10 16 13 110 8 110 -7 0 -4 -16 -5 -35 -2 -23 4 -35 2 -35 -6 0 -6 -13 -11 -28 -11 -15 0 -32 -4 -37 -9 -6 -5 -19 -11 -30 -14 -13 -3 -8 -5 13 -6 23 -1 31 3 26 11 -5 8 4 9 34 5 24 -4 43 -3 47 3 4 6 -1 7 -12 3 -15 -5 -16 -4 -5 8 9 10 17 11 30 3 18 -12 62 -9 72 4 3 4 21 5 40 2 32 -5 25 -8 -67 -34 l-102 -29 -136 22 c-75 13 -139 21 -141 18 -2 -2 44 -12 103 -21 123 -20 147 -25 139 -33 -3 -4 2 -12 12 -19 36 -27 -21 -27 -177 0 -86 14 -162 26 -170 26 -38 0 9 -11 162 -36 l167 -28 0 -98 c0 -98 0 -98 -25 -98 -25 0 -25 1 -25 80 0 90 12 78 -103 100 -32 7 -70 18 -85 26 -18 9 -41 12 -69 8 l-43 -6 0 33 c0 19 -3 51 -6 72 -6 34 -5 37 17 38 13 0 49 8 79 19 62 20 104 25 95 10z m461 -84 c10 -8 16 -18 12 -21 -15 -15 -214 -65 -238 -60 -21 4 -22 4 -7 -5 14 -9 17 -26 17 -110 l0 -100 -35 0 -35 0 0 96 c0 94 1 97 32 133 25 29 47 40 107 58 92 26 121 27 147 9z m-26 -60 c-8 -8 -46 -24 -85 -36 -38 -11 -55 -18 -37 -15 27 4 32 1 32 -15 0 -16 -6 -18 -37 -15 l-38 5 38 -11 c53 -16 50 -41 -5 -34 l-43 4 43 -11 c23 -6 42 -17 42 -24 0 -11 -56 -34 -82 -34 -12 0 -9 108 3 116 8 4 7 9 -2 15 -19 11 -14 14 81 42 101 30 109 31 90 13z m50 -81 l0 -95 -30 0 -30 0 -2 73 -2 72 -5 -68 c-6 -67 -10 -72 -44 -63 -15 4 -18 13 -15 62 3 54 5 58 33 67 17 5 41 18 55 28 14 10 28 19 33 19 4 0 7 -43 7 -95z m-654 0 c2 -48 10 -67 22 -49 8 13 56 26 93 25 22 0 25 4 22 23 -4 21 -2 23 21 19 32 -7 35 -38 4 -46 -12 -4 -20 -8 -17 -11 3 -3 31 2 63 10 58 15 79 13 60 -6 -6 -6 -64 -25 -130 -44 -65 -19 -112 -35 -103 -35 8 -1 64 13 122 29 59 17 109 30 112 30 3 0 5 -22 5 -50 0 -47 -1 -50 -26 -50 -30 0 -266 39 -272 45 -9 8 11 25 29 25 10 0 19 4 19 10 0 6 -9 6 -26 0 -22 -9 -25 -8 -20 6 3 8 6 38 6 65 0 62 15 65 16 4z m87 35 c20 0 27 -5 27 -19 0 -12 -9 -21 -27 -25 -16 -3 -38 -8 -50 -12 -21 -6 -23 -3 -23 31 0 34 2 37 23 31 12 -3 34 -6 50 -6z m167 -34 c0 -2 -13 -9 -30 -15 -24 -8 -30 -7 -30 5 0 9 10 14 30 14 17 0 30 -2 30 -4z m501 -25 l44 -7 -57 -17 c-66 -20 -68 -20 -68 -7 0 6 8 11 18 11 16 1 16 2 0 6 -10 2 -18 11 -18 19 0 11 6 13 19 9 10 -3 39 -9 62 -14z m319 -62 c0 -4 -21 -12 -47 -18 -40 -9 -66 -8 -148 8 -55 10 -92 19 -83 20 10 1 22 9 27 19 9 18 14 18 130 -2 67 -11 121 -23 121 -27z m-265 31 c-7 -11 -73 -25 -82 -17 -3 3 10 10 28 16 45 12 61 13 54 1z m23 -46 l143 -26 77 19 c42 11 88 16 102 13 20 -5 8 -11 -58 -29 -517 -140 -512 -139 -549 -130 -21 4 -67 5 -103 3 -46 -4 -61 -3 -50 5 8 5 12 12 10 14 -3 3 -93 19 -200 37 -230 37 -230 37 -230 56 0 18 1 18 146 -9 67 -13 130 -20 140 -17 10 4 34 3 54 -1 19 -5 52 -6 73 -2 30 4 37 10 37 28 0 18 9 24 49 33 27 6 79 8 119 5 61 -5 72 -3 78 11 8 20 -7 21 162 -10z m375 -28 c7 -17 -11 -36 -35 -36 -10 0 -18 -4 -18 -10 0 -5 -8 -7 -17 -3 -14 5 -15 3 -7 -6 9 -10 17 -10 32 -2 10 6 22 7 26 4 3 -3 6 0 6 8 0 11 2 11 10 -1 5 -8 10 -93 9 -190 0 -202 -4 -214 -71 -225 -24 -3 -133 -29 -243 -57 -110 -28 -224 -56 -252 -63 l-53 -12 0 98 c0 106 -16 199 -37 212 -16 10 -17 53 -2 63 12 7 72 24 206 58 50 13 96 26 101 30 5 3 24 8 42 11 34 6 74 24 55 25 -6 0 -51 -11 -100 -25 -278 -78 -268 -76 -263 -43 3 19 23 27 178 70 96 27 222 61 280 77 121 34 146 36 153 17z m-1133 -56 c214 -34 341 -60 292 -60 -7 0 -12 -9 -12 -20 0 -16 -5 -19 -22 -16 -13 3 -95 17 -183 31 -88 15 -165 28 -171 30 -7 2 -9 15 -7 29 4 19 10 25 22 22 9 -3 45 -10 81 -16z m50 -80 c239 -41 231 -38 224 -66 -4 -14 -2 -24 5 -24 7 0 11 20 11 51 0 43 3 50 16 45 9 -3 36 -6 61 -6 44 0 45 -1 41 -29 -4 -30 9 -41 55 -41 28 0 19 18 -10 22 -22 2 -29 9 -31 30 -3 26 -2 27 30 22 18 -3 39 -7 46 -10 21 -6 13 -45 -13 -66 -15 -11 -25 -30 -25 -45 0 -23 -3 -24 -32 -18 -44 10 -49 14 -47 33 1 10 -1 24 -4 32 -3 8 -8 26 -11 40 -3 14 -3 -3 -2 -36 l4 -61 -37 9 c-20 5 -52 11 -71 13 -19 2 -89 13 -155 25 -122 21 -234 39 -248 40 -4 0 2 18 13 40 17 33 24 39 38 31 10 -5 74 -19 142 -31z m42 -91 c92 -16 176 -29 186 -29 14 0 21 -12 28 -50 8 -35 7 -50 0 -50 -6 0 -114 18 -241 40 -240 42 -252 43 -243 35 6 -6 377 -73 456 -82 l52 -6 0 52 0 52 31 -5 c17 -2 32 -6 34 -8 2 -2 10 -28 17 -58 14 -53 16 -55 49 -57 33 -1 33 -1 5 5 -25 6 -32 14 -42 55 l-12 48 36 -3 c34 -3 37 -6 48 -51 7 -27 11 -96 11 -155 -2 -90 -4 -106 -17 -103 -8 2 -42 7 -75 11 -33 4 -67 11 -75 14 -8 3 -44 10 -80 15 -36 5 -108 18 -160 29 -52 11 -113 22 -135 25 -22 4 -78 13 -125 21 -97 18 -160 20 -160 7 0 -12 7 -14 805 -148 19 -3 143 25 342 76 171 45 329 81 350 80 46 -1 28 -10 -62 -32 -79 -18 -792 -201 -892 -228 -43 -11 -145 -27 -228 -34 -266 -25 -359 -35 -435 -45 -41 -5 -104 -10 -140 -11 -42 -1 -56 -3 -41 -8 14 -4 26 -11 28 -17 2 -6 -93 6 -224 28 -271 45 -273 45 -273 59 0 7 10 9 26 5 21 -6 170 -30 249 -41 11 -2 48 -8 83 -15 46 -9 69 -10 85 -2 12 6 67 13 122 17 134 8 131 7 165 40 l30 29 0 127 0 127 33 19 c24 15 40 39 67 101 19 45 38 82 43 82 4 0 7 7 7 15 0 8 5 26 12 40 13 30 -11 31 260 -16z m-1035 -167 c5 -21 3 -24 -11 -19 -10 4 -22 7 -27 7 -5 0 -9 28 -8 63 l0 62 20 -44 c11 -24 22 -55 26 -69z m2161 -106 c-14 -8 -55 -21 -90 -29 -58 -13 -394 -100 -653 -168 -60 -16 -150 -39 -198 -50 -56 -14 -96 -30 -108 -43 -21 -22 -43 -90 -35 -109 2 -7 5 -1 5 11 1 15 9 26 20 29 11 3 21 13 24 23 3 13 11 17 26 13 12 -3 21 -1 21 6 0 7 -6 11 -14 9 -14 -3 -16 0 -16 22 0 25 28 6 37 -25 11 -34 10 -35 -20 -45 -29 -9 -29 -9 -4 -6 33 4 35 -1 5 -14 -18 -7 -19 -9 -5 -9 21 -1 23 -18 2 -24 -11 -4 -10 -5 2 -3 13 1 25 22 43 75 18 54 31 76 48 82 27 10 27 17 1 -87 -15 -59 -26 -84 -35 -80 -7 3 -25 1 -41 -4 -24 -7 -25 -8 -5 -9 12 -1 22 -6 22 -12 0 -11 -56 -7 -117 8 -36 8 -27 19 15 17 22 -2 27 -1 12 3 -14 3 -33 13 -42 23 -15 16 -15 20 -3 36 8 11 15 28 15 38 0 10 8 25 18 33 9 8 11 12 5 8 -7 -3 -13 -2 -13 3 0 5 12 14 28 20 32 13 201 58 287 78 33 7 87 20 120 29 275 74 575 148 598 147 15 -1 25 3 22 8 -4 6 6 10 22 10 l28 0 -27 -14z m-70 -58 c-6 -16 -33 -22 -56 -13 -14 5 -14 7 -2 15 22 14 62 12 58 -2z m-68 -18 c19 -19 20 -33 20 -199 0 -127 -3 -180 -12 -183 -6 -2 -37 0 -70 5 -47 8 -58 13 -58 29 0 11 -3 17 -7 15 -5 -3 -17 -1 -29 3 -15 6 -24 26 -38 86 -30 132 -28 128 -71 141 -22 6 -58 15 -80 18 -37 7 -25 11 134 51 96 24 177 46 179 49 8 8 11 6 32 -15z m-2051 -77 c-1 -11 -88 -83 -101 -83 -5 0 12 20 39 45 46 43 64 53 62 38z m1 -58 c0 -33 -2 -35 -35 -35 -19 0 -35 3 -35 8 0 6 60 61 68 62 1 0 2 -16 2 -35z m1701 19 l36 -6 -33 -121 c-19 -67 -33 -129 -33 -137 0 -8 13 28 28 80 22 76 29 90 35 72 5 -15 18 -25 38 -29 29 -6 30 -7 13 -20 -11 -7 -14 -13 -8 -13 7 0 15 5 18 10 12 19 24 10 34 -27 8 -28 7 -39 -2 -45 -9 -6 -9 -8 0 -8 7 0 16 7 21 15 7 14 11 13 26 -4 10 -11 15 -25 11 -30 -10 -17 -25 -13 -26 7 0 14 -2 14 -8 -3 -5 -11 -12 -20 -17 -21 -8 0 -64 -15 -116 -30 -14 -4 -18 1 -18 20 0 20 5 26 23 27 16 1 18 2 5 6 -10 2 -18 10 -19 16 -1 21 -18 -27 -18 -54 -1 -20 -7 -28 -27 -33 -33 -9 -42 -1 -26 24 8 13 8 20 2 20 -6 0 -13 -7 -15 -15 -3 -8 -7 -21 -9 -29 -4 -11 -20 -10 -92 5 -106 23 -123 39 -56 55 26 7 37 12 25 13 -12 0 -29 4 -39 8 -12 4 -15 3 -10 -6 6 -8 1 -10 -17 -6 -22 6 -25 3 -31 -30 -4 -20 -6 -38 -4 -40 2 -2 54 -12 117 -22 l114 -18 153 39 c104 26 154 43 154 53 0 10 10 12 43 7 23 -3 48 -7 55 -10 20 -6 14 -31 -9 -37 -13 -4 -20 -12 -17 -24 3 -15 15 -18 79 -21 58 -2 79 1 88 12 15 18 5 40 -15 32 -8 -3 -14 1 -14 9 0 10 7 12 28 6 15 -5 66 -14 115 -21 48 -7 86 -15 84 -16 -2 -2 -75 -22 -162 -44 -88 -23 -236 -61 -330 -85 -739 -190 -648 -171 -995 -204 -173 -17 -358 -36 -411 -42 -91 -10 -107 -9 -278 21 -100 17 -187 30 -194 27 -6 -2 20 -9 58 -16 39 -7 90 -16 115 -21 48 -10 76 -15 147 -26 l43 -6 0 -44 c0 -39 -14 -67 -22 -45 -3 8 -80 25 -313 66 -38 7 -71 18 -73 25 -3 9 -6 9 -11 1 -5 -8 -36 -6 -107 7 l-99 18 -3 38 -3 39 43 -6 c62 -8 170 -27 191 -33 9 -3 17 -1 17 4 0 5 -46 17 -102 26 -152 26 -147 23 -102 59 22 18 68 59 104 92 l65 60 3 -42 c2 -24 7 -43 13 -43 5 0 9 74 9 179 0 146 -3 181 -15 191 -23 19 -18 30 15 30 30 0 41 -16 18 -25 -10 -4 -12 -51 -10 -199 l3 -193 -26 4 c-23 5 -30 -3 -26 -29 0 -5 -4 -8 -10 -8 -5 0 -7 -4 -4 -10 3 -5 0 -7 -8 -4 -19 7 -28 -8 -17 -26 5 -8 32 -15 67 -17 32 -3 94 -13 138 -23 44 -11 108 -21 143 -23 34 -2 68 -9 74 -15 16 -16 150 -16 166 0 17 17 15 23 -13 36 -15 7 -25 20 -25 32 0 11 -7 20 -15 20 -8 0 -15 7 -15 15 0 11 12 15 45 15 26 0 45 -5 45 -11 0 -15 56 -7 150 20 41 12 93 24 115 26 39 5 39 4 -10 -11 -78 -24 -83 -26 -64 -31 10 -2 60 7 113 21 53 15 105 26 116 26 19 0 26 11 14 22 -3 3 -29 0 -57 -8 -67 -18 -65 -18 -69 9 -2 15 -11 23 -29 25 -25 3 -26 5 -21 54 4 44 3 50 -11 45 -10 -4 -16 -2 -14 6 1 7 -3 11 -10 10 -7 -2 -10 3 -7 11 3 8 -3 16 -15 19 -12 3 -21 13 -21 24 0 10 -6 25 -12 31 -19 19 -10 22 186 72 116 29 172 48 166 54 -19 19 -10 26 30 26 29 0 40 -4 40 -15 0 -10 -10 -15 -27 -16 -16 0 -22 -3 -15 -6 15 -6 16 -121 1 -143 -8 -12 -10 -12 -8 5 1 11 1 39 0 62 -1 33 -4 41 -16 37 -17 -7 -21 -64 -5 -64 6 0 10 -52 10 -135 0 -113 -2 -135 -15 -135 -8 0 -14 -3 -14 -7 3 -21 -3 -32 -21 -38 -27 -9 -26 -41 3 -49 37 -10 121 -6 144 7 23 13 20 29 -9 40 -10 3 -18 16 -18 27 0 11 -7 20 -15 20 -13 0 -15 21 -15 130 0 148 -8 138 95 118 58 -10 71 -9 165 17 103 28 130 43 130 73 0 9 11 35 25 57 13 22 25 53 25 69 0 28 0 29 48 23 124 -16 139 -15 53 3 -96 21 -109 25 -98 36 20 20 96 23 188 8z m79 -22 c26 17 34 6 34 -48 1 -34 -4 -49 -17 -58 -15 -9 -21 -7 -33 8 -8 11 -14 16 -15 10 0 -5 -4 1 -9 13 -6 14 -5 34 2 55 6 18 13 27 15 21 4 -10 9 -10 23 -1z m-307 -16 c16 -13 17 -18 4 -67 l-14 -54 -11 40 c-24 87 -25 95 -11 95 8 0 22 -7 32 -14z m-72 -61 c10 -27 18 -43 19 -35 2 27 30 -21 30 -52 0 -29 -22 -47 -52 -43 -10 2 -44 -3 -75 -11 -76 -18 -92 -18 -71 -1 9 6 22 31 28 55 10 40 30 58 30 27 0 -11 11 -15 39 -15 l38 0 -7 38 c-4 20 -11 45 -15 55 -5 11 -3 17 6 18 8 0 5 5 -6 10 -19 8 -19 9 -1 6 13 -1 25 -18 37 -52z m-301 17 c0 -4 -5 -14 -10 -22 -7 -11 -10 -12 -10 -2 0 9 -12 13 -37 12 -51 -3 -62 0 -40 9 25 9 97 12 97 3z m257 -26 c12 -40 10 -46 -18 -39 -13 4 -18 11 -15 20 3 8 6 23 6 34 0 31 16 22 27 -15z m-383 15 c6 -8 -65 -17 -374 -46 -91 -9 -176 -18 -188 -21 -17 -3 -23 -1 -19 8 3 8 19 12 46 10 23 -1 41 2 41 8 0 5 24 10 53 11 28 0 126 8 217 18 204 22 217 23 224 12z m-873 -31 c18 0 19 -9 19 -124 l0 -124 -27 -10 c-16 -6 -45 -15 -65 -21 l-38 -9 0 129 c0 108 2 129 15 129 9 0 15 9 15 21 0 19 4 21 31 15 17 -3 40 -6 50 -6z m902 -9 c-7 -27 -263 -95 -348 -92 l-60 2 0 -41 c0 -23 1 -37 3 -31 3 10 52 16 52 7 0 -2 3 -12 6 -21 5 -13 0 -16 -32 -14 -66 4 -134 -23 -134 -53 0 -11 -7 -18 -19 -18 -20 0 -31 -26 -31 -77 0 -23 -5 -33 -16 -33 -13 0 -15 13 -12 92 l4 93 88 24 c49 14 84 27 77 29 -10 3 -123 -22 -157 -35 -11 -4 -14 5 -14 36 0 30 4 41 15 41 8 0 15 9 15 20 0 36 6 37 395 71 66 6 122 13 124 15 2 2 14 4 27 4 17 0 21 -5 17 -19z m-861 -123 c-2 -68 -6 -125 -8 -127 -2 -2 -4 53 -4 122 0 70 4 127 8 127 4 0 6 -55 4 -122z m103 105 c63 -7 105 -28 105 -52 0 -12 10 -21 25 -25 l25 -6 0 -151 c0 -83 4 -148 9 -145 4 3 3 -12 -2 -34 -6 -22 -12 -38 -14 -36 -2 1 -4 55 -5 120 -1 65 -7 120 -12 123 -5 4 -7 -42 -3 -116 4 -99 2 -121 -9 -121 -8 0 -14 -9 -14 -20 0 -24 -25 -37 -43 -22 -6 5 -25 12 -42 16 -16 4 -33 13 -37 19 -5 8 -10 5 -14 -10 -5 -18 -11 -21 -36 -16 -20 4 -33 1 -39 -8 -5 -8 -9 -9 -9 -3 0 6 -10 9 -24 7 -13 -3 -32 0 -43 6 -15 10 -13 10 12 6 17 -3 24 -2 16 1 -11 5 -11 8 0 15 9 6 -5 9 -41 9 -30 0 -62 0 -70 1 -24 1 -44 -5 -52 -16 -5 -6 -8 -6 -8 2 0 6 5 15 10 18 6 3 10 15 10 26 0 26 46 26 62 -1 7 -11 22 -20 33 -20 18 1 19 1 3 11 -10 5 -18 19 -18 29 0 11 -7 20 -15 20 -11 0 -15 12 -15 48 l0 48 50 16 c39 13 50 13 50 3 0 -7 -9 -15 -20 -18 -25 -6 -26 -34 -2 -40 59 -17 74 -18 66 -5 -5 10 -4 11 7 1 7 -7 28 -13 46 -13 26 0 33 -4 33 -19 0 -16 -8 -19 -50 -18 -39 0 -55 -5 -70 -20 -19 -22 -17 -33 7 -33 9 0 11 5 7 13 -5 8 -3 8 9 -2 9 -7 14 -17 11 -22 -3 -5 -1 -9 5 -9 5 0 15 8 20 18 9 15 12 15 21 2 16 -25 12 -30 -30 -30 -22 0 -40 -3 -40 -8 0 -4 20 -6 45 -4 33 3 46 9 50 23 4 11 16 19 28 19 18 0 22 5 21 32 0 18 -6 34 -12 36 -7 2 -12 16 -12 32 0 16 -7 35 -15 44 -8 8 -15 26 -15 40 0 20 5 26 23 26 12 0 51 9 86 20 35 10 68 17 73 14 4 -3 8 0 8 5 0 15 -13 14 -100 -9 -41 -11 -78 -20 -82 -20 -5 0 -8 36 -8 79 0 71 -2 80 -20 86 -13 4 -20 15 -20 32 0 20 4 24 18 18 9 -3 40 -9 67 -12z m173 -45 c-7 -20 -58 -23 -58 -4 0 11 10 16 31 16 20 0 29 -4 27 -12z m-243 -20 c2 -7 6 -66 9 -130 5 -113 5 -118 -14 -118 -19 0 -20 7 -20 130 0 83 4 130 10 130 6 0 12 -6 15 -12z m1949 -94 c3 -8 0 -14 -7 -15 -7 0 -3 -4 8 -8 14 -6 4 -9 -32 -9 -29 -1 -53 4 -53 9 0 6 4 8 9 5 4 -3 6 5 4 17 -4 21 -2 23 31 19 19 -2 37 -10 40 -18z m-1493 -52 c70 18 66 -9 -6 -32 -31 -10 -40 -10 -43 0 -3 7 -7 8 -11 2 -4 -6 -15 -6 -31 0 l-25 10 35 12 c19 6 36 9 38 5 2 -4 21 -2 43 3z m1760 1 c0 -5 2 -16 4 -25 5 -26 -25 -46 -95 -62 -36 -9 -92 -25 -125 -36 -62 -22 -117 -36 -370 -94 -82 -19 -176 -42 -208 -51 -32 -9 -68 -18 -79 -20 -12 -3 -36 -9 -55 -16 -19 -6 -43 -9 -54 -6 -10 3 -17 1 -14 -3 3 -5 -3 -11 -12 -14 -49 -15 -169 -46 -175 -46 -5 0 -8 17 -8 38 l0 38 105 27 c58 15 111 25 117 21 6 -4 8 -3 5 3 -4 6 11 14 36 18 23 4 47 9 52 11 6 1 91 23 190 49 168 43 297 77 555 145 117 31 130 33 131 23z m-2251 -63 c0 -23 -4 -28 -16 -23 -9 3 -20 0 -26 -8 -8 -11 -9 -10 -4 4 3 10 6 26 6 36 0 10 8 17 20 18 16 1 20 -4 20 -27z m600 -30 c0 -40 -4 -62 -12 -64 -7 -2 -41 -10 -75 -18 l-62 -14 -3 66 c-3 70 -6 66 52 72 11 1 20 5 20 8 0 3 18 6 40 8 l40 2 0 -60z m-200 -22 c0 -46 -3 -54 -24 -64 -21 -10 -25 -9 -30 9 -3 13 -10 18 -21 14 -13 -5 -14 -3 -5 13 5 10 10 32 10 49 0 29 3 31 35 31 l35 0 0 -52z m35 -8 c0 -34 -5 -55 -12 -57 -10 -4 -13 12 -13 57 0 45 3 61 13 58 7 -3 12 -24 12 -58z m481 -58 c-12 -11 -15 5 -8 44 l7 39 3 -39 c2 -21 1 -41 -2 -44z m-829 -12 c3 -10 2 -11 -4 -3 -5 6 -29 14 -53 16 l-45 4 49 -1 c35 -1 51 -5 53 -16z m1859 5 c-3 -8 -1 -15 4 -15 6 0 10 7 10 15 0 8 5 15 10 15 13 0 13 -51 0 -84 -5 -14 -17 -26 -25 -26 -9 0 -14 4 -10 9 3 5 0 13 -7 17 -7 4 -10 4 -6 -1 8 -9 -45 -65 -62 -65 -13 0 -13 30 0 50 9 13 10 13 11 0 1 -14 17 19 40 78 5 12 16 22 25 22 10 0 14 -5 10 -15z m-81 -12 c-12 -61 -16 -73 -24 -73 -9 0 -20 78 -12 86 12 12 39 2 36 -13z m-926 -11 c17 -17 8 -25 -30 -27 -17 -1 -35 -8 -40 -16 -5 -8 -9 -11 -9 -7 0 3 -3 14 -7 24 -4 12 -3 15 5 10 8 -5 12 0 12 14 0 17 5 20 28 18 15 -2 33 -9 41 -16z m853 -58 c6 -13 17 -20 27 -17 14 3 17 -4 19 -36 2 -21 -2 -42 -8 -46 -5 -3 -10 -1 -10 4 0 6 -4 11 -9 11 -5 0 -7 -9 -4 -19 6 -24 -14 -64 -30 -58 -7 2 -15 17 -18 33 l-7 29 -1 -34 c-2 -54 -27 -21 -36 46 -4 31 -9 62 -12 70 -3 7 1 13 10 13 8 0 17 -6 20 -12 2 -7 4 0 4 16 1 35 36 69 41 39 2 -10 8 -28 14 -39z m-62 26 c0 -11 -7 -20 -15 -20 -15 0 -21 21 -8 33 12 13 23 7 23 -13z m-50 -90 c7 -56 11 -103 9 -105 -2 -2 -26 1 -54 6 -27 5 -126 23 -220 39 -175 31 -210 43 -159 56 16 4 110 29 209 55 99 26 185 48 191 48 6 1 16 -40 24 -99z m-1446 78 c-5 -7 0 -9 14 -6 15 4 26 -1 37 -18 10 -15 21 -21 33 -18 14 5 14 4 -2 -6 -15 -10 -20 -9 -27 1 -6 10 -9 11 -9 2 0 -8 -14 -13 -35 -13 -34 0 -35 1 -29 28 8 31 13 42 20 42 3 0 2 -5 -2 -12z m812 -87 c4 -34 2 -41 -13 -41 -56 -1 -681 -55 -760 -66 l-43 -6 0 39 0 40 133 12 c72 6 177 16 232 22 227 24 440 45 443 43 2 -1 6 -21 8 -43z m114 -41 c0 -11 -4 -20 -10 -20 -5 0 -11 -10 -11 -22 -1 -20 -2 -20 -6 -4 -3 12 -8 15 -12 8 -4 -7 -12 2 -19 21 -10 28 -10 30 3 14 13 -18 14 -18 25 2 14 27 30 27 30 1z m215 -16 c77 -13 147 -26 155 -28 8 -3 37 -7 64 -11 27 -3 53 -8 57 -10 10 -7 88 -7 127 -1 17 3 32 1 32 -4 0 -6 -13 -10 -30 -10 -21 0 -30 -5 -30 -16 0 -13 -6 -15 -27 -11 -71 15 -424 76 -475 82 -35 5 -58 12 -58 19 0 19 12 27 29 20 9 -3 79 -17 156 -30z m793 -14 c20 -30 23 -44 19 -100 -5 -82 -11 -103 -37 -140 -22 -30 -52 -52 -80 -57 -47 -7 -87 73 -76 151 3 23 6 48 7 56 3 22 50 103 68 117 29 23 73 11 99 -27z m-1094 16 c-3 -7 2 -21 11 -30 9 -9 14 -20 11 -25 -10 -15 -58 -5 -73 15 -21 29 -15 42 20 47 17 2 33 5 34 5 1 1 0 -4 -3 -12z m-74 -18 c0 -10 -7 -18 -16 -18 -8 0 -12 5 -9 10 3 6 -1 10 -10 10 -9 0 -14 4 -10 9 10 17 45 8 45 -11z m-100 -103 c16 -20 4 -20 -68 1 -60 17 -97 43 -105 75 -5 19 12 25 93 31 33 3 36 1 51 -44 9 -26 22 -54 29 -63z m75 81 c69 -24 71 -68 4 -78 -39 -6 -67 16 -75 60 -8 37 5 41 71 18z m-892 -13 c-24 -9 -14 -38 13 -39 18 -2 24 2 20 12 -6 15 23 12 77 -8 39 -15 33 -26 -15 -31 -41 -4 -41 -4 7 -4 74 -1 75 -1 85 -29 7 -19 7 -31 -1 -40 -8 -10 -8 -14 0 -14 19 0 12 -44 -13 -80 -30 -44 -37 -69 -41 -133 -3 -71 -22 -107 -58 -114 -20 -4 -25 -8 -15 -14 9 -6 2 -13 -24 -24 -95 -39 -197 9 -214 102 -9 47 13 143 32 143 8 0 28 -12 44 -27 25 -22 30 -34 32 -77 l2 -51 3 48 c4 46 2 51 -41 97 -25 27 -46 58 -46 70 0 11 -14 35 -32 52 l-32 31 -17 -22 c-9 -11 -25 -21 -36 -21 -15 0 -16 2 -3 10 13 8 13 10 -2 10 -11 0 -18 12 -23 40 -11 65 7 75 76 40 35 -18 51 -20 142 -14 103 7 142 14 74 14 -23 0 -37 5 -37 13 0 9 -2 9 -8 0 -4 -6 -35 -15 -68 -18 -49 -6 -67 -4 -95 11 -27 14 -30 19 -15 22 10 2 36 2 57 0 21 -2 39 0 39 4 0 5 3 7 8 7 20 -3 32 2 32 15 0 10 13 16 38 19 58 6 68 6 55 0z m-182 -211 c7 -31 5 -47 -8 -73 -27 -53 -28 -119 -5 -173 22 -48 16 -50 -26 -12 -69 62 -67 220 3 290 21 21 24 18 36 -32z"
       id="path20"
       style="fill:#cee97c" />
    <path
       d="M532 2623 c-1 -12 -5 -28 -8 -37 -5 -13 1 -16 37 -14 36 1 38 2 12 5 -27 4 -32 9 -36 36 -2 18 -4 23 -5 10z"
       id="path22"
       style="fill:#f5ded2" />
    <path
       d="M590 2610 c0 -22 15 -27 26 -8 4 7 3 8 -4 4 -7 -4 -12 -2 -12 4 0 8 9 10 23 7 12 -4 29 -2 37 3 11 7 3 10 -27 10 -36 0 -43 -3 -43 -20z"
       id="path24"
       style="fill:#0e794d" />
    <path
       d="M731 2579 c-1 -12 -13 -15 -63 -13 l-63 3 55 -9 c30 -4 73 -8 95 -8 27 1 31 2 13 5 -15 2 -29 12 -31 21 -4 14 -5 14 -6 1z"
       id="path26"
       style="fill:#442168" />
    <path
       d="M1191 2413 c-1 -22 2 -24 71 -38 10 -2 21 1 24 6 3 5 16 9 30 9 14 0 23 4 19 10 -4 6 -15 6 -31 0 -14 -6 -41 -10 -60 -10 -27 0 -37 5 -44 23 l-9 22 0 -22z"
       id="path28"
       style="fill:#c4c5c0" />
    <path
       d="M950 2328 c0 -64 -3 -88 -12 -88 -54 1 -273 31 -276 38 -1 5 -9 18 -17 28 -13 16 -14 17 -9 2 4 -12 1 -18 -7 -18 -8 0 3 -9 24 -20 20 -11 50 -20 67 -20 16 0 75 -5 130 -11 l101 -12 -3 -56 -3 -56 -40 -1 -40 -2 40 7 c31 5 3 10 -125 24 -161 17 -261 21 -170 7 l45 -7 -50 -2 c-62 -3 -143 -18 -103 -20 20 -1 25 -5 21 -20 -3 -10 2 -33 11 -50 l16 -30 -37 -20 c-45 -24 -40 -27 10 -6 l35 14 26 -57 c14 -32 39 -77 56 -100 16 -23 30 -44 30 -46 0 -2 -21 -11 -46 -21 -25 -9 -43 -19 -41 -21 2 -3 24 4 48 14 33 13 66 17 129 16 47 -2 124 -3 171 -5 48 -1 92 -5 98 -8 7 -5 3 -19 -14 -41 -14 -19 -25 -35 -25 -37 0 -11 13 3 42 45 l33 47 6 -65 6 -65 1 67 c1 37 7 70 12 73 30 19 68 135 110 336 10 49 1 99 -17 99 -8 0 -62 -25 -119 -56 l-104 -56 0 49 c0 27 6 55 13 62 10 11 10 13 0 7 -16 -9 -18 145 -3 160 7 7 6 11 -5 11 -12 0 -15 -16 -15 -89z m238 -146 c-2 -25 -5 -27 -30 -24 -26 4 -28 2 -28 -30 0 -27 -5 -37 -24 -46 -31 -14 -38 -46 -16 -74 9 -13 20 -40 24 -60 6 -30 1 -47 -24 -91 l-30 -54 -44 9 c-24 5 -105 8 -179 6 l-136 -3 -35 55 c-36 57 -129 241 -124 245 2 2 41 -1 88 -6 47 -5 136 -14 198 -19 l113 -11 122 65 c67 36 123 65 125 65 1 1 1 -12 0 -27z m-8 -51 c0 -21 -13 -41 -27 -41 -10 0 -13 6 -9 16 3 9 6 20 6 25 0 5 7 9 15 9 8 0 15 -4 15 -9z m-14 -83 c-3 -13 -6 -29 -6 -35 0 -7 -7 -13 -15 -13 -15 0 -20 26 -9 54 10 26 37 20 30 -6z"
       id="path30"
       style="fill:#535d68" />
    <path
       d="M511 2334 c-12 -15 -21 -38 -21 -51 0 -26 28 -88 37 -80 2 3 -3 17 -12 31 -11 16 -14 32 -10 43 5 10 9 25 9 33 1 8 7 14 14 13 6 -2 12 4 12 13 0 13 8 15 34 12 19 -2 32 0 30 4 -3 4 -20 8 -39 8 -24 0 -39 -7 -54 -26z"
       id="path32"
       style="fill:#56443f" />
    <path
       d="M1098 2314 c-38 -19 -68 -37 -68 -39 0 -5 139 62 149 71 14 13 -23 -2 -81 -32z"
       id="path34"
       style="fill:#261b5c" />
    <path
       d="M1274 2190 c0 -91 2 -128 3 -82 2 45 2 119 0 165 -1 45 -3 8 -3 -83z"
       id="path36"
       style="fill:#c09ecd" />
    <path
       d="M575 2283 c-4 -13 3 -26 26 -45 36 -31 35 -37 -13 -48 -32 -8 -32 -8 -5 -9 18 -1 36 8 52 25 33 35 31 43 -5 39 -18 -3 -28 0 -25 6 4 5 1 8 -6 7 -6 -2 -14 3 -17 11 -3 8 0 11 7 7 7 -5 9 -1 5 8 -8 20 -10 20 -19 -1z"
       id="path38"
       style="fill:#11adb2" />
    <path
       d="M305 2270 c-7 -12 2 -30 16 -30 6 0 7 5 3 12 -5 8 -2 9 11 4 15 -5 16 -4 5 9 -14 17 -26 19 -35 5z"
       id="path40"
       style="fill:#e7f4f2" />
    <path
       d="M850 2204 c0 -9 7 -14 17 -12 25 5 28 28 4 28 -12 0 -21 -6 -21 -16z"
       id="path42"
       style="fill:#d2b3ce" />
    <path
       d="M1251 1969 c-5 -13 -37 -82 -70 -153 -34 -71 -60 -130 -58 -132 2 -2 36 64 75 148 40 83 70 153 67 156 -2 3 -9 -6 -14 -19z"
       id="path44"
       style="fill:#578680" />
    <path
       d="M818 1693 c23 -2 59 -2 80 0 20 2 1 4 -43 4 -44 0 -61 -2 -37 -4z"
       id="path46"
       style="fill:#58695c" />
    <path
       d="M783 1643 c26 -2 67 -2 90 0 23 2 2 3 -48 3 -49 0 -68 -1 -42 -3z"
       id="path48"
       style="fill:#111718" />
    <path
       d="M1530 2470 c0 -5 9 -10 20 -10 11 0 20 -4 20 -10 0 -5 -6 -8 -12 -6 -39 12 -68 15 -68 7 0 -14 71 -24 83 -12 6 6 19 11 29 11 10 0 18 4 18 9 0 6 -8 9 -17 9 -10 -1 -30 2 -45 5 -17 5 -28 3 -28 -3z"
       id="path50"
       style="fill:#86d1b2" />
    <path
       d="M1673 2436 c3 -8 1 -17 -6 -20 -9 -3 -8 -5 1 -5 7 -1 15 5 18 13 3 8 12 12 20 9 8 -3 14 0 14 6 0 6 -12 11 -26 11 -19 0 -25 -4 -21 -14z"
       id="path52"
       style="fill:#e2c7d9" />
    <path
       d="M1490 2205 c-22 -8 -28 -13 -15 -13 11 0 36 6 55 13 22 8 28 13 15 13 -11 0 -36 -6 -55 -13z"
       id="path54"
       style="fill:#8c9ad7" />
    <path
       d="M2507 2073 c-4 -3 -19 -8 -33 -9 -33 -4 -57 -24 -25 -21 11 1 21 5 21 10 0 4 4 5 10 2 5 -3 22 1 37 9 17 9 22 15 12 16 -9 0 -19 -3 -22 -7z"
       id="path56"
       style="fill:#366577" />
    <path
       d="M2262 1877 c-7 -79 -6 -142 1 -182 6 -29 5 -36 -2 -25 -7 9 -11 10 -11 3 0 -22 21 -25 27 -4 4 17 9 19 24 10 24 -12 49 -5 80 22 12 11 29 17 37 14 12 -4 12 -3 3 9 -9 10 -9 26 -1 61 11 49 0 118 -21 131 -7 4 -6 -3 1 -17 7 -13 13 -46 13 -74 0 -117 -95 -189 -138 -105 -25 47 -20 53 33 45 26 -4 49 -9 51 -11 3 -2 -6 -19 -19 -37 l-23 -32 25 23 c44 40 63 149 32 188 -15 18 -15 18 -5 -3 13 -26 14 -93 2 -111 -6 -10 -22 -11 -59 -6 -57 7 -60 13 -39 74 12 35 12 70 -1 70 -4 0 -8 -19 -10 -43z"
       id="path58"
       style="fill:#b27dad" />
    <path
       d="M2571 1788 c-11 -30 -2 -57 11 -33 5 9 7 23 4 31 -3 8 1 14 9 14 25 0 23 -48 -3 -67 -9 -7 -11 -13 -4 -13 6 0 19 11 27 24 13 19 14 29 5 45 -14 28 -39 27 -49 -1z"
       id="path60"
       style="fill:#6ee392" />
    <path
       d="M1906 1664 c-19 -18 -20 -28 -6 -55 14 -25 46 -24 60 2 9 16 8 26 -5 45 -18 28 -28 30 -49 8z m24 -47 c4 -5 5 3 3 17 -6 29 11 36 21 9 8 -19 -17 -48 -33 -39 -6 4 -10 19 -10 34 1 21 2 22 6 7 3 -11 8 -24 13 -28z"
       id="path62"
       style="fill:#aba7da" />
    <path
       d="M1664 1542 c-17 -11 -31 -43 -38 -90 -4 -29 -3 -41 4 -37 5 3 10 12 10 19 0 8 6 19 14 25 8 7 12 21 9 31 -3 11 0 27 7 35 14 17 10 28 -6 17z"
       id="path64"
       style="fill:#4447c9" />
    <path
       d="M1731 1510 c-13 -11 -28 -17 -32 -14 -15 9 -10 -14 7 -30 8 -9 30 -15 47 -15 30 2 31 2 5 6 -17 3 -28 11 -28 19 0 12 7 14 30 9 28 -6 29 -5 22 16 -12 31 -24 33 -51 9z"
       id="path66"
       style="fill:#85a007" />
    <path
       d="M2090 1161 l-35 -7 42 -5 c29 -3 44 0 47 8 6 14 1 14 -54 4z"
       id="path68"
       style="fill:#9e2d9d" />
    <path
       d="M2733 618 c-33 -38 -36 -48 -14 -48 14 0 19 5 15 14 -3 9 5 22 21 32 26 17 28 17 41 -1 21 -28 21 -91 2 -110 -8 -7 -9 -6 -4 3 4 6 3 12 -3 12 -5 0 -11 10 -13 22 -3 22 -28 39 -28 18 0 -6 5 -8 10 -5 6 3 10 -1 10 -9 0 -10 -6 -13 -17 -9 -11 4 -14 3 -9 -5 4 -7 13 -12 21 -12 12 0 25 -21 25 -40 0 -12 -37 -23 -50 -15 -8 5 -8 11 0 20 8 10 8 15 -1 21 -7 4 -9 3 -5 -4 3 -6 2 -13 -4 -17 -11 -7 -24 39 -16 60 3 8 0 15 -6 15 -7 0 -9 -15 -5 -42 10 -74 64 -89 104 -29 29 42 29 90 2 125 -25 32 -49 33 -76 4z"
       id="path70"
       style="fill:#131e2a" />
    <path
       d="M588 494 c4 -31 7 -34 36 -33 30 2 30 2 4 6 -22 3 -28 10 -28 28 0 13 -4 26 -8 29 -4 2 -6 -11 -4 -30z"
       id="path72"
       style="fill:#1f2217" />
  </g>
</svg>
