<?xml version="1.0" encoding="UTF-8" standalone="no"?>
<svg
   xmlns:dc="http://purl.org/dc/elements/1.1/"
   xmlns:cc="http://creativecommons.org/ns#"
   xmlns:rdf="http://www.w3.org/1999/02/22-rdf-syntax-ns#"
   xmlns:svg="http://www.w3.org/2000/svg"
   xmlns="http://www.w3.org/2000/svg"
   xmlns:sodipodi="http://sodipodi.sourceforge.net/DTD/sodipodi-0.dtd"
   xmlns:inkscape="http://www.inkscape.org/namespaces/inkscape"
   version="1.0"
   width="300.000000pt"
   height="300.000000pt"
   viewBox="0 0 300.000000 300.000000"
   preserveAspectRatio="xMidYMid meet"
   id="svg236"
   sodipodi:docname="doncey_profile.svg"
   inkscape:version="0.92.5 (2060ec1f9f, 2020-04-08)">
  <defs
     id="defs240" />
  <sodipodi:namedview
     pagecolor="#ffffff"
     bordercolor="#666666"
     borderopacity="1"
     objecttolerance="10"
     gridtolerance="10"
     guidetolerance="10"
     inkscape:pageopacity="0"
     inkscape:pageshadow="2"
     inkscape:window-width="2560"
     inkscape:window-height="1472"
     id="namedview238"
     showgrid="false"
     inkscape:zoom="0.59"
     inkscape:cx="-272.0339"
     inkscape:cy="200"
     inkscape:window-x="0"
     inkscape:window-y="54"
     inkscape:window-maximized="1"
     inkscape:current-layer="svg236" />
  <metadata
     id="metadata2">
Created by potrace 1.10, written by Peter Selinger 2001-2011
<rdf:RDF>
  <cc:Work
     rdf:about="">
    <dc:format>image/svg+xml</dc:format>
    <dc:type
       rdf:resource="http://purl.org/dc/dcmitype/StillImage" />
  </cc:Work>
</rdf:RDF>
</metadata>
  <g
     transform="translate(0.000000,300.000000) scale(0.100000,-0.100000)"
     fill="#000000"
     stroke="none"
     id="g234"
     style="fill:#ffffff;fill-opacity:1">
    <path
       d="M1136 2675 c-3 -9 -18 -15 -34 -15 -19 0 -39 -10 -58 -30 -16 -16 -34 -30 -39 -30 -16 0 -86 -75 -78 -83 3 -4 -2 -14 -13 -22 -10 -8 -13 -15 -7 -15 13 0 -38 -82 -68 -110 -9 -8 -14 -21 -11 -29 3 -8 -4 -20 -14 -28 -12 -8 -15 -17 -9 -21 6 -4 11 -25 12 -47 1 -22 2 -40 3 -40 1 0 4 -29 6 -65 3 -52 8 -68 26 -81 14 -11 18 -21 13 -30 -12 -18 -7 -103 8 -139 40 -98 46 -123 32 -134 -13 -10 -13 -17 0 -61 9 -27 26 -66 38 -85 13 -19 30 -53 39 -75 9 -22 23 -58 32 -80 9 -22 25 -71 36 -108 10 -38 23 -74 28 -80 5 -7 14 -31 22 -54 7 -23 19 -44 26 -47 17 -6 17 -5 4 28 -6 16 -6 27 0 31 6 4 6 13 1 23 -22 42 -34 79 -35 102 -1 14 -4 27 -7 30 -4 3 -20 39 -37 80 -16 41 -35 74 -42 72 -6 -1 -9 2 -6 7 4 5 1 22 -5 37 -9 25 -45 212 -54 283 -2 13 -8 28 -14 34 -6 6 -11 20 -11 31 0 17 2 18 10 6 8 -13 10 -12 10 3 0 9 -7 17 -15 17 -11 0 -15 10 -14 38 2 62 0 74 -14 69 -8 -3 -14 1 -14 9 0 7 5 10 11 7 6 -4 1 5 -10 19 -15 19 -21 43 -22 85 -2 32 -5 71 -8 87 -4 18 -2 26 4 22 6 -4 8 2 5 14 -3 11 0 20 6 20 5 0 8 6 5 13 -2 7 7 30 21 51 14 20 25 41 25 45 0 5 7 14 15 21 8 7 13 16 10 20 -3 4 2 11 10 14 8 3 15 9 14 13 -4 23 5 35 49 64 26 18 50 37 53 42 15 22 151 30 219 12 53 -14 80 -17 80 -8 0 5 33 1 73 -9 39 -10 82 -16 95 -13 14 3 33 -2 50 -13 28 -20 72 -37 85 -34 4 1 6 -3 5 -10 -2 -7 11 -19 28 -28 48 -25 79 -52 97 -87 9 -18 25 -48 34 -65 9 -18 25 -42 35 -52 9 -10 15 -23 12 -28 -3 -4 -1 -8 3 -8 5 0 9 -8 10 -17 1 -10 4 -29 7 -43 19 -88 24 -116 20 -122 -2 -4 0 -9 4 -12 5 -3 6 -25 2 -50 -4 -24 -2 -52 3 -61 6 -12 4 -20 -9 -29 -11 -9 -14 -18 -9 -27 8 -12 6 -12 -8 0 -9 7 -15 17 -12 21 8 13 -30 102 -39 93 -5 -4 -6 2 -3 15 3 15 1 22 -10 22 -8 0 -12 4 -9 9 4 5 3 17 -1 28 -6 16 -8 15 -13 -7 -8 -31 -2 -52 13 -43 5 3 7 1 4 -4 -4 -6 0 -24 8 -40 36 -72 58 -188 62 -323 10 -304 4 -370 -34 -414 -13 -15 -23 -31 -23 -36 0 -6 -4 -10 -10 -10 -5 0 -10 -6 -10 -14 0 -8 -13 -17 -29 -21 -20 -4 -31 -14 -35 -31 -6 -21 -9 -24 -21 -14 -9 7 -15 8 -15 2 0 -20 30 -21 42 -2 7 11 17 20 23 20 11 1 99 80 103 93 1 4 2 12 2 17 0 6 6 10 13 10 13 0 14 10 16 234 0 82 -2 160 -5 173 -4 13 -3 45 1 71 6 37 9 43 15 27 5 -11 6 -37 3 -57 -5 -32 -3 -38 12 -38 11 0 15 5 11 15 -4 10 1 15 14 15 22 0 42 51 23 57 -6 2 -21 13 -33 23 -12 10 -28 16 -36 13 -17 -6 -17 -3 -4 32 15 40 60 84 79 78 12 -5 13 -3 5 6 -6 7 -21 13 -33 14 -15 1 -21 8 -21 23 0 12 4 24 8 26 13 5 -26 278 -39 278 -4 0 -5 9 -2 19 3 13 -5 26 -26 42 -17 12 -31 31 -31 41 0 10 -4 18 -8 18 -7 0 -29 45 -46 93 -3 10 -9 16 -14 13 -4 -2 -44 20 -87 51 -44 30 -94 61 -112 69 -26 11 -310 54 -393 58 -14 1 -35 7 -47 14 -17 9 -22 9 -27 -3z m-181 -996 c10 -56 3 -56 -15 1 -12 35 -12 46 -4 43 7 -2 16 -23 19 -44z"
       id="path4"
       style="fill:#ffffff;fill-opacity:1" />
    <path
       d="M1655 1973 c-22 -2 -47 -7 -55 -10 -8 -3 -21 -5 -28 -4 -8 1 -22 -5 -32 -14 -10 -9 -23 -15 -30 -13 -6 2 -16 -6 -20 -18 -7 -19 -5 -20 18 -16 15 3 32 8 38 13 6 5 46 10 90 12 43 2 87 8 98 12 11 5 21 3 26 -5 4 -7 13 -11 20 -8 8 2 6 10 -7 26 -20 24 -55 32 -118 25z"
       id="path6"
       style="fill:#ffffff;fill-opacity:1" />
    <path
       d="M1994 1878 c3 -42 -2 -52 -20 -37 -8 6 -14 9 -14 6 0 -8 49 -57 57 -57 3 0 3 23 0 52 -7 58 -26 89 -23 36z"
       id="path8"
       style="fill:#ffffff;fill-opacity:1" />
    <path
       d="M1170 1893 c0 -7 -9 -13 -19 -13 -11 0 -32 -5 -48 -12 -15 -6 -34 -12 -42 -14 -8 -1 -18 -9 -22 -16 -7 -11 -11 -11 -18 1 -6 9 -11 10 -15 2 -4 -6 -2 -11 4 -11 8 0 8 -6 0 -20 -10 -19 -10 -19 20 -2 16 9 30 20 30 24 0 4 15 4 34 1 19 -3 36 -1 40 5 4 6 13 9 21 5 11 -4 13 -1 9 11 -5 12 0 16 20 16 14 0 26 -4 26 -10 0 -5 12 -10 28 -9 15 0 20 3 12 6 -30 9 -65 28 -72 38 -5 6 -8 5 -8 -2z"
       id="path10"
       style="fill:#ffffff;fill-opacity:1" />
    <path
       d="M1496 1847 c-11 -8 -16 -22 -14 -38 3 -23 4 -23 22 9 20 38 17 48 -8 29z"
       id="path12"
       style="fill:#ffffff;fill-opacity:1" />
    <path
       d="M1570 1849 c-28 -11 -60 -38 -60 -51 0 -4 9 -8 20 -8 11 0 19 3 19 8 -5 31 23 47 34 18 9 -22 42 -25 83 -7 37 16 42 16 87 0 56 -20 63 -11 9 13 -87 39 -142 47 -192 27z"
       id="path14"
       style="fill:#ffffff;fill-opacity:1" />
    <path
       d="M1162 1779 c-13 -5 -35 -18 -49 -29 -21 -17 -23 -20 -8 -20 10 0 26 6 34 14 22 19 79 37 86 26 3 -4 -6 -11 -20 -14 -27 -7 -35 -26 -11 -26 27 0 46 12 46 30 0 10 6 21 13 23 6 3 -6 5 -28 6 -22 0 -51 -4 -63 -10z"
       id="path16"
       style="fill:#ffffff;fill-opacity:1" />
    <path
       d="M1966 1653 c-18 -17 -24 -29 -18 -35 14 -14 31 -2 43 29 13 35 8 37 -25 6z"
       id="path18"
       style="fill:#ffffff;fill-opacity:1" />
    <path
       d="M1490 1593 c1 -35 52 -43 58 -10 3 13 -3 17 -27 17 -17 0 -31 -3 -31 -7z"
       id="path20"
       style="fill:#ffffff;fill-opacity:1" />
    <path
       d="M1357 1573 c-16 -15 -5 -25 22 -20 16 3 34 1 42 -6 7 -7 5 -2 -5 11 -19 21 -46 29 -59 15z"
       id="path22"
       style="fill:#ffffff;fill-opacity:1" />
    <path
       d="M1542 1530 c-10 -16 -16 -18 -32 -10 -38 20 -48 13 -52 -40 -1 -28 0 -50 5 -50 4 0 7 5 7 11 0 5 6 7 13 3 10 -6 10 -4 0 7 -15 15 -18 53 -4 44 5 -3 12 -1 15 4 5 8 57 6 83 -3 7 -3 10 1 7 9 -3 8 -13 11 -21 8 -12 -5 -14 -1 -8 15 8 27 4 28 -13 2z"
       id="path24"
       style="fill:#ffffff;fill-opacity:1" />
    <path
       d="M1533 1476 c4 -10 1 -13 -9 -9 -7 3 -14 0 -14 -7 0 -14 42 -9 47 6 2 6 -4 14 -13 18 -11 4 -15 2 -11 -8z"
       id="path26"
       style="fill:#ffffff;fill-opacity:1" />
    <path
       d="M1640 1450 c6 -12 17 -16 35 -13 37 8 30 28 -9 29 -30 0 -33 -2 -26 -16z"
       id="path28"
       style="fill:#ffffff;fill-opacity:1" />
    <path
       d="M1530 1400 c-184 -23 -230 -31 -230 -41 0 -12 8 -11 84 6 36 9 78 15 93 14 16 -1 44 1 63 6 33 7 34 7 20 -11 -14 -16 -13 -17 5 -10 73 30 78 31 82 19 3 -7 14 -13 24 -13 11 0 17 5 14 10 -3 6 -1 10 4 10 6 0 11 5 11 10 0 11 -74 11 -170 0z"
       id="path30"
       style="fill:#ffffff;fill-opacity:1" />
    <path
       d="M1519 1328 c-5 -17 -8 -48 -5 -48 11 0 36 33 31 41 -6 8 -24 13 -26 7z"
       id="path32"
       style="fill:#ffffff;fill-opacity:1" />
    <path
       d="M1912 1242 c4 -12 2 -22 -3 -22 -5 0 -7 -10 -4 -22 6 -25 -2 -42 -25 -51 -11 -5 -9 -6 5 -6 54 3 54 2 51 -60 -3 -57 -34 -137 -59 -153 -6 -4 -8 -10 -4 -14 3 -4 15 4 25 17 l19 23 -8 -49 c-4 -28 -8 -63 -8 -80 0 -26 2 -27 9 -10 5 11 9 30 9 42 1 12 6 34 13 50 l11 28 7 -30 c4 -16 6 -45 4 -62 -1 -18 2 -33 7 -33 4 0 7 -26 7 -57 -1 -32 2 -76 6 -98 5 -26 4 -35 -2 -26 -7 10 -11 10 -17 1 -4 -7 1 -13 13 -17 21 -5 20 -16 -7 -78 -5 -11 -12 -33 -16 -48 -3 -15 -10 -25 -15 -22 -6 3 -10 0 -10 -7 0 -17 -77 -94 -86 -85 -3 3 -1 20 5 38 6 18 9 34 6 37 -2 3 3 11 12 17 16 12 16 14 1 29 -21 20 -24 16 -38 -64 -13 -76 -50 -203 -60 -210 -4 -3 -20 -41 -35 -85 -40 -117 -39 -116 -69 -58 -14 29 -30 54 -36 58 -17 10 -12 -2 25 -59 19 -30 35 -60 35 -66 0 -5 4 -10 9 -10 14 0 29 22 37 55 4 17 21 59 37 95 17 36 30 73 29 82 -1 18 18 20 30 3 4 -5 6 0 5 13 0 12 -5 22 -10 22 -18 0 0 23 20 26 19 3 20 -1 20 -79 -1 -139 6 -217 20 -217 8 0 10 14 8 43 -2 23 -5 94 -7 158 -3 114 -3 115 -26 111 -18 -3 -21 -1 -16 12 4 10 13 15 20 12 7 -3 16 -1 19 4 3 4 0 10 -7 12 -6 2 1 15 18 31 16 15 35 25 42 22 7 -3 10 0 7 6 -8 12 14 41 26 33 5 -3 6 2 3 11 -4 8 -1 21 5 29 6 7 8 16 5 19 -4 3 4 27 16 53 21 42 22 50 10 83 -17 45 -23 121 -10 121 13 0 13 57 0 65 -6 4 -8 10 -5 15 3 5 0 21 -5 36 -6 14 -12 46 -15 71 -2 24 -7 52 -10 63 -4 12 -2 20 5 20 5 0 8 10 6 23 -3 12 -8 39 -11 60 -4 28 -11 37 -26 37 -16 0 -18 3 -9 19 14 26 13 78 -2 87 -8 5 -9 0 -6 -14z"
       id="path34"
       style="fill:#ffffff;fill-opacity:1" />
    <path
       d="M1082 1178 c-6 -15 -9 -35 -6 -43 4 -8 2 -15 -4 -15 -5 0 -13 -15 -16 -34 -4 -22 -14 -37 -26 -41 -11 -4 -20 -13 -20 -21 0 -8 -7 -14 -15 -14 -16 0 -21 -26 -6 -32 6 -1 12 -25 16 -52 5 -48 11 -64 19 -55 2 2 0 30 -3 62 -7 57 3 103 12 56 4 -23 4 -22 6 4 0 15 5 27 11 27 5 0 7 -7 4 -15 -4 -8 -1 -15 5 -15 6 0 11 17 11 40 0 23 5 40 11 40 6 0 9 -6 6 -14 -3 -8 -3 -17 1 -21 4 -4 7 -10 7 -13 3 -39 18 -102 24 -102 4 0 21 -33 36 -72 25 -63 73 -151 117 -211 7 -10 42 -30 78 -45 59 -24 77 -27 190 -27 114 0 130 2 181 26 65 31 131 87 165 141 36 57 29 55 -32 -11 -31 -34 -61 -61 -66 -61 -6 0 -28 -14 -49 -31 -21 -17 -39 -28 -39 -26 0 3 -26 -1 -57 -9 -87 -20 -199 -18 -252 6 -24 11 -48 20 -53 20 -5 0 -16 7 -24 15 -8 8 -21 18 -27 22 -22 14 -130 225 -166 326 -15 41 -20 74 -17 113 2 31 0 68 -4 82 l-7 27 -11 -27z"
       id="path36"
       style="fill:#ffffff;fill-opacity:1" />
    <path
       d="M1684 1124 c-28 -29 -87 -52 -146 -59 -10 -1 -21 -5 -25 -10 -11 -11 110 5 124 17 7 6 20 8 28 4 9 -3 15 0 15 9 0 8 5 15 11 15 5 0 7 -4 4 -10 -3 -5 -2 -10 3 -10 14 0 20 22 12 44 -6 19 -7 19 -26 0z"
       id="path38"
       style="fill:#ffffff;fill-opacity:1" />
    <path
       d="M2007 1066 c-8 -20 4 -28 20 -14 25 20 27 -1 2 -23 l-24 -21 24 7 c20 6 23 4 18 -10 -5 -11 3 -27 23 -46 16 -17 34 -38 40 -47 9 -14 10 -12 4 8 -9 33 -23 50 -43 50 -13 0 -13 2 -2 9 8 5 10 14 6 21 -5 9 -3 11 6 6 8 -3 22 -9 32 -12 9 -4 17 -10 17 -15 0 -5 10 -8 23 -6 16 1 21 -3 19 -15 -3 -19 14 -25 20 -7 4 11 115 -13 153 -34 35 -19 52 -17 27 3 -12 10 -54 29 -93 41 -46 15 -66 25 -57 30 8 5 0 7 -19 4 -18 -2 -35 1 -38 6 -4 5 -17 9 -30 9 -13 0 -26 4 -30 10 -3 5 -12 7 -19 4 -7 -3 -16 2 -20 11 -5 13 0 15 32 10 35 -5 34 -4 -13 14 -62 24 -71 25 -78 7z"
       id="path40"
       style="fill:#ffffff;fill-opacity:1" />
    <path
       d="M935 971 c-25 -12 -27 -16 -12 -19 16 -3 15 -6 -8 -18 -37 -19 -45 -18 -40 7 3 12 1 19 -2 15 -4 -4 -8 -15 -10 -26 -2 -16 -78 -96 -222 -234 -22 -22 -44 -36 -48 -32 -4 4 10 23 32 41 21 19 36 37 33 40 -3 4 -15 -4 -27 -16 -11 -12 -24 -19 -28 -15 -5 5 3 16 17 25 14 9 44 33 67 54 23 21 43 33 45 26 3 -8 7 -7 16 3 9 12 9 19 -2 34 -14 18 -15 18 -44 -12 -16 -17 -37 -34 -46 -37 -10 -4 -14 -11 -11 -17 3 -5 -2 -10 -13 -10 -21 0 -107 -73 -107 -91 0 -7 -6 -14 -14 -17 -9 -3 -11 0 -6 8 4 7 -4 4 -19 -5 -17 -12 -26 -13 -26 -5 0 6 -6 10 -12 7 -7 -2 -12 -12 -10 -22 2 -11 -1 -14 -9 -9 -7 4 -17 1 -23 -8 -6 -8 -19 -17 -28 -21 -10 -3 -18 -13 -18 -21 0 -7 -7 -16 -15 -20 -8 -3 -21 -18 -27 -33 -11 -27 -12 -27 -15 -5 -7 34 -29 26 -25 -9 1 -4 -10 -10 -23 -13 -16 -4 -22 -11 -19 -21 4 -9 -3 -16 -20 -21 -14 -3 -25 -9 -24 -13 2 -19 -4 -31 -16 -31 -8 0 -16 -10 -18 -22 -2 -16 -9 -22 -21 -20 -11 2 -21 -6 -27 -23 -5 -14 -14 -25 -19 -25 -6 0 -8 -7 -5 -15 4 -8 10 -12 15 -9 5 3 9 1 9 -5 0 -18 -20 -23 -26 -7 -6 16 -24 12 -24 -5 0 -6 5 -7 11 -3 8 4 9 -1 4 -16 -5 -17 -4 -21 5 -15 8 5 11 4 6 -3 -3 -6 -14 -9 -24 -7 -17 3 -20 -6 -23 -72 -1 -12 -6 -21 -12 -20 -12 2 -25 -36 -26 -78 0 -29 0 -29 14 8 17 49 28 61 21 22 -9 -44 10 -2 24 54 19 73 23 38 6 -51 -19 -100 -20 -118 -5 -118 6 0 9 7 6 15 -4 8 -2 17 2 19 5 3 11 29 15 58 14 103 17 123 28 158 15 49 58 130 69 130 15 0 11 -15 -19 -71 -38 -74 -52 -119 -51 -160 1 -32 2 -32 10 11 8 41 23 77 87 208 27 55 49 81 37 43 -3 -11 -4 -21 -1 -21 3 0 9 15 14 33 10 37 43 45 52 13 11 -39 28 -29 23 13 -4 27 -2 41 6 41 6 0 11 -3 12 -7 8 -71 40 -217 51 -230 6 -7 8 -19 5 -27 -3 -8 -2 -16 2 -18 4 -2 23 -49 41 -105 18 -57 37 -103 41 -103 4 0 1 21 -7 48 -9 26 -20 65 -26 87 -5 22 -13 49 -18 60 -13 32 -23 59 -25 70 -1 6 -3 12 -5 15 -3 5 -8 31 -13 65 -2 11 -6 25 -9 30 -3 6 -9 36 -13 68 -4 31 -12 57 -19 57 -6 0 -2 7 8 15 29 22 126 114 126 120 0 3 -8 5 -17 5 -14 0 -14 3 -5 12 10 10 15 10 22 -1 7 -12 17 -7 55 23 25 21 48 36 51 33 6 -5 -7 -19 -64 -66 -35 -29 -39 -36 -27 -45 9 -6 31 -78 52 -164 20 -83 41 -152 46 -152 5 0 7 12 4 28 -39 181 -51 229 -59 240 -6 7 -8 15 -5 19 4 3 0 15 -8 27 -14 19 -13 22 12 43 14 13 29 23 32 23 11 0 28 -35 41 -87 15 -57 36 -75 25 -20 -4 17 -10 34 -14 37 -11 9 -13 80 -2 80 11 0 20 -29 46 -145 35 -156 95 -328 103 -293 2 9 -15 72 -38 140 -36 108 -57 188 -62 238 -1 8 -7 25 -14 39 -9 17 -10 30 -3 43 11 21 25 24 26 6 3 -37 11 -79 16 -85 4 -3 7 -15 7 -25 0 -10 5 -18 10 -18 13 0 13 5 -9 83 l-19 68 73 75 c40 41 78 74 84 74 6 0 11 3 11 8 0 8 73 42 90 42 6 0 10 10 11 23 0 21 1 21 9 2 8 -18 9 -17 9 7 1 34 -7 38 -44 19z m-475 -351 c0 -5 -4 -10 -8 -10 -11 0 -132 -119 -132 -129 0 -5 -7 -12 -16 -15 -13 -5 -15 -2 -11 16 6 21 4 21 -19 -6 -14 -15 -27 -26 -30 -23 -7 7 34 49 51 51 7 1 44 30 81 64 69 61 84 71 84 52z"
       id="path42"
       style="fill:#ffffff;fill-opacity:1" />
    <path
       d="M2016 936 c3 -11 12 -34 20 -50 18 -37 18 -39 -2 -32 -12 4 -10 -4 8 -37 13 -23 26 -43 31 -45 4 -2 7 -8 7 -14 0 -6 12 -22 26 -35 14 -13 23 -27 19 -31 -4 -4 -22 11 -41 32 -19 22 -34 34 -34 28 0 -6 5 -14 10 -17 15 -9 12 -27 -2 -19 -7 4 -2 -5 11 -20 14 -14 30 -25 35 -23 6 3 18 1 26 -3 8 -4 24 -3 35 1 18 9 18 9 -2 5 -13 -2 -26 0 -29 5 -3 5 3 9 13 9 17 1 17 1 1 11 -17 9 -78 91 -78 103 0 3 7 6 15 6 8 0 15 -6 15 -13 0 -7 9 -23 20 -35 11 -12 20 -23 20 -26 0 -3 14 -19 30 -36 42 -43 57 -33 17 11 -18 19 -55 67 -82 105 -27 38 -53 71 -57 72 -14 6 -9 22 7 22 8 0 15 -4 15 -9 0 -5 9 -20 20 -33 10 -12 43 -54 72 -93 62 -84 67 -89 93 -99 18 -7 19 -8 3 -17 -13 -7 -15 -15 -9 -27 5 -9 19 -64 31 -122 13 -58 29 -120 36 -139 8 -18 14 -50 14 -70 0 -20 9 -73 20 -119 11 -45 22 -103 24 -128 3 -45 11 -62 22 -51 7 7 -11 119 -32 191 -8 27 -14 68 -14 90 -1 23 -10 77 -21 121 -11 44 -21 87 -23 95 -1 8 -5 22 -9 30 -11 26 -27 94 -27 114 0 15 3 16 14 6 8 -6 13 -17 10 -25 -5 -13 13 -31 22 -23 8 9 -9 68 -18 62 -6 -4 -36 20 -68 53 -42 44 -57 67 -58 89 -1 62 -6 104 -14 104 -4 0 -8 9 -8 19 0 11 -4 22 -8 25 -14 8 -1 -97 14 -119 18 -25 18 -36 -1 -29 -8 4 -15 11 -15 16 0 22 -86 126 -108 131 -19 4 -22 1 -16 -17z"
       id="path44"
       style="fill:#ffffff;fill-opacity:1" />
    <path
       d="M1068 935 c-3 -6 -1 -26 5 -45 5 -19 11 -30 14 -23 6 15 -12 80 -19 68z"
       id="path46"
       style="fill:#ffffff;fill-opacity:1" />
    <path
       d="M2204 931 c4 -5 1 -11 -6 -13 -6 -2 4 -12 23 -21 40 -20 69 -41 69 -51 0 -4 14 -37 30 -73 17 -35 30 -69 30 -74 0 -5 4 -9 10 -9 5 0 15 -20 21 -45 6 -25 15 -45 19 -45 8 0 -21 105 -33 116 -4 4 -7 15 -7 25 0 9 -3 19 -7 21 -5 2 -18 23 -30 48 -16 31 -19 46 -11 49 7 2 -12 15 -42 28 -29 13 -50 26 -47 29 3 4 22 -1 41 -10 19 -9 41 -16 49 -16 9 0 19 -4 22 -10 3 -5 17 -10 30 -10 13 0 27 -4 30 -10 3 -5 -2 -10 -12 -10 -10 0 -14 -4 -8 -8 6 -4 24 -34 41 -66 17 -33 36 -62 42 -64 7 -2 7 5 -1 22 -7 14 -15 26 -19 26 -5 0 -8 6 -8 13 0 6 -7 25 -15 41 -17 32 -13 45 8 28 8 -7 17 -9 20 -5 9 8 47 -27 47 -44 0 -7 3 -13 8 -13 10 0 46 -81 43 -97 -1 -7 3 -13 9 -13 5 0 10 -9 10 -20 0 -11 6 -20 14 -20 12 0 12 7 -2 43 -9 23 -27 62 -40 85 -13 24 -21 47 -17 50 8 8 45 -40 39 -50 -3 -4 -1 -8 3 -8 9 0 48 -81 44 -94 -1 -4 2 -13 7 -20 5 -6 15 -35 22 -64 16 -70 35 -82 26 -16 -3 26 -11 53 -16 58 -6 6 -10 16 -10 24 0 7 -9 32 -19 55 -11 23 -20 47 -21 52 -1 6 -13 25 -26 43 -21 27 -23 33 -10 38 9 3 13 10 10 15 -3 5 0 9 6 9 8 0 10 -9 6 -23 -4 -19 0 -26 20 -36 17 -7 24 -17 20 -27 -3 -8 -2 -13 3 -10 9 6 49 -36 68 -70 6 -12 15 -38 18 -58 4 -20 11 -36 16 -36 12 0 0 59 -20 95 -9 16 -28 43 -43 60 -31 34 -35 45 -13 45 9 0 12 6 9 15 -4 10 0 15 11 15 13 0 16 -6 12 -21 -4 -14 -2 -19 8 -15 8 3 15 -4 18 -17 2 -12 8 -31 12 -41 6 -15 5 -17 -5 -11 -9 5 -11 4 -6 -4 4 -6 11 -9 16 -6 4 3 13 -2 20 -10 7 -8 16 -12 21 -9 5 3 9 0 9 -5 0 -6 9 -11 21 -11 11 0 29 -5 40 -10 10 -6 19 -7 19 -3 0 10 -66 53 -80 53 -5 0 -10 5 -10 10 0 6 -7 10 -17 10 -9 0 -13 3 -10 7 4 3 2 12 -4 20 -9 9 -8 13 0 13 6 0 -7 16 -29 36 -43 39 -82 41 -75 4 5 -24 -4 -25 -31 -5 -12 9 -14 14 -6 15 7 0 10 5 6 12 -4 7 -3 8 4 4 7 -4 19 -3 28 2 14 8 12 11 -12 24 -28 13 -76 11 -75 -4 3 -28 -1 -36 -20 -41 -12 -3 -22 0 -25 8 -3 7 -15 16 -27 19 -12 3 -18 8 -15 11 3 4 16 1 28 -5 11 -6 26 -10 32 -8 11 4 -87 58 -104 58 -17 0 -7 -18 12 -23 20 -5 28 -27 10 -27 -5 0 -10 4 -10 9 0 5 -17 15 -37 21 -21 6 -47 15 -58 20 -27 13 -108 40 -118 40 -5 0 -6 -4 -3 -9z"
       id="path48"
       style="fill:#ffffff;fill-opacity:1" />
    <path
       d="M812 909 c-12 -11 -27 -17 -32 -14 -6 4 -10 3 -9 -2 1 -4 -1 -16 -6 -26 -4 -10 -6 -20 -3 -22 5 -6 88 66 88 76 0 15 -15 10 -38 -12z"
       id="path50"
       style="fill:#ffffff;fill-opacity:1" />
    <path
       d="M897 869 c-26 -16 -50 -29 -53 -29 -3 0 -23 -17 -45 -37 -38 -36 -49 -66 -30 -78 6 -3 10 -13 9 -23 0 -30 18 -122 27 -130 14 -15 13 13 -5 99 -24 113 -24 109 -5 109 9 0 16 -14 20 -37 4 -21 10 -59 15 -84 5 -26 12 -87 16 -135 3 -49 7 -91 9 -94 2 -3 7 -37 10 -75 4 -39 8 -72 10 -75 2 -3 8 -50 14 -105 17 -146 22 -175 31 -175 8 0 5 78 -5 110 -2 8 -7 40 -10 70 -3 30 -10 80 -15 110 -5 30 -12 84 -15 120 -5 62 -10 114 -20 218 -2 26 -11 73 -20 105 -8 32 -15 62 -15 67 0 5 19 18 43 29 47 22 94 57 87 65 -3 3 -27 -8 -53 -25z"
       id="path52"
       style="fill:#ffffff;fill-opacity:1" />
    <path
       d="M2196 858 c4 -24 8 -53 9 -66 1 -12 11 -35 24 -50 l21 -27 -6 35 c-4 19 -10 41 -15 50 -5 8 -13 34 -19 58 -6 23 -13 42 -16 42 -3 0 -2 -19 2 -42z"
       id="path54"
       style="fill:#ffffff;fill-opacity:1" />
    <path
       d="M2230 873 c0 -16 58 -140 83 -176 19 -29 42 -125 53 -222 3 -27 18 -111 35 -185 36 -169 38 -177 45 -220 8 -55 14 -70 28 -70 9 0 7 25 -10 97 -12 54 -23 98 -24 98 -1 0 -3 12 -5 27 -2 14 -11 66 -20 115 -20 106 -25 136 -30 187 -3 22 -8 49 -12 60 -4 12 -8 23 -8 26 -13 50 -19 67 -28 78 -14 18 -67 125 -67 137 -1 15 -40 62 -40 48z"
       id="path56"
       style="fill:#ffffff;fill-opacity:1" />
    <path
       d="M936 846 c-21 -21 -24 -91 -5 -111 7 -7 9 8 6 43 -4 40 -1 54 10 61 9 4 14 12 12 18 -2 5 -13 0 -23 -11z"
       id="path58"
       style="fill:#ffffff;fill-opacity:1" />
    <path
       d="M1058 859 c-3 -9 -2 -22 2 -29 4 -7 4 -20 -2 -29 -7 -11 -6 -28 1 -51 10 -35 10 -35 6 10 -4 39 -3 41 5 15 5 -16 14 -48 19 -70 9 -37 9 -35 4 15 -9 84 -28 158 -35 139z"
       id="path60"
       style="fill:#ffffff;fill-opacity:1" />
    <path
       d="M1017 853 c-5 -7 -5 -18 -2 -23 3 -6 7 -28 7 -50 0 -22 5 -40 10 -40 6 0 8 12 5 30 -4 16 -2 32 3 35 6 3 10 11 10 16 0 6 -4 8 -9 4 -5 -3 -11 5 -13 17 -2 16 -6 19 -11 11z"
       id="path62"
       style="fill:#ffffff;fill-opacity:1" />
    <path
       d="M1091 845 c0 -5 3 -26 9 -45 5 -19 11 -53 14 -76 8 -70 18 -114 27 -120 5 -3 9 -20 9 -39 0 -18 6 -35 13 -38 12 -5 50 -161 62 -256 2 -17 6 -34 8 -38 3 -5 8 -34 12 -66 3 -32 10 -81 15 -109 6 -28 10 -52 10 -54 0 -2 5 -4 11 -4 5 0 8 3 5 8 -2 4 -7 36 -11 72 -3 36 -20 133 -36 215 -36 178 -37 186 -40 278 -3 79 -16 157 -30 171 -5 6 -9 16 -9 22 0 19 -20 67 -25 62 -3 -3 8 -62 25 -132 16 -70 30 -134 30 -142 0 -25 -26 -15 -28 11 -4 53 -5 60 -12 70 -8 10 -17 49 -25 100 -5 35 -33 125 -34 110z"
       id="path64"
       style="fill:#ffffff;fill-opacity:1" />
    <path
       d="M2350 827 c0 -4 9 -24 20 -44 11 -21 20 -45 20 -55 0 -9 4 -19 9 -22 5 -4 12 -25 16 -49 4 -23 12 -48 17 -54 6 -7 7 -13 4 -13 -4 0 -3 -8 3 -17 5 -10 32 -133 61 -273 28 -140 56 -259 61 -264 13 -14 23 0 14 21 -4 10 -10 33 -12 52 -2 19 -8 42 -13 51 -5 10 -12 35 -15 56 -4 22 -8 48 -11 59 -2 11 -9 52 -14 90 -5 39 -13 77 -16 85 -4 8 -9 31 -11 50 -2 19 -8 39 -12 45 -4 5 -13 37 -21 70 -7 32 -16 66 -20 75 -5 8 -17 35 -28 60 -20 45 -51 91 -52 77z"
       id="path66"
       style="fill:#ffffff;fill-opacity:1" />
    <path
       d="M2447 803 c3 -10 9 -22 12 -28 3 -5 6 -12 7 -15 6 -28 42 -90 51 -90 9 0 6 11 -7 35 -11 19 -21 38 -21 43 -8 32 -13 42 -20 42 -5 0 -9 7 -9 15 0 8 -4 15 -10 15 -5 0 -7 -8 -3 -17z"
       id="path68"
       style="fill:#ffffff;fill-opacity:1" />
    <path
       d="M861 743 c10 -38 18 -78 18 -90 1 -13 6 -23 11 -23 11 0 5 35 -17 114 -3 12 -1 16 6 12 6 -4 11 -16 11 -26 0 -10 5 -22 10 -25 18 -11 -1 48 -22 68 -10 10 -16 22 -13 28 4 5 0 9 -8 9 -11 0 -10 -12 4 -67z"
       id="path70"
       style="fill:#ffffff;fill-opacity:1" />
    <path
       d="M2004 703 c1 -34 5 -49 16 -51 12 -2 15 -22 16 -100 0 -82 10 -293 19 -382 1 -14 3 -58 3 -97 1 -47 6 -73 13 -73 8 0 10 31 4 113 -11 185 -18 372 -15 392 2 6 1 15 0 20 -4 15 -7 55 -8 108 -1 30 -6 47 -14 47 -7 0 -14 12 -15 26 -2 50 -21 48 -19 -3z"
       id="path72"
       style="fill:#ffffff;fill-opacity:1" />
    <path
       d="M1903 725 c-3 -9 -3 -29 1 -46 3 -17 1 -39 -4 -49 -7 -13 -6 -20 2 -22 7 -3 8 -10 4 -17 -6 -9 -11 -10 -15 -2 -4 6 -15 -5 -26 -24 -18 -35 -16 -53 4 -40 6 3 11 15 11 26 0 16 13 23 40 21 5 0 5 26 -2 120 -3 52 -5 56 -15 33z"
       id="path74"
       style="fill:#ffffff;fill-opacity:1" />
    <path
       d="M2620 732 c0 -6 5 -14 10 -17 6 -4 7 -11 4 -17 -4 -6 -2 -13 3 -17 13 -8 43 -87 43 -111 0 -11 5 -20 11 -20 13 0 2 58 -15 79 -6 8 -9 15 -7 15 9 2 -21 75 -35 86 -9 8 -14 9 -14 2z"
       id="path76"
       style="fill:#ffffff;fill-opacity:1" />
    <path
       d="M724 713 c16 -55 28 -110 32 -144 3 -21 11 -51 19 -66 8 -15 15 -36 15 -45 0 -9 5 -20 10 -23 12 -7 4 34 -25 135 -1 3 -5 28 -9 55 -4 28 -12 62 -18 78 -11 29 -33 38 -24 10z"
       id="path78"
       style="fill:#ffffff;fill-opacity:1" />
    <path
       d="M1030 728 c-1 -2 -2 -56 -4 -121 -2 -82 0 -115 7 -108 13 13 18 231 6 231 -5 0 -9 -1 -9 -2z"
       id="path80"
       style="fill:#ffffff;fill-opacity:1" />
    <path
       d="M935 698 c8 -30 13 -76 14 -110 1 -16 5 -28 9 -28 12 0 13 61 2 99 -7 24 -6 38 1 48 9 10 7 13 -10 13 -17 0 -20 -4 -16 -22z"
       id="path82"
       style="fill:#ffffff;fill-opacity:1" />
    <path
       d="M1065 689 c4 -12 7 -36 7 -55 0 -19 5 -34 10 -34 6 0 8 13 4 31 -3 17 -6 42 -6 55 0 13 -5 24 -11 24 -6 0 -8 -9 -4 -21z"
       id="path84"
       style="fill:#ffffff;fill-opacity:1" />
    <path
       d="M2456 693 c-3 -3 -2 -11 3 -17 4 -6 14 -40 21 -76 7 -36 17 -70 22 -76 5 -7 8 -16 7 -20 -2 -5 3 -27 9 -49 6 -22 12 -56 13 -75 2 -19 7 -40 12 -47 5 -7 6 -16 3 -21 -4 -7 2 -42 20 -107 3 -11 7 -29 10 -40 2 -11 10 -46 18 -78 8 -33 12 -65 9 -73 -3 -8 0 -14 7 -14 12 0 9 88 -5 140 -4 14 -8 34 -11 45 -2 11 -22 106 -44 210 -22 105 -44 197 -49 206 -5 9 -13 33 -16 53 -7 37 -17 51 -29 39z"
       id="path86"
       style="fill:#ffffff;fill-opacity:1" />
    <path
       d="M913 630 c5 -33 12 -59 14 -56 7 7 -8 116 -16 116 -4 0 -3 -27 2 -60z"
       id="path88"
       style="fill:#ffffff;fill-opacity:1" />
    <path
       d="M2063 665 c4 -11 13 -51 22 -90 8 -38 18 -81 21 -94 4 -17 8 -21 16 -13 6 6 7 16 2 24 -5 7 -9 20 -9 28 -3 63 -20 131 -37 147 -20 17 -20 17 -15 -2z"
       id="path90"
       style="fill:#ffffff;fill-opacity:1" />
    <path
       d="M1222 636 c0 -43 13 -67 22 -39 6 19 -8 73 -18 73 -2 0 -4 -15 -4 -34z"
       id="path92"
       style="fill:#ffffff;fill-opacity:1" />
    <path
       d="M2765 650 c17 -11 25 -20 18 -20 -26 0 1 -30 32 -36 37 -7 95 -55 95 -79 0 -14 26 -63 41 -75 3 -3 11 -14 17 -25 10 -18 11 -18 12 -2 0 10 5 15 10 12 6 -3 10 -2 10 4 0 16 -18 22 -23 9 -3 -9 -8 -6 -13 7 -4 11 -18 36 -30 57 -13 20 -21 46 -19 58 3 17 1 19 -8 11 -10 -7 -20 -4 -40 14 -14 14 -33 25 -41 25 -8 0 -18 5 -22 11 -5 8 1 10 20 7 14 -3 26 -1 26 3 0 5 -8 9 -17 9 -10 0 -31 7 -47 15 -41 22 -56 18 -21 -5z"
       id="path94"
       style="fill:#ffffff;fill-opacity:1" />
    <path
       d="M1102 630 c0 -19 3 -55 7 -80 5 -36 8 -41 14 -24 4 11 1 47 -7 80 -12 49 -14 53 -14 24z"
       id="path96"
       style="fill:#ffffff;fill-opacity:1" />
    <path
       d="M2120 649 c0 -8 5 -32 10 -54 5 -22 11 -60 14 -85 8 -66 23 -143 35 -171 29 -74 63 -207 66 -262 4 -81 3 -79 15 -72 5 3 7 30 4 63 -3 31 -7 71 -8 87 -3 31 -25 102 -37 120 -4 6 -18 62 -32 125 -40 182 -46 212 -41 225 3 6 -2 18 -11 25 -12 10 -15 10 -15 -1z"
       id="path98"
       style="fill:#ffffff;fill-opacity:1" />
    <path
       d="M2516 651 c-4 -5 -2 -12 3 -15 5 -3 12 -26 15 -51 4 -24 12 -48 18 -51 7 -5 9 1 5 17 -3 13 -9 41 -12 62 -8 39 -19 54 -29 38z"
       id="path100"
       style="fill:#ffffff;fill-opacity:1" />
    <path
       d="M984 616 c2 -19 0 -56 -4 -83 -9 -55 -5 -67 9 -31 14 38 17 141 4 145 -7 3 -10 -9 -9 -31z"
       id="path102"
       style="fill:#ffffff;fill-opacity:1" />
    <path
       d="M2205 633 c4 -10 9 -34 11 -53 8 -62 36 -185 45 -195 5 -5 9 -15 9 -21 0 -28 21 -67 31 -57 6 6 5 19 -4 37 -8 15 -27 90 -43 166 -20 98 -33 140 -42 140 -9 0 -12 -6 -7 -17z"
       id="path104"
       style="fill:#ffffff;fill-opacity:1" />
    <path
       d="M557 624 c-4 -4 -3 -12 1 -18 4 -6 7 -13 8 -16 0 -3 3 -12 7 -20 13 -34 27 -89 37 -150 7 -36 15 -69 20 -75 4 -5 16 -48 25 -95 9 -47 21 -90 26 -96 5 -6 6 -14 3 -17 -4 -3 2 -23 12 -44 10 -21 18 -42 19 -48 0 -5 5 -19 12 -30 21 -37 24 -8 4 46 -11 30 -29 90 -40 134 -11 44 -34 132 -51 195 -17 63 -32 124 -33 135 -2 12 -6 25 -9 30 -3 6 -9 25 -13 43 -6 31 -15 39 -28 26z"
       id="path106"
       style="fill:#ffffff;fill-opacity:1" />
    <path
       d="M2576 584 c3 -22 10 -44 15 -50 5 -6 6 -14 2 -17 -3 -4 -1 -13 6 -21 6 -7 12 -30 13 -50 1 -20 5 -39 11 -43 9 -6 5 101 -6 127 -3 8 -10 30 -15 49 -12 51 -35 54 -26 5z"
       id="path108"
       style="fill:#ffffff;fill-opacity:1" />
    <path
       d="M2177 604 c-3 -3 -4 -20 0 -38 13 -75 54 -253 63 -271 5 -11 14 -37 20 -58 9 -27 15 -36 23 -28 7 7 7 14 -2 25 -6 7 -11 18 -9 22 2 10 -18 77 -33 109 -14 30 -49 197 -43 207 7 11 -10 40 -19 32z"
       id="path110"
       style="fill:#ffffff;fill-opacity:1" />
    <path
       d="M466 573 c4 -10 18 -61 31 -113 13 -52 27 -102 30 -110 3 -8 7 -19 8 -25 13 -94 26 -128 42 -111 5 5 -25 142 -35 161 -4 5 -7 16 -7 25 -3 24 -15 81 -31 138 -10 35 -20 52 -30 52 -12 0 -14 -5 -8 -17z"
       id="path112"
       style="fill:#ffffff;fill-opacity:1" />
    <path
       d="M1072 568 c1 -13 -2 -34 -6 -48 -7 -24 -6 -24 8 -6 18 22 22 76 6 76 -5 0 -9 -10 -8 -22z"
       id="path114"
       style="fill:#ffffff;fill-opacity:1" />
    <path
       d="M2785 553 c2 -19 5 -36 7 -37 2 0 22 -16 46 -34 57 -44 57 -16 0 32 -36 30 -39 36 -22 36 12 0 33 -11 48 -25 15 -14 26 -19 26 -11 0 17 -26 38 -71 58 l-37 17 3 -36z"
       id="path116"
       style="fill:#ffffff;fill-opacity:1" />
    <path
       d="M1247 574 c-3 -4 0 -16 8 -28 15 -23 49 -175 59 -263 8 -71 35 -225 41 -231 3 -3 7 -3 9 -1 7 7 -24 212 -34 231 -6 11 -6 19 0 23 18 11 28 -4 35 -52 14 -88 15 -98 19 -133 4 -42 25 -120 32 -120 7 0 -9 137 -23 195 -4 17 -2 18 7 5 9 -12 10 -7 4 20 -3 19 -13 43 -21 52 -14 16 -14 18 1 24 10 4 21 3 25 -2 8 -9 30 -87 53 -184 5 -25 14 -49 19 -54 5 -6 9 -18 9 -27 0 -10 5 -21 11 -25 13 -8 4 56 -11 85 -11 19 -50 204 -45 209 2 2 11 -13 21 -33 10 -22 20 -32 24 -25 9 15 70 -36 70 -58 0 -10 7 -28 15 -42 8 -14 19 -36 25 -49 6 -13 13 -21 17 -18 3 3 -4 22 -15 40 -11 19 -23 50 -27 68 -7 33 -68 99 -91 99 -7 0 -14 7 -17 14 -3 8 -23 18 -44 22 -21 4 -46 11 -55 15 -10 6 -19 5 -23 -1 -8 -14 -25 -3 -25 16 0 8 5 12 10 9 16 -10 12 11 -5 25 -8 7 -12 16 -9 22 3 5 16 -2 30 -15 13 -13 43 -30 66 -37 24 -8 57 -23 73 -34 l30 -20 -18 21 c-10 12 -42 31 -70 43 -91 39 -146 109 -149 187 -1 30 -15 42 -31 27z"
       id="path118"
       style="fill:#ffffff;fill-opacity:1" />
    <path
       d="M1217 563 c-4 -3 -2 -13 2 -22 8 -15 24 -90 26 -121 0 -8 4 -21 8 -27 5 -7 5 -18 2 -23 -4 -6 -1 -18 6 -26 6 -8 10 -17 7 -20 -3 -3 1 -37 8 -75 7 -39 16 -94 19 -122 10 -102 17 -127 31 -127 17 0 17 1 4 36 -9 24 -22 110 -23 154 0 8 -8 55 -19 105 -16 78 -24 130 -32 197 -1 10 -5 21 -9 24 -4 4 -7 15 -7 25 0 19 -13 32 -23 22z"
       id="path120"
       style="fill:#ffffff;fill-opacity:1" />
    <path
       d="M431 546 c-7 -9 -9 -16 -3 -16 9 0 17 -30 29 -105 4 -26 16 -75 39 -160 3 -11 7 -27 9 -35 1 -8 5 -22 8 -30 3 -8 13 -40 22 -70 9 -30 20 -64 25 -75 4 -11 11 -28 14 -37 3 -10 10 -18 16 -18 12 0 13 22 2 36 -5 5 -17 36 -26 69 -10 33 -22 69 -26 80 -5 11 -25 88 -45 170 -51 220 -48 210 -64 191z"
       id="path122"
       style="fill:#ffffff;fill-opacity:1" />
    <path
       d="M724 522 c4 -34 30 -122 55 -184 5 -12 12 -32 15 -42 4 -10 9 -17 11 -14 7 6 -15 109 -25 123 -4 6 -16 43 -26 83 -20 77 -38 97 -30 34z"
       id="path124"
       style="fill:#ffffff;fill-opacity:1" />
    <path
       d="M809 554 c-3 -24 4 -70 11 -78 5 -5 6 11 3 35 -6 43 -12 62 -14 43z"
       id="path126"
       style="fill:#ffffff;fill-opacity:1" />
    <path
       d="M2930 548 c0 -7 16 -30 35 -51 43 -47 45 -40 5 19 -32 46 -40 52 -40 32z"
       id="path128"
       style="fill:#ffffff;fill-opacity:1" />
    <path
       d="M930 511 c0 -39 14 -33 25 10 5 19 2 26 -9 26 -12 0 -16 -10 -16 -36z"
       id="path130"
       style="fill:#ffffff;fill-opacity:1" />
    <path
       d="M1998 538 c-5 -13 -1 -203 6 -328 2 -36 4 -89 5 -117 1 -32 5 -53 12 -53 8 0 10 41 5 147 -17 368 -18 379 -28 351z"
       id="path132"
       style="fill:#ffffff;fill-opacity:1" />
    <path
       d="M2405 540 c-3 -5 -3 -16 2 -22 4 -7 9 -22 10 -33 3 -35 12 -90 38 -217 43 -215 57 -268 70 -268 10 0 9 20 -6 88 -11 48 -23 96 -26 107 -9 26 -12 42 -19 90 -3 22 -8 47 -11 55 -3 8 -7 26 -9 40 -9 71 -28 161 -35 166 -4 2 -10 0 -14 -6z"
       id="path134"
       style="fill:#ffffff;fill-opacity:1" />
    <path
       d="M2672 492 c-17 -60 -30 -176 -21 -187 9 -8 14 7 10 29 -1 5 1 16 5 25 8 19 11 31 19 91 7 51 13 63 25 55 9 -6 7 -57 -3 -85 -18 -49 -48 -225 -45 -266 3 -45 5 -41 26 63 12 61 25 126 27 145 3 18 7 44 11 58 3 14 7 42 7 64 2 35 -1 39 -24 42 -23 2 -28 -3 -37 -34z"
       id="path136"
       style="fill:#ffffff;fill-opacity:1" />
    <path
       d="M395 493 c4 -16 11 -48 15 -73 10 -54 17 -85 41 -180 6 -25 15 -54 19 -65 17 -41 50 -146 50 -160 0 -8 7 -15 15 -15 11 0 12 5 6 22 -5 13 -19 57 -31 98 -13 41 -26 84 -31 95 -14 33 -50 198 -44 203 3 3 0 11 -6 18 -5 7 -12 25 -13 41 -2 15 -4 31 -5 36 0 4 -6 7 -12 7 -7 0 -9 -10 -4 -27z"
       id="path138"
       style="fill:#ffffff;fill-opacity:1" />
    <path
       d="M894 480 c0 -27 5 -40 14 -40 9 0 12 6 8 16 -3 9 -6 27 -6 40 0 13 -4 24 -9 24 -5 0 -8 -18 -7 -40z"
       id="path140"
       style="fill:#ffffff;fill-opacity:1" />
    <path
       d="M1136 512 c-4 -6 7 -81 23 -165 17 -83 33 -172 36 -197 9 -78 26 -150 36 -150 9 0 4 68 -12 137 -5 24 -8 46 -7 50 1 5 -4 26 -10 47 -6 22 -9 42 -7 46 2 4 0 24 -6 45 -15 55 -20 73 -33 140 -7 35 -15 55 -20 47z"
       id="path142"
       style="fill:#ffffff;fill-opacity:1" />
    <path
       d="M2553 499 c3 -13 17 -85 32 -159 15 -74 31 -139 36 -144 12 -13 9 66 -3 81 -5 7 -7 16 -4 21 3 5 -2 35 -10 68 -8 32 -16 68 -18 79 -2 11 -5 22 -6 25 -2 3 -3 14 -4 24 -1 11 -7 21 -15 24 -10 3 -12 -2 -8 -19z"
       id="path144"
       style="fill:#ffffff;fill-opacity:1" />
    <path
       d="M640 506 c0 -17 43 -184 50 -196 20 -32 21 2 1 59 -11 33 -24 78 -27 100 -4 23 -10 41 -15 41 -5 0 -9 -2 -9 -4z"
       id="path146"
       style="fill:#ffffff;fill-opacity:1" />
    <path
       d="M2757 478 c-2 -18 -1 -40 4 -48 5 -10 8 1 9 33 0 55 -6 61 -13 15z"
       id="path148"
       style="fill:#ffffff;fill-opacity:1" />
    <path
       d="M1055 487 c-50 -13 -50 -13 -35 -32 7 -9 11 -18 8 -21 -3 -2 1 -30 9 -62 8 -31 15 -66 17 -77 19 -119 31 -175 38 -175 4 0 8 5 8 11 0 21 -21 155 -27 169 -3 8 -5 19 -4 23 0 4 -6 37 -14 73 -18 79 -18 74 -1 74 10 0 18 -22 27 -75 6 -41 15 -75 19 -75 4 0 1 30 -6 68 -18 90 -18 101 1 76 14 -18 14 -18 15 9 0 15 -3 26 -7 26 -5 -1 -26 -6 -48 -12z"
       id="path150"
       style="fill:#ffffff;fill-opacity:1" />
    <path
       d="M2790 477 c0 -18 78 -89 92 -85 7 3 -7 24 -34 51 -48 49 -58 55 -58 34z"
       id="path152"
       style="fill:#ffffff;fill-opacity:1" />
    <path
       d="M944 394 c3 -44 8 -95 10 -114 7 -64 49 -265 56 -273 17 -20 16 15 -6 128 -13 66 -26 142 -29 168 -3 27 -7 53 -10 58 -3 4 -6 29 -7 54 0 25 -5 48 -10 52 -7 3 -8 -22 -4 -73z"
       id="path154"
       style="fill:#ffffff;fill-opacity:1" />
    <path
       d="M979 463 c-1 -5 0 -12 1 -18 1 -5 3 -19 5 -30 1 -11 5 -39 9 -63 4 -23 9 -52 10 -65 7 -61 51 -273 58 -282 11 -13 -5 148 -19 185 -5 15 -7 24 -17 105 -3 22 -6 42 -7 45 -1 3 -2 10 -4 15 -1 6 -3 12 -4 15 -5 10 -11 55 -11 78 0 20 -18 33 -21 15z"
       id="path156"
       style="fill:#ffffff;fill-opacity:1" />
    <path
       d="M2900 441 c0 -4 10 -23 23 -42 12 -19 31 -51 40 -72 20 -42 43 -42 24 1 -33 75 -87 146 -87 113z"
       id="path158"
       style="fill:#ffffff;fill-opacity:1" />
    <path
       d="M275 421 c-3 -10 -3 -25 0 -34 4 -8 2 -18 -4 -22 -6 -3 -11 0 -11 7 -1 44 -61 -134 -89 -265 -24 -113 -24 -107 -12 -107 5 0 17 42 26 92 26 143 52 214 93 259 15 17 20 29 13 34 -6 3 -8 17 -5 31 7 28 -2 33 -11 5z"
       id="path160"
       style="fill:#ffffff;fill-opacity:1" />
    <path
       d="M1100 436 c0 -3 6 -35 14 -73 8 -37 17 -88 20 -113 13 -107 45 -250 55 -250 4 0 2 28 -6 63 -7 34 -13 76 -15 92 -1 17 -5 38 -10 47 -5 10 -4 19 2 23 7 5 8 11 1 18 -5 7 -17 54 -27 105 -10 50 -22 92 -26 92 -4 0 -8 -2 -8 -4z"
       id="path162"
       style="fill:#ffffff;fill-opacity:1" />
    <path
       d="M2089 435 c-7 -6 -5 -46 7 -200 3 -44 7 -105 9 -135 4 -94 5 -100 15 -100 6 0 8 25 5 63 -3 34 -7 118 -10 187 -6 128 -15 196 -26 185z"
       id="path164"
       style="fill:#ffffff;fill-opacity:1" />
    <path
       d="M901 373 c0 -32 8 -101 18 -153 10 -52 17 -100 14 -106 -4 -12 14 -30 23 -21 2 2 -5 51 -16 109 -11 57 -21 130 -21 161 -1 32 -6 60 -10 63 -5 3 -9 -21 -8 -53z"
       id="path166"
       style="fill:#ffffff;fill-opacity:1" />
    <path
       d="M2790 413 c0 -5 16 -26 35 -47 19 -21 32 -43 29 -47 -8 -13 -11 -12 -39 18 -40 44 -29 7 16 -53 45 -59 61 -65 35 -13 -20 40 -6 61 18 28 9 -13 16 -30 16 -38 0 -13 12 -41 76 -176 29 -61 31 -45 5 33 -18 53 -45 108 -100 207 -35 61 -91 116 -91 88z"
       id="path168"
       style="fill:#ffffff;fill-opacity:1" />
    <path
       d="M1955 228 c5 -101 8 -193 8 -205 -1 -13 5 -23 12 -23 13 0 13 -2 1 215 -3 55 -6 121 -7 148 -1 26 -7 47 -12 47 -6 0 -6 -68 -2 -182z"
       id="path170"
       style="fill:#ffffff;fill-opacity:1" />
    <path
       d="M2736 318 c-23 -123 -48 -232 -57 -238 -12 -9 -22 -73 -10 -66 6 4 11 15 11 25 0 9 4 21 9 26 8 9 31 83 46 148 2 10 7 27 10 38 4 10 8 37 10 60 2 23 7 54 10 70 4 16 2 29 -3 29 -5 0 -17 -42 -26 -92z"
       id="path172"
       style="fill:#ffffff;fill-opacity:1" />
    <path
       d="M317 393 c-4 -3 -3 -11 2 -17 15 -19 32 -118 22 -130 -5 -6 -11 -24 -14 -41 -3 -16 -10 -46 -16 -65 -6 -19 -11 -59 -11 -88 0 -45 3 -53 17 -50 10 2 19 12 21 22 3 14 0 17 -11 13 -13 -5 -15 2 -11 36 6 66 28 140 42 145 14 4 17 -34 2 -43 -5 -3 -10 -23 -9 -43 l0 -37 19 40 c15 34 19 37 25 21 5 -10 4 -26 -2 -35 -6 -9 -14 -32 -17 -51 -4 -19 -10 -43 -12 -52 -3 -10 -1 -18 5 -18 6 0 11 8 11 18 1 9 8 35 16 57 18 45 19 84 4 99 -6 6 -10 18 -10 28 0 10 -7 21 -15 24 -10 4 -12 10 -6 18 6 7 3 30 -9 66 -11 30 -19 63 -20 73 0 17 -11 22 -23 10z"
       id="path174"
       style="fill:#ffffff;fill-opacity:1" />
    <path
       d="M833 280 c4 -69 11 -149 17 -179 8 -42 7 -57 -2 -63 -10 -6 -10 -8 0 -8 6 0 12 -7 12 -15 0 -8 7 -15 16 -15 8 0 13 4 10 8 -2 4 -7 30 -10 57 -4 28 -10 86 -16 130 -5 44 -12 107 -16 140 -11 106 -17 74 -11 -55z"
       id="path176"
       style="fill:#ffffff;fill-opacity:1" />
    <path
       d="M2890 377 c0 -2 17 -39 38 -83 21 -43 46 -95 55 -114 13 -28 17 -31 17 -13 0 23 -8 47 -47 131 -14 28 -29 52 -34 52 -5 0 -9 7 -9 15 0 8 -4 15 -10 15 -5 0 -10 -2 -10 -3z"
       id="path178"
       style="fill:#ffffff;fill-opacity:1" />
    <path
       d="M1905 360 c-6 -9 1 -220 9 -300 2 -14 4 -33 4 -42 1 -10 6 -18 11 -18 5 0 7 18 5 40 -2 23 -5 106 -6 185 -3 135 -7 161 -23 135z"
       id="path180"
       style="fill:#ffffff;fill-opacity:1" />
    <path
       d="M286 326 c-3 -14 -11 -26 -16 -26 -6 0 -10 -10 -10 -23 0 -13 -3 -27 -7 -31 -5 -4 -8 -11 -9 -14 0 -4 -4 -14 -7 -22 -9 -22 -44 -204 -40 -209 7 -9 13 9 33 104 24 112 44 172 67 197 10 12 12 22 5 34 -8 14 -10 13 -16 -10z"
       id="path182"
       style="fill:#ffffff;fill-opacity:1" />
    <path
       d="M2770 294 c0 -3 16 -25 35 -48 19 -24 35 -47 35 -52 0 -5 8 -18 16 -29 15 -19 15 -19 8 10 -11 48 -94 153 -94 119z"
       id="path184"
       style="fill:#ffffff;fill-opacity:1" />
    <path
       d="M700 286 c0 -22 34 -156 47 -184 8 -18 15 -49 16 -68 1 -18 5 -34 8 -34 16 0 14 52 -3 106 -10 32 -20 76 -21 96 -1 21 -8 40 -15 43 -7 3 -11 9 -8 14 3 5 -1 14 -9 21 -8 7 -15 9 -15 6z"
       id="path186"
       style="fill:#ffffff;fill-opacity:1" />
    <path
       d="M2371 259 c-1 -20 6 -50 15 -67 16 -33 32 -45 19 -14 -4 9 -13 40 -20 67 -13 48 -13 49 -14 14z"
       id="path188"
       style="fill:#ffffff;fill-opacity:1" />
    <path
       d="M2145 165 c9 -160 9 -155 20 -155 19 0 -1 251 -22 270 -3 3 -2 -49 2 -115z"
       id="path190"
       style="fill:#ffffff;fill-opacity:1" />
    <path
       d="M600 261 c0 -4 9 -35 19 -69 11 -33 23 -80 26 -106 5 -31 12 -46 22 -46 11 0 13 7 9 26 -4 15 -10 40 -13 58 -3 17 -9 36 -13 41 -5 6 -11 31 -15 58 -5 30 -12 47 -21 47 -8 0 -14 -4 -14 -9z"
       id="path192"
       style="fill:#ffffff;fill-opacity:1" />
    <path
       d="M2760 239 c0 -7 14 -34 30 -61 17 -26 30 -53 30 -58 0 -6 5 -10 10 -10 6 0 10 -8 11 -17 0 -12 2 -14 6 -5 6 16 -64 162 -78 162 -5 0 -9 -5 -9 -11z"
       id="path194"
       style="fill:#ffffff;fill-opacity:1" />
    <path
       d="M162 211 c-7 -19 -12 -42 -12 -52 0 -9 -5 -19 -10 -21 -6 -2 -12 -35 -15 -73 l-5 -70 14 60 c8 33 22 85 30 115 18 61 16 93 -2 41z"
       id="path196"
       style="fill:#ffffff;fill-opacity:1" />
    <path
       d="M276 193 c-3 -27 -9 -75 -13 -108 -10 -77 -10 -75 2 -75 11 0 12 8 20 113 3 38 9 77 15 86 9 18 4 31 -11 31 -4 0 -10 -21 -13 -47z"
       id="path198"
       style="fill:#ffffff;fill-opacity:1" />
    <path
       d="M2180 223 c0 -4 5 -24 10 -43 6 -19 11 -59 11 -87 1 -29 5 -50 10 -47 17 10 -3 168 -23 180 -4 3 -8 2 -8 -3z"
       id="path200"
       style="fill:#ffffff;fill-opacity:1" />
    <path
       d="M1819 184 c-3 -87 -7 -125 -13 -131 -3 -3 -1 -13 6 -20 9 -11 9 -17 -3 -24 -11 -7 -10 -9 6 -9 20 0 21 5 18 107 -4 107 -12 152 -14 77z"
       id="path202"
       style="fill:#ffffff;fill-opacity:1" />
    <path
       d="M2886 185 c4 -22 14 -53 22 -70 9 -16 17 -35 18 -42 4 -22 45 -73 59 -73 9 0 5 9 -11 27 -13 14 -23 31 -21 37 2 6 -5 26 -15 44 -10 18 -18 37 -18 42 0 5 -9 24 -20 42 l-21 33 7 -40z"
       id="path204"
       style="fill:#ffffff;fill-opacity:1" />
    <path
       d="M770 203 c0 -26 23 -83 31 -78 5 4 5 13 -1 25 -5 10 -10 28 -10 39 0 12 -4 21 -10 21 -5 0 -10 -3 -10 -7z"
       id="path206"
       style="fill:#ffffff;fill-opacity:1" />
    <path
       d="M570 186 c0 -8 5 -18 10 -21 6 -4 8 -11 4 -16 -3 -5 -1 -15 4 -22 5 -7 13 -30 17 -52 8 -44 22 -75 34 -75 4 0 2 24 -6 53 -8 28 -20 72 -27 96 -12 43 -36 68 -36 37z"
       id="path208"
       style="fill:#ffffff;fill-opacity:1" />
    <path
       d="M1496 163 c3 -15 12 -46 19 -68 8 -22 16 -52 19 -67 4 -16 11 -28 16 -28 13 0 13 37 0 45 -5 3 -10 16 -10 28 0 12 -7 35 -15 51 -8 15 -15 34 -15 42 0 7 -5 16 -10 19 -7 4 -9 -3 -4 -22z"
       id="path210"
       style="fill:#ffffff;fill-opacity:1" />
    <path
       d="M2310 188 c0 -2 7 -35 15 -75 8 -39 12 -78 9 -86 -3 -8 0 -18 6 -22 9 -5 11 10 8 59 -3 36 -8 69 -11 73 -4 3 -7 14 -7 24 0 10 -4 21 -10 24 -5 3 -10 5 -10 3z"
       id="path212"
       style="fill:#ffffff;fill-opacity:1" />
    <path
       d="M2740 143 c-7 -27 -17 -52 -21 -57 -5 -6 -9 -18 -9 -28 0 -10 -4 -18 -9 -18 -5 0 -11 -9 -14 -20 -4 -16 0 -20 21 -19 22 0 24 2 9 8 -18 6 -18 8 -2 21 14 12 17 10 22 -8 3 -12 9 -22 13 -22 10 0 0 49 -11 56 -5 3 -9 12 -9 21 0 29 27 -5 34 -42 4 -19 12 -35 17 -35 14 0 -1 51 -32 112 -10 21 5 33 19 15 5 -6 15 -28 21 -47 6 -19 19 -46 27 -60 15 -25 15 -24 9 14 -7 40 -17 68 -37 101 -7 11 -18 28 -24 38 -10 15 -13 11 -24 -30z"
       id="path214"
       style="fill:#ffffff;fill-opacity:1" />
    <path
       d="M1416 153 c3 -16 13 -47 20 -71 8 -24 12 -47 10 -51 -7 -10 12 -37 20 -29 3 4 -6 45 -21 92 -27 84 -42 114 -29 59z"
       id="path216"
       style="fill:#ffffff;fill-opacity:1" />
    <path
       d="M1530 170 c0 -6 11 -33 24 -60 14 -28 28 -64 31 -80 4 -17 11 -30 16 -30 11 0 11 0 -2 41 -15 47 -31 81 -47 101 -8 9 -11 22 -7 27 3 6 1 11 -4 11 -6 0 -11 -5 -11 -10z"
       id="path218"
       style="fill:#ffffff;fill-opacity:1" />
    <path
       d="M2286 98 c3 -24 6 -53 5 -65 0 -13 4 -23 9 -23 11 0 13 37 4 93 -9 52 -26 47 -18 -5z"
       id="path220"
       style="fill:#ffffff;fill-opacity:1" />
    <path
       d="M2874 88 c10 -48 29 -88 43 -88 15 0 16 5 4 28 -5 9 -17 34 -26 55 -20 46 -30 48 -21 5z"
       id="path222"
       style="fill:#ffffff;fill-opacity:1" />
    <path
       d="M102 95 c-1 -11 -5 -38 -8 -60 -4 -32 -3 -36 6 -22 6 9 9 36 7 60 -2 23 -4 33 -5 22z"
       id="path224"
       style="fill:#ffffff;fill-opacity:1" />
    <path
       d="M798 55 c-2 -34 1 -54 7 -52 12 4 16 95 5 102 -5 3 -10 -20 -12 -50z"
       id="path226"
       style="fill:#ffffff;fill-opacity:1" />
    <path
       d="M1086 101 c-4 -6 -4 -17 1 -23 4 -7 8 -20 9 -28 1 -8 2 -23 3 -32 0 -10 7 -18 15 -18 11 0 12 9 4 48 -11 51 -22 70 -32 53z"
       id="path228"
       style="fill:#ffffff;fill-opacity:1" />
    <path
       d="M413 45 c-7 -33 -7 -45 1 -42 13 4 27 69 17 80 -4 4 -12 -13 -18 -38z"
       id="path230"
       style="fill:#ffffff;fill-opacity:1" />
    <path
       d="M943 59 c4 -13 7 -32 7 -41 0 -10 6 -18 13 -18 19 0 7 72 -12 78 -10 3 -12 -1 -8 -19z"
       id="path232"
       style="fill:#ffffff;fill-opacity:1" />
  </g>
</svg>
