<?xml version="1.0" encoding="UTF-8" standalone="no"?>
<svg
   version="1.0"
   width="300.000000pt"
   height="286.000000pt"
   viewBox="0 0 300.000000 286.000000"
   preserveAspectRatio="xMidYMid meet"
   id="svg80"
   sodipodi:docname="turret.svg"
   inkscape:version="1.2.2 (732a01da63, 2022-12-09, custom)"
   xmlns:inkscape="http://www.inkscape.org/namespaces/inkscape"
   xmlns:sodipodi="http://sodipodi.sourceforge.net/DTD/sodipodi-0.dtd"
   xmlns="http://www.w3.org/2000/svg"
   xmlns:svg="http://www.w3.org/2000/svg">
  <defs
     id="defs84">
    <filter
       style="color-interpolation-filters:sRGB;"
       inkscape:label="Trichrome"
       id="filter202"
       x="0"
       y="0"
       width="1"
       height="1"
       inkscape:menu="Color"
       inkscape:menu-tooltip="Like Duochrome but with three colors">
      <feColorMatrix
         values="1 0 0 0 0 0 1 0 0 0 0 0 1 0 0 0 0 0 1 1 "
         id="feColorMatrix190" />
      <feColorMatrix
         type="hueRotate"
         values="0"
         result="colormatrix2"
         id="feColorMatrix192" />
      <feColorMatrix
         in="colormatrix2"
         values="-1 0 0 0 1 0 -1 0 0 1 0 0 -1 0 1 0 0 0 1 0 "
         result="colormatrix3"
         id="feColorMatrix194" />
      <feBlend
         in="colormatrix3"
         in2="colormatrix2"
         mode="darken"
         result="blend1"
         id="feBlend196" />
      <feBlend
         in2="blend1"
         mode="screen"
         result="blend2"
         id="feBlend198" />
      <feComposite
         in2="SourceGraphic"
         operator="in"
         id="feComposite200"
         result="fbSourceGraphic" />
      <feColorMatrix
         result="fbSourceGraphicAlpha"
         in="fbSourceGraphic"
         values="0 0 0 -1 0 0 0 0 -1 0 0 0 0 -1 0 0 0 0 1 0"
         id="feColorMatrix204" />
      <feColorMatrix
         id="feColorMatrix206"
         values="1 0 0 0 0 0 1 0 0 0 0 0 1 0 0 0 0 0 1 1 "
         in="fbSourceGraphic" />
      <feColorMatrix
         id="feColorMatrix208"
         type="hueRotate"
         values="0"
         result="colormatrix2" />
      <feColorMatrix
         id="feColorMatrix210"
         in="colormatrix2"
         values="-1 0 0 0 1 0 -1 0 0 1 0 0 -1 0 1 0 0 0 1 0 "
         result="colormatrix3" />
      <feBlend
         in2="colormatrix2"
         id="feBlend212"
         in="colormatrix3"
         mode="darken"
         result="blend1" />
      <feBlend
         in2="blend1"
         id="feBlend214"
         mode="screen"
         result="blend2" />
      <feComposite
         in2="fbSourceGraphic"
         id="feComposite216"
         operator="in"
         result="fbSourceGraphic" />
      <feColorMatrix
         result="fbSourceGraphicAlpha"
         in="fbSourceGraphic"
         values="0 0 0 -1 0 0 0 0 -1 0 0 0 0 -1 0 0 0 0 1 0"
         id="feColorMatrix218" />
      <feColorMatrix
         id="feColorMatrix220"
         values="1 0 0 0 0 0 1 0 0 0 0 0 1 0 0 0 0 0 1 1 "
         in="fbSourceGraphic" />
      <feColorMatrix
         id="feColorMatrix222"
         type="hueRotate"
         values="38"
         result="colormatrix2" />
      <feColorMatrix
         id="feColorMatrix224"
         in="colormatrix2"
         values="-1 0 0 0 1 0 -1 0 0 1 0 0 -1 0 1 0 0 0 1 0 "
         result="colormatrix3" />
      <feBlend
         in2="colormatrix2"
         id="feBlend226"
         in="colormatrix3"
         mode="darken"
         result="blend1" />
      <feBlend
         in2="blend1"
         id="feBlend228"
         mode="screen"
         result="blend2" />
      <feComposite
         in2="fbSourceGraphic"
         id="feComposite230"
         operator="in"
         result="fbSourceGraphic" />
      <feColorMatrix
         result="fbSourceGraphicAlpha"
         in="fbSourceGraphic"
         values="0 0 0 -1 0 0 0 0 -1 0 0 0 0 -1 0 0 0 0 1 0"
         id="feColorMatrix232" />
      <feColorMatrix
         id="feColorMatrix234"
         values="1 0 0 0 0 0 1 0 0 0 0 0 1 0 0 0 0 0 1 1 "
         in="fbSourceGraphic" />
      <feColorMatrix
         id="feColorMatrix236"
         type="hueRotate"
         values="38"
         result="colormatrix2" />
      <feColorMatrix
         id="feColorMatrix238"
         in="colormatrix2"
         values="-1 0 0 0 1 0 -1 0 0 1 0 0 -1 0 1 0 0 0 1 0 "
         result="colormatrix3" />
      <feBlend
         in2="colormatrix2"
         id="feBlend240"
         in="colormatrix3"
         mode="darken"
         result="blend1" />
      <feBlend
         in2="blend1"
         id="feBlend242"
         mode="screen"
         result="blend2" />
      <feComposite
         in2="fbSourceGraphic"
         id="feComposite244"
         operator="in"
         result="fbSourceGraphic" />
      <feColorMatrix
         result="fbSourceGraphicAlpha"
         in="fbSourceGraphic"
         values="0 0 0 -1 0 0 0 0 -1 0 0 0 0 -1 0 0 0 0 1 0"
         id="feColorMatrix246" />
      <feComposite
         in2="fbSourceGraphic"
         id="feComposite248"
         operator="arithmetic"
         k1="0"
         k2="7.8756"
         result="composite1"
         in="fbSourceGraphic" />
      <feColorMatrix
         id="feColorMatrix250"
         in="composite1"
         values="1"
         type="saturate"
         result="colormatrix1" />
      <feFlood
         id="feFlood252"
         flood-opacity="1"
         flood-color="rgb(29,255,88)"
         result="flood1" />
      <feBlend
         in2="colormatrix1"
         id="feBlend254"
         in="flood1"
         mode="multiply"
         result="blend1" />
      <feBlend
         in2="blend1"
         id="feBlend256"
         mode="screen"
         result="blend2" />
      <feColorMatrix
         id="feColorMatrix258"
         in="blend2"
         values="1"
         type="saturate"
         result="colormatrix2" />
      <feComposite
         in2="fbSourceGraphic"
         id="feComposite260"
         in="colormatrix2"
         operator="in"
         k2="1"
         result="fbSourceGraphic" />
      <feColorMatrix
         result="fbSourceGraphicAlpha"
         in="fbSourceGraphic"
         values="0 0 0 -1 0 0 0 0 -1 0 0 0 0 -1 0 0 0 0 1 0"
         id="feColorMatrix262" />
      <feComposite
         in2="fbSourceGraphic"
         id="feComposite264"
         operator="arithmetic"
         k1="0"
         k2="7.8756"
         result="composite1"
         in="fbSourceGraphic" />
      <feColorMatrix
         id="feColorMatrix266"
         in="composite1"
         values="1"
         type="saturate"
         result="colormatrix1" />
      <feFlood
         id="feFlood268"
         flood-opacity="1"
         flood-color="rgb(29,255,88)"
         result="flood1" />
      <feBlend
         in2="colormatrix1"
         id="feBlend270"
         in="flood1"
         mode="multiply"
         result="blend1" />
      <feBlend
         in2="blend1"
         id="feBlend272"
         mode="screen"
         result="blend2" />
      <feColorMatrix
         id="feColorMatrix274"
         in="blend2"
         values="1"
         type="saturate"
         result="colormatrix2" />
      <feComposite
         in2="fbSourceGraphic"
         id="feComposite276"
         in="colormatrix2"
         operator="in"
         k2="1"
         result="fbSourceGraphic" />
      <feColorMatrix
         result="fbSourceGraphicAlpha"
         in="fbSourceGraphic"
         values="0 0 0 -1 0 0 0 0 -1 0 0 0 0 -1 0 0 0 0 1 0"
         id="feColorMatrix310" />
      <feComposite
         in2="fbSourceGraphic"
         id="feComposite312"
         operator="arithmetic"
         k1="0"
         k2="7.8756"
         result="composite1"
         in="fbSourceGraphic" />
      <feColorMatrix
         id="feColorMatrix314"
         in="composite1"
         values="1"
         type="saturate"
         result="colormatrix1" />
      <feFlood
         id="feFlood316"
         flood-opacity="1"
         flood-color="rgb(29,47,255)"
         result="flood1" />
      <feBlend
         in2="colormatrix1"
         id="feBlend318"
         in="flood1"
         mode="multiply"
         result="blend1" />
      <feBlend
         in2="blend1"
         id="feBlend320"
         mode="screen"
         result="blend2" />
      <feColorMatrix
         id="feColorMatrix322"
         in="blend2"
         values="1"
         type="saturate"
         result="colormatrix2" />
      <feComposite
         in2="fbSourceGraphic"
         id="feComposite324"
         in="colormatrix2"
         operator="in"
         k2="1"
         result="fbSourceGraphic" />
      <feColorMatrix
         result="fbSourceGraphicAlpha"
         in="fbSourceGraphic"
         values="0 0 0 -1 0 0 0 0 -1 0 0 0 0 -1 0 0 0 0 1 0"
         id="feColorMatrix326" />
      <feComposite
         in2="fbSourceGraphic"
         id="feComposite328"
         operator="arithmetic"
         k1="0"
         k2="7.8756"
         result="composite1"
         in="fbSourceGraphic" />
      <feColorMatrix
         id="feColorMatrix330"
         in="composite1"
         values="1"
         type="saturate"
         result="colormatrix1" />
      <feFlood
         id="feFlood332"
         flood-opacity="1"
         flood-color="rgb(255,159,29)"
         result="flood1" />
      <feBlend
         in2="colormatrix1"
         id="feBlend334"
         in="flood1"
         mode="multiply"
         result="blend1" />
      <feBlend
         in2="blend1"
         id="feBlend336"
         mode="screen"
         result="blend2" />
      <feColorMatrix
         id="feColorMatrix338"
         in="blend2"
         values="1"
         type="saturate"
         result="colormatrix2" />
      <feComposite
         in2="fbSourceGraphic"
         id="feComposite340"
         in="colormatrix2"
         operator="in"
         k2="1"
         result="fbSourceGraphic" />
      <feColorMatrix
         result="fbSourceGraphicAlpha"
         in="fbSourceGraphic"
         values="0 0 0 -1 0 0 0 0 -1 0 0 0 0 -1 0 0 0 0 1 0"
         id="feColorMatrix342" />
      <feComposite
         in2="fbSourceGraphic"
         id="feComposite344"
         operator="arithmetic"
         k1="0"
         k2="7.8756"
         result="composite1"
         in="fbSourceGraphic" />
      <feColorMatrix
         id="feColorMatrix346"
         in="composite1"
         values="1"
         type="saturate"
         result="colormatrix1" />
      <feFlood
         id="feFlood348"
         flood-opacity="1"
         flood-color="rgb(255,159,29)"
         result="flood1" />
      <feBlend
         in2="colormatrix1"
         id="feBlend350"
         in="flood1"
         mode="multiply"
         result="blend1" />
      <feBlend
         in2="blend1"
         id="feBlend352"
         mode="screen"
         result="blend2" />
      <feColorMatrix
         id="feColorMatrix354"
         in="blend2"
         values="1"
         type="saturate"
         result="colormatrix2" />
      <feComposite
         in2="fbSourceGraphic"
         id="feComposite356"
         in="colormatrix2"
         operator="in"
         k2="1"
         result="fbSourceGraphic" />
      <feColorMatrix
         result="fbSourceGraphicAlpha"
         in="fbSourceGraphic"
         values="0 0 0 -1 0 0 0 0 -1 0 0 0 0 -1 0 0 0 0 1 0"
         id="feColorMatrix362" />
      <feColorMatrix
         id="feColorMatrix364"
         values="0 0 0 0 0 0 0 0 0 0 0 0 0 0 0 -0.21 -0.72 -0.07 1 0 "
         result="result1"
         in="fbSourceGraphic" />
      <feColorMatrix
         id="feColorMatrix366"
         result="result3"
         values="1 0 0 0 0 0 1 0 0 0 0 0 1 0 0 0 0 0 2 -1 " />
      <feColorMatrix
         id="feColorMatrix368"
         values="0 0 0 0 0 0 0 0 0 0 0 0 0 0 0 0.21 0.72 0.07 0 0 "
         in="fbSourceGraphic"
         result="result2" />
      <feColorMatrix
         id="feColorMatrix370"
         result="result9"
         values="1 0 0 0 0 0 1 0 0 0 0 0 1 0 0 0 0 0 1.5 -0.5 " />
      <feMerge
         id="feMerge372"
         result="result11">
        <feMergeNode
           id="feMergeNode374"
           in="result3" />
        <feMergeNode
           id="feMergeNode376"
           in="result9" />
      </feMerge>
      <feFlood
         id="feFlood378"
         flood-opacity="1"
         flood-color="rgb(186,22,91)"
         result="result10" />
      <feComposite
         in2="result11"
         id="feComposite380"
         result="result12"
         operator="out" />
      <feFlood
         id="feFlood382"
         flood-opacity="1"
         result="result13"
         flood-color="rgb(1,171,171)" />
      <feComposite
         in2="result3"
         id="feComposite384"
         result="result14"
         operator="in" />
      <feComposite
         in2="result12"
         id="feComposite386"
         result="result17"
         k3="1"
         k2="1"
         operator="arithmetic" />
      <feFlood
         id="feFlood388"
         flood-opacity="1"
         result="result15"
         flood-color="rgb(255,255,0)" />
      <feComposite
         in2="result9"
         id="feComposite390"
         result="result16"
         operator="in" />
      <feComposite
         in2="result17"
         id="feComposite392"
         result="result18"
         k3="1"
         k2="1"
         operator="arithmetic" />
      <feComposite
         in2="fbSourceGraphic"
         id="feComposite394"
         operator="in" />
    </filter>
  </defs>
  <sodipodi:namedview
     id="namedview82"
     pagecolor="#ffffff"
     bordercolor="#000000"
     borderopacity="0.25"
     inkscape:showpageshadow="2"
     inkscape:pageopacity="0.0"
     inkscape:pagecheckerboard="0"
     inkscape:deskcolor="#d1d1d1"
     inkscape:document-units="pt"
     showgrid="false"
     inkscape:zoom="0.55434772"
     inkscape:cx="490.66676"
     inkscape:cy="172.27454"
     inkscape:window-width="1280"
     inkscape:window-height="656"
     inkscape:window-x="0"
     inkscape:window-y="27"
     inkscape:window-maximized="1"
     inkscape:current-layer="svg80" />
  <metadata
     id="metadata18">
Created by potrace 1.10, written by Peter Selinger 2001-2011
</metadata>
  <g
     transform="translate(0.000000,286.000000) scale(0.100000,-0.100000)"
     fill="#000000"
     stroke="none"
     id="g78"
     style="filter:url(#filter202)">
    <path
       d="M1271 2836 c-11 -13 -24 -15 -62 -10 -32 4 -60 2 -81 -7 -72 -29 -577 -301 -593 -319 -17 -19 -17 -29 -7 -128 7 -59 12 -119 12 -133 0 -25 -22 -40 -247 -169 -137 -78 -256 -149 -265 -158 -13 -10 -18 -30 -18 -64 0 -41 5 -54 29 -79 18 -17 40 -29 55 -29 15 0 149 59 299 130 l272 130 78 -12 c44 -6 80 -17 82 -22 1 -6 13 -90 25 -186 12 -96 34 -267 50 -380 16 -113 32 -230 35 -260 l7 -56 -104 -53 c-135 -70 -138 -73 -138 -133 0 -28 -7 -59 -16 -74 -14 -21 -16 -43 -11 -135 4 -75 10 -116 20 -128 9 -10 16 -48 20 -105 3 -59 10 -93 20 -103 9 -9 54 -20 113 -27 55 -7 109 -17 121 -24 12 -7 35 -12 52 -12 22 0 44 -13 80 -44 92 -82 228 -113 451 -102 127 6 164 3 660 -59 621 -79 702 -85 749 -60 l34 17 -6 312 c-8 417 -36 1286 -42 1313 -3 12 -13 24 -23 27 -16 5 -1051 136 -1074 136 -20 0 -5 69 33 149 50 106 56 153 35 262 -29 149 -44 277 -39 317 7 49 -14 177 -31 191 -7 6 -37 20 -67 30 -30 10 -81 29 -114 42 -51 19 -83 23 -220 27 -139 3 -163 2 -174 -12z m284 -31 c98 -21 142 -40 187 -83 27 -25 51 -42 55 -39 3 4 1 7 -5 7 -7 0 -12 9 -12 20 0 12 -5 17 -14 14 -8 -3 -17 -1 -21 5 -8 13 15 14 48 2 32 -12 38 -40 43 -181 5 -138 6 -147 30 -275 26 -139 24 -179 -14 -258 -18 -36 -37 -78 -42 -93 -15 -38 -12 -206 5 -294 14 -75 14 -75 9 -15 -3 33 -7 77 -9 98 -2 23 1 37 8 37 7 0 4 7 -5 14 -10 7 -18 17 -18 21 0 7 93 1 146 -9 12 -2 64 -9 115 -16 52 -6 110 -13 129 -15 19 -3 55 -7 80 -10 25 -3 99 -12 165 -20 294 -38 363 -46 409 -51 27 -2 52 -7 56 -9 4 -3 8 -26 8 -52 -1 -43 16 -537 27 -838 3 -66 7 -212 10 -325 2 -113 8 -242 11 -287 l6 -81 -33 -17 c-28 -15 -42 -16 -98 -7 -36 6 -294 39 -573 73 -279 35 -502 67 -495 71 9 6 8 8 -3 9 -8 0 -4 4 10 8 15 4 28 3 32 -3 5 -8 8 -7 8 1 0 8 21 11 69 10 66 -2 71 0 103 31 19 17 37 32 40 32 4 0 8 -12 10 -28 2 -21 9 -27 28 -29 25 -1 25 -1 1 4 -23 5 -24 7 -17 71 10 89 7 171 -6 195 -6 13 -8 41 -3 76 4 31 8 79 9 106 4 80 0 76 64 73 l57 -3 5 -105 5 -105 5 110 c5 110 5 110 -18 112 -66 4 -114 15 -104 25 12 12 142 0 142 -14 0 -5 4 -7 10 -3 5 3 11 -26 13 -72 l3 -78 2 80 2 80 127 65 c70 36 143 81 163 100 32 33 95 138 87 146 -2 2 -16 -20 -31 -49 -34 -69 -91 -127 -123 -127 -13 0 -22 -4 -19 -8 2 -4 -44 -33 -102 -64 -101 -53 -110 -56 -155 -49 -46 8 -75 21 -45 21 8 0 24 10 36 23 12 12 53 38 91 57 38 19 70 39 70 43 1 4 -29 -8 -66 -28 l-68 -35 -9 23 c-4 12 -12 32 -17 44 -5 14 -22 26 -47 33 -22 5 -44 16 -49 23 -5 6 -15 45 -21 86 -17 103 -35 127 -27 36 17 -222 17 -218 -4 -252 -76 -120 -343 -213 -611 -213 -168 0 -313 43 -353 103 -8 13 -22 70 -31 128 -9 57 -23 138 -31 179 -8 41 -19 115 -25 164 -6 49 -14 103 -17 119 l-6 29 37 -38 c20 -20 36 -44 37 -53 0 -9 4 -40 8 -69 4 -29 4 -55 -1 -58 -17 -11 -6 -22 47 -50 61 -32 57 -23 81 -194 8 -63 17 -117 20 -121 6 -10 88 -29 124 -29 26 0 30 3 26 23 -3 12 -15 88 -26 168 -11 80 -27 182 -34 225 -8 43 -13 79 -13 80 1 0 22 12 47 25 44 23 47 24 103 9 31 -8 57 -18 57 -22 0 -4 -42 -9 -92 -10 -87 -2 -89 -2 -23 -6 39 -2 89 0 113 3 l43 6 -7 52 c-4 29 -9 55 -13 59 -3 4 -59 4 -124 1 -88 -5 -117 -9 -113 -18 3 -9 -2 -11 -16 -7 -19 5 -19 6 -5 17 14 10 15 20 8 59 -8 41 -6 48 12 61 12 8 28 15 35 15 10 0 13 9 9 33 -3 17 -9 53 -12 78 l-7 46 -78 6 c-92 7 -191 38 -240 75 -19 14 -29 18 -21 9 8 -11 11 -28 7 -47 -6 -32 18 -98 42 -113 7 -5 10 -13 6 -18 -3 -5 -2 -9 3 -8 34 6 51 -3 57 -31 6 -33 -9 -53 -59 -80 -16 -8 -32 -26 -36 -40 -4 -15 -7 1 -7 42 -1 37 -9 96 -18 130 -9 35 -18 90 -20 123 -2 33 -4 62 -5 65 0 3 0 22 1 43 1 21 -4 45 -10 53 -7 7 -9 14 -6 14 4 0 4 5 0 12 -4 7 -9 26 -11 43 -1 16 -5 39 -8 51 -3 16 4 13 35 -17 21 -20 54 -42 73 -48 26 -9 36 -19 40 -39 3 -15 3 -29 0 -32 -2 -3 -32 10 -66 28 l-62 33 37 -35 c25 -24 60 -42 110 -58 64 -20 93 -23 238 -23 169 1 225 10 376 61 95 32 101 23 133 -221 28 -211 59 -432 67 -485 8 -58 29 -90 57 -90 47 0 122 112 111 165 -8 38 -34 89 -41 81 -3 -3 -1 -11 4 -18 17 -22 34 -84 27 -101 -5 -14 -10 -12 -34 13 -15 17 -33 30 -39 30 -6 0 3 -13 20 -28 24 -22 30 -33 25 -50 -10 -31 -41 -46 -67 -32 -11 7 -23 9 -26 7 -3 -3 8 -12 24 -21 25 -14 26 -15 6 -16 -24 0 -33 10 -39 43 -2 12 -7 37 -10 55 -4 20 -2 32 5 32 6 0 11 -5 11 -12 0 -6 3 -9 6 -6 3 4 1 15 -4 25 -15 30 -24 119 -11 106 7 -7 15 -29 19 -50 7 -36 8 -36 9 -7 1 18 -9 44 -24 64 l-25 34 -1 -30 c-1 -29 -1 -28 -10 6 -14 58 -51 341 -53 402 0 32 -4 58 -8 58 -5 0 -8 17 -9 38 0 20 -3 31 -6 24 -4 -10 -9 -10 -23 3 -25 22 -45 22 -123 -3 -168 -55 -341 -73 -491 -52 -78 11 -88 15 -97 37 -15 39 -11 46 19 39 50 -13 216 -23 262 -17 34 5 46 11 49 26 2 11 8 23 15 27 7 5 4 8 -7 8 -14 0 -16 5 -11 28 15 57 73 122 114 125 10 1 16 5 13 10 -3 5 5 6 18 3 13 -3 18 -3 10 0 -9 4 3 16 35 35 27 16 45 29 39 29 -5 0 -36 -16 -67 -35 l-58 -34 0 25 c0 17 8 27 26 34 15 6 40 20 55 31 27 19 29 19 30 2 0 -10 3 -13 6 -5 2 6 11 12 19 12 9 0 12 5 9 10 -3 6 -1 10 5 10 6 0 10 -6 8 -14 -4 -19 9 -18 54 5 46 23 55 24 37 3 -19 -23 -81 -61 -137 -84 -26 -10 -41 -19 -33 -19 7 -1 41 12 75 29 57 27 98 59 138 109 10 11 29 21 42 21 13 0 26 7 30 15 3 8 0 14 -6 12 -7 -1 -15 12 -20 28 -6 27 -7 26 -3 -7 3 -32 1 -38 -15 -38 -10 0 -22 -5 -25 -10 -4 -6 -11 -8 -16 -5 -5 4 -9 2 -9 -4 0 -11 -71 -51 -90 -51 -5 0 -10 9 -10 20 0 11 6 20 14 20 8 0 28 17 45 37 30 36 31 37 32 13 1 -17 4 -12 10 15 4 22 14 65 22 95 l14 55 11 -45 c11 -45 11 -45 5 15 -8 88 -30 214 -32 182 l-1 -27 -36 40 c-42 46 -40 57 8 41 30 -10 31 -9 13 4 -11 8 -25 19 -31 24 -7 6 -27 2 -55 -11 -33 -15 -48 -17 -61 -9 -26 16 -45 14 -109 -15 -45 -21 -64 -25 -81 -17 -19 8 -12 15 68 58 49 27 102 55 117 63 16 8 26 16 23 19 -3 3 -60 -24 -126 -61 -67 -36 -125 -66 -128 -66 -4 0 -23 -22 -42 -49 -35 -49 -100 -88 -123 -74 -5 3 -17 -3 -24 -13 -13 -17 -14 -15 -8 26 8 51 18 73 49 111 22 25 23 26 70 12 26 -8 50 -12 52 -10 3 2 -16 10 -41 17 -52 14 -55 22 -19 39 15 6 24 14 21 17 -8 8 -89 -41 -114 -68 -31 -32 -45 -73 -52 -148 l-6 -64 -40 -12 c-22 -7 -79 -13 -127 -13 -97 -1 -89 -8 -103 80 l-5 35 172 92 c95 50 181 97 191 104 15 12 14 13 -14 14 -17 1 -25 -2 -19 -6 8 -5 -38 -34 -116 -75 -212 -111 -258 -139 -273 -167 -14 -24 -14 -29 3 -47 23 -26 104 -51 162 -51 88 0 149 22 349 128 110 58 208 105 218 104 10 0 15 4 11 10 -11 17 87 4 131 -18 21 -10 47 -30 57 -44 28 -39 34 -118 13 -185 -32 -99 -66 -125 -379 -289 -153 -81 -280 -145 -282 -143 -4 4 -46 349 -42 352 2 1 95 51 208 111 422 222 387 202 345 202 -21 0 -33 -3 -27 -6 8 -6 -499 -281 -534 -290 -6 -2 -100 25 -208 59 -109 33 -200 59 -202 56 -10 -10 59 -39 160 -68 56 -15 132 -39 171 -53 l70 -25 22 -168 c12 -92 20 -169 19 -171 -2 -1 -39 9 -82 22 -43 14 -113 27 -154 30 -41 2 -92 12 -113 21 -22 9 -36 11 -32 6 3 -6 1 -11 -4 -11 -6 0 -77 -32 -159 -71 -322 -154 -403 -191 -417 -186 -22 9 -47 54 -41 75 4 10 23 28 44 39 20 11 66 37 100 57 35 20 68 36 73 36 5 0 9 5 9 11 0 5 5 7 10 4 6 -3 10 -2 10 2 0 5 28 24 63 42 34 19 87 48 117 64 30 16 69 40 86 53 17 13 35 20 39 16 4 -4 5 2 2 13 -3 11 -9 47 -12 80 -13 135 -16 161 -21 177 -4 12 9 23 48 40 29 14 156 79 281 146 125 67 234 122 242 122 7 0 15 6 18 13 3 9 21 8 83 -4 74 -15 81 -15 113 1 24 12 30 19 21 25 -7 4 -15 3 -19 -2 -3 -6 -16 -15 -28 -22 -21 -11 -23 -9 -23 13 0 15 7 26 18 29 23 6 200 0 237 -8z m-149 -176 c3 -5 -2 -9 -12 -9 -9 0 -32 -10 -51 -21 -44 -28 -51 -20 -15 19 28 30 63 35 78 11z m-568 -176 c-2 -11 -8 -10 -25 2 -27 19 -29 42 -6 68 17 18 18 18 26 -19 4 -21 6 -44 5 -51z m612 -338 c0 -24 -47 -49 -72 -38 -20 9 -20 10 13 30 41 26 59 28 59 8z m-61 -60 c3 -3 0 -9 -6 -13 -23 -14 -42 -78 -36 -117 l6 -38 -139 6 c-85 3 -158 11 -188 21 -62 20 -132 61 -140 81 -7 19 -7 19 47 -4 25 -11 66 -23 93 -27 l47 -7 -24 -18 c-40 -31 2 -12 145 66 113 62 135 71 160 64 16 -5 31 -11 35 -14z m-364 -380 c25 -24 34 -75 15 -75 -19 0 -60 52 -60 76 0 31 15 30 45 -1z m105 -36 c0 -5 5 -7 10 -4 6 3 10 1 10 -5 0 -6 5 -8 10 -5 6 3 10 -3 10 -14 0 -11 12 -33 26 -48 l26 -28 -21 29 c-20 27 -29 86 -13 86 36 -1 87 -110 51 -110 -6 0 -9 -7 -5 -15 3 -8 2 -15 -3 -15 -17 0 -34 -85 -21 -110 12 -24 1 -40 -28 -41 -23 -1 -22 -3 11 -11 23 -6 37 -16 38 -26 0 -10 6 -56 13 -105 7 -48 8 -83 3 -78 -5 5 -10 23 -10 39 -1 17 -5 28 -10 25 -4 -2 -5 -8 -2 -13 3 -4 -4 -10 -15 -13 -11 -3 -20 -1 -20 5 0 6 -9 8 -20 5 -11 -3 -18 -1 -14 4 3 5 -6 9 -20 9 -14 0 -26 5 -26 12 0 6 -6 3 -14 -7 -7 -10 -20 -16 -28 -12 -20 7 -29 67 -14 86 8 11 8 13 -1 7 -8 -4 -13 -2 -13 6 0 8 6 20 13 27 10 10 9 11 -6 5 -13 -5 -16 -2 -11 10 3 9 10 16 14 16 11 0 0 41 -15 60 -27 34 -29 43 -7 38 13 -4 19 -2 16 6 -2 6 6 16 18 21 18 8 23 17 21 42 -1 26 3 34 25 43 25 10 25 10 2 4 -14 -3 -34 -8 -45 -11 -17 -4 -15 -1 8 21 31 30 62 28 72 -5 4 -10 10 -17 15 -14 10 6 2 34 -16 52 -9 9 -13 10 -16 2 -3 -8 -10 -6 -21 5 -12 13 -17 14 -17 4 0 -7 -9 -19 -20 -26 -22 -13 -23 -12 -14 12 3 9 10 13 15 10 5 -3 9 3 9 13 0 13 8 19 25 21 14 1 25 -3 25 -9z m-114 -233 c19 -19 18 -66 -1 -66 -19 0 -49 46 -41 65 7 19 23 19 42 1z m462 -84 c3 -38 1 -43 -15 -38 -113 36 -128 43 -131 58 -3 14 7 18 55 21 90 5 88 7 91 -41z m-175 19 c6 -24 -7 -46 -22 -37 -16 10 -14 56 3 56 7 0 16 -9 19 -19z m-158 -181 c3 -5 17 -10 31 -10 44 0 62 -17 73 -70 6 -28 11 -64 11 -80 0 -16 6 -33 14 -37 7 -4 16 -28 20 -53 l6 -45 -58 -32 -59 -32 -17 123 c-21 163 -22 158 19 180 19 11 33 21 30 24 -2 2 -20 -5 -39 -16 -33 -20 -38 -20 -80 -6 -57 19 -80 44 -43 44 14 0 29 5 32 10 3 6 17 10 30 10 13 0 27 -4 30 -10z m-153 -151 c3 -32 0 -44 -16 -55 -11 -8 -26 -14 -33 -14 -7 0 -13 -5 -13 -11 0 -5 5 -7 10 -4 16 10 12 -79 -5 -101 -17 -22 -21 -199 -5 -209 6 -3 7 -18 4 -32 -4 -14 -2 -28 4 -32 6 -4 14 -43 18 -88 9 -103 1 -109 -113 -93 -42 6 -79 12 -81 15 -3 2 -6 39 -7 82 -4 119 -4 123 -19 123 -19 0 -26 32 -26 128 0 64 3 84 15 88 11 5 15 21 15 59 0 67 20 92 70 85 8 -1 12 2 7 6 -7 7 136 91 159 93 7 1 14 -17 16 -40z m1160 -77 c3 -4 8 -24 9 -44 3 -37 3 -38 -71 -77 l-75 -39 4 -62 c2 -34 -3 -88 -10 -121 -11 -52 -19 -65 -61 -100 -55 -46 -50 -54 -68 95 l-11 88 78 72 c92 83 211 201 168 165 -16 -14 -81 -72 -143 -128 l-113 -104 -42 10 -42 11 37 1 c20 0 40 6 43 11 4 6 38 31 77 57 41 27 81 63 96 87 15 23 32 45 39 49 18 11 16 27 -2 27 -8 0 -15 5 -15 11 0 12 89 4 102 -9z m-1152 -7 c0 -8 -4 -15 -9 -15 -4 0 -13 -15 -19 -32 -10 -33 -10 -33 -11 15 -1 41 2 47 19 47 11 0 20 -7 20 -15z m11 -93 c-17 -6 -13 -32 4 -32 8 0 15 -3 15 -8 0 -4 -19 -7 -42 -5 l-43 2 39 -8 c21 -5 42 -14 46 -21 4 -6 10 -42 14 -79 4 -36 9 -82 13 -102 l5 -37 -48 5 c-27 3 -50 6 -51 7 -1 0 -9 55 -19 120 l-17 120 44 37 c35 30 45 34 48 21 2 -9 -2 -18 -8 -20z m299 -27 c0 -33 0 -34 -37 -28 -79 12 -82 18 -28 46 28 14 53 23 58 20 4 -2 7 -19 7 -38z m-183 -119 c106 -53 336 -66 518 -28 54 12 100 20 101 19 2 -3 32 -222 30 -224 -7 -9 -140 -35 -228 -44 -191 -19 -369 16 -441 86 -29 28 -35 42 -40 96 -4 35 -10 84 -13 109 l-7 45 24 -21 c13 -12 38 -29 56 -38z m729 -19 c2 -7 31 -223 29 -225 -1 -1 -22 1 -47 4 l-46 6 -11 82 c-7 44 -15 96 -18 115 l-6 34 49 -8 c27 -4 49 -8 50 -8z m-805 -137 c13 0 18 -15 24 -77 4 -42 11 -86 16 -97 9 -21 5 38 -8 114 l-6 34 33 -27 c65 -55 190 -87 338 -87 89 0 249 22 297 40 15 6 29 9 31 7 6 -5 32 -192 28 -196 -2 -2 -47 -14 -101 -27 -74 -18 -128 -23 -219 -24 -195 0 -292 26 -365 100 -25 25 -50 41 -67 41 -15 1 -34 2 -44 3 -25 2 -26 6 -32 93 -4 45 -9 90 -13 99 -6 15 -1 16 33 11 21 -4 46 -7 55 -7z m968 -67 c6 -31 11 -75 11 -98 0 -39 -4 -46 -55 -90 -54 -46 -56 -47 -105 -40 -28 4 -50 8 -51 8 -1 4 -26 192 -25 194 1 0 22 -1 48 -4 l47 -5 7 -57 c3 -31 10 -72 14 -91 8 -35 8 -35 9 -5 0 17 -4 57 -9 90 l-10 60 48 47 c26 26 50 48 53 48 3 0 11 -26 18 -57z"
       id="path20" />
    <path
       d="M1606 2525 c-3 -8 0 -15 7 -15 8 0 7 -4 -3 -10 -12 -7 -12 -12 -3 -21 17 -17 43 6 43 37 0 27 -34 34 -44 9z"
       id="path22" />
    <path
       d="M1543 2493 c-17 -6 -16 -50 1 -56 19 -7 36 12 36 40 0 22 -11 27 -37 16z"
       id="path24" />
    <path
       d="M1620 2435 c-16 -19 -9 -49 13 -53 18 -4 38 33 30 56 -7 16 -28 15 -43 -3z"
       id="path26" />
    <path
       d="M1547 2396 c-3 -8 1 -20 9 -26 11 -10 14 -10 14 0 0 8 3 11 6 7 3 -3 3 -11 -1 -17 -5 -8 -11 -8 -21 1 -9 7 -14 8 -14 1 0 -16 16 -23 34 -16 24 9 21 64 -3 64 -10 0 -21 -6 -24 -14z"
       id="path28" />
    <path
       d="M676 2340 c-17 -10 -35 -29 -42 -42 -18 -36 -26 -78 -14 -78 5 0 9 3 8 8 -2 4 3 22 11 40 14 33 22 36 83 26 30 -5 39 -12 48 -38 5 -17 25 -50 43 -72 30 -38 35 -40 52 -28 27 20 36 17 31 -8 -3 -13 -5 -28 -5 -35 -1 -6 -13 -25 -27 -42 l-25 -30 30 10 c23 8 33 20 40 47 25 99 25 99 -18 172 -23 38 -45 71 -49 74 -5 3 -38 8 -73 10 -53 5 -69 2 -93 -14z m107 0 c29 0 30 -1 12 -13 -29 -20 -59 -26 -97 -18 l-33 7 30 17 c17 9 36 14 43 12 8 -3 28 -5 45 -5z m91 -69 c20 -32 36 -64 36 -70 0 -6 -14 -18 -30 -26 -30 -15 -32 -15 -51 7 -23 27 -59 93 -59 107 0 9 46 40 61 41 3 0 23 -27 43 -59z"
       id="path30" />
    <path
       d="M1836 2135 c-9 -13 -40 -40 -68 -60 -29 -19 -48 -35 -43 -35 23 0 109 70 126 103 14 26 4 21 -15 -8z"
       id="path32" />
    <path
       d="M1630 2008 c-41 -17 -113 -39 -160 -49 -47 -9 -73 -18 -59 -18 57 -2 299 74 299 93 0 4 -1 6 -2 5 -2 -1 -37 -15 -78 -31z"
       id="path34" />
    <path
       d="M926 1812 c-7 -12 32 -48 41 -38 8 8 -8 38 -24 43 -6 2 -14 0 -17 -5z"
       id="path36" />
    <path
       d="M1122 1733 c2 -13 14 -19 41 -21 33 -3 38 -1 35 15 -2 13 -14 19 -41 21 -33 3 -38 1 -35 -15z"
       id="path38" />
    <path
       d="M940 1584 c0 -6 3 -14 8 -18 4 -4 12 -29 19 -54 l12 -47 -5 44 c-4 38 -34 103 -34 75z"
       id="path40" />
    <path
       d="M1844 1488 c3 -35 5 -68 6 -75 0 -6 27 -30 61 -52 36 -24 59 -34 55 -25 -3 9 -6 25 -6 37 0 17 -2 19 -9 8 -8 -12 -14 -12 -40 -1 -41 17 -52 38 -54 110 -1 33 -5 60 -10 60 -5 0 -6 -28 -3 -62z"
       id="path42" />
    <path
       d="M2382 1418 c2 -60 2 -61 5 -13 3 31 10 55 20 63 15 11 15 12 -5 12 -20 0 -22 -4 -20 -62z"
       id="path44" />
    <path
       d="M2324 1350 c0 -63 1 -89 3 -57 2 31 2 83 0 115 -2 31 -3 5 -3 -58z"
       id="path46" />
    <path
       d="M2554 1453 c15 -4 17 -11 13 -40 -4 -20 -5 -34 -3 -32 1 2 11 20 22 39 l20 35 -35 1 c-20 1 -28 -1 -17 -3z"
       id="path48" />
    <path
       d="M2391 1245 c-1 -40 0 -41 36 -43 20 -2 40 -5 44 -8 5 -2 15 9 24 25 19 38 19 55 -1 19 -11 -21 -22 -28 -43 -28 -32 0 -47 14 -54 50 -3 17 -5 12 -6 -15z"
       id="path50" />
    <path
       d="M2652 1201 c-23 -52 -29 -77 -23 -98 6 -24 8 -25 14 -8 4 10 3 21 -3 25 -7 4 0 30 20 75 17 37 29 70 27 72 -2 2 -18 -28 -35 -66z"
       id="path52" />
    <path
       d="M1440 1187 c-30 -15 -36 -39 -15 -61 30 -30 115 -9 115 29 0 39 -53 56 -100 32z m86 -19 c9 -13 -31 -48 -55 -48 -10 0 -26 6 -36 14 -16 12 -17 16 -6 30 16 19 86 22 97 4z"
       id="path54" />
    <path
       d="M2399 1020 c-13 -22 -26 -40 -30 -40 -5 0 -14 -10 -20 -22 l-12 -23 25 23 c24 21 74 102 64 102 -2 0 -15 -18 -27 -40z"
       id="path56" />
    <path
       d="M2358 679 c-43 -21 -78 -41 -78 -44 0 -3 36 13 80 35 44 22 80 42 80 45 0 7 4 8 -82 -36z"
       id="path58" />
    <path
       d="M2540 552 l0 -48 -87 -44 c-49 -24 -110 -47 -138 -50 l-50 -7 43 -2 c33 -1 65 10 142 49 l100 50 0 50 c0 28 -2 50 -5 50 -3 0 -5 -21 -5 -48z"
       id="path60" />
    <path
       d="M2184 335 c0 -55 1 -76 3 -47 2 29 2 74 0 100 -2 26 -3 2 -3 -53z"
       id="path62" />
    <path
       d="M2230 338 c0 -45 3 -78 7 -75 3 4 5 37 4 73 -2 47 2 69 11 75 10 7 9 9 -4 9 -16 0 -18 -10 -18 -82z"
       id="path64" />
    <path
       d="M2478 362 c-14 -6 -13 -11 13 -40 16 -18 29 -29 29 -25 0 3 -8 15 -17 26 -13 15 -15 21 -5 24 13 5 17 23 5 22 -5 0 -16 -3 -25 -7z"
       id="path66" />
    <path
       d="M2560 350 l-35 -7 40 -2 c37 -1 49 -10 190 -148 l150 -148 -155 158 c-85 86 -155 156 -155 156 0 -1 -16 -5 -35 -9z"
       id="path68" />
    <path
       d="M2337 288 c-31 -15 -57 -31 -57 -33 0 -3 19 4 43 17 23 12 58 24 77 28 28 5 31 7 14 12 -12 3 -43 -6 -77 -24z"
       id="path70" />
    <path
       d="M1200 1950 c-34 -8 -32 -34 2 -38 30 -4 71 14 63 27 -7 13 -37 18 -65 11z"
       id="path72" />
    <path
       d="M810 915 c8 -2 32 -6 52 -10 l37 -6 3 -117 3 -117 5 125 5 125 -60 2 c-33 0 -53 0 -45 -2z"
       id="path74" />
    <path
       d="M914 465 c0 -49 1 -71 3 -48 2 23 2 64 0 90 -2 26 -3 8 -3 -42z"
       id="path76" />
  </g>
</svg>
